{"glyphs":{"0":{"ha":861,"x_min":0,"x_max":0,"o":"m 430 418 b 519 503 475 418 519 450 b 430 589 519 558 475 589 b 342 503 385 589 342 552 b 382 450 342 467 360 450 b 430 418 393 431 412 418 z m 365 -15 b 789 605 672 -15 789 364 b 700 878 789 736 751 828 b 535 1031 739 944 679 1031 b 65 359 217 1031 65 639 b 365 -15 65 134 176 -15 z m 214 374 b 517 890 214 566 329 890 b 557 885 531 890 544 888 b 575 793 541 858 547 825 b 647 582 619 754 647 681 b 379 123 647 410 556 123 b 214 374 269 123 214 233 z "},"1":{"ha":861,"x_min":0,"x_max":0,"o":"m 154 -3 l 685 22 b 749 91 723 23 749 52 b 681 153 749 129 719 155 l 488 147 l 606 899 b 510 1047 623 1006 576 1047 b 290 1001 449 1047 346 1019 b 208 897 225 981 190 948 b 295 853 222 854 259 844 b 451 909 344 867 404 889 l 467 894 b 336 142 426 664 370 342 l 151 137 b 83 65 113 135 83 103 b 154 -3 83 26 116 -5 z "},"2":{"ha":861,"x_min":0,"x_max":0,"o":"m 501 1028 b 199 875 340 1028 228 925 b 219 781 178 840 185 802 b 319 794 252 760 289 766 b 504 883 369 842 433 883 b 638 747 585 883 638 837 b 126 173 638 549 365 331 b 72 72 89 149 62 122 b 172 10 83 23 119 10 l 655 9 b 733 83 708 9 733 44 b 660 151 733 124 707 151 b 302 132 563 151 424 142 l 294 151 b 789 758 506 263 789 490 b 501 1028 789 953 637 1028 z "},"3":{"ha":861,"x_min":0,"x_max":0,"o":"m 413 -20 b 790 273 633 -20 790 89 b 539 523 790 436 664 506 l 535 539 b 773 808 660 589 773 675 b 501 1034 773 941 665 1034 b 186 883 351 1034 233 952 b 197 778 161 847 162 803 b 291 792 226 757 263 765 b 489 892 358 864 419 892 b 630 788 570 892 630 854 b 390 582 630 694 509 634 b 326 495 337 558 322 531 b 438 426 328 447 370 426 b 644 278 531 426 644 385 b 418 119 644 176 544 119 b 200 181 332 119 254 147 b 97 170 157 205 120 203 b 110 72 75 141 76 101 b 413 -20 176 19 285 -20 z "},"4":{"ha":861,"x_min":0,"x_max":0,"o":"m 181 306 b 557 315 294 306 432 310 l 522 63 b 590 -22 515 13 549 -22 b 664 57 626 -22 656 6 l 699 321 l 722 322 b 790 393 760 324 790 356 b 717 458 790 432 756 460 b 775 916 738 624 760 792 b 702 1038 786 1000 753 1038 b 611 935 651 1038 611 1000 b 631 863 611 906 618 883 l 575 449 b 238 438 469 444 347 439 b 397 918 322 590 397 757 b 306 1031 397 993 359 1031 b 216 931 256 1031 216 997 b 252 838 216 892 228 855 b 82 425 233 687 122 562 b 181 306 66 356 106 306 z "},"5":{"ha":861,"x_min":0,"x_max":0,"o":"m 185 -15 b 740 392 518 -15 740 156 b 476 633 740 553 638 633 b 301 608 409 633 342 617 l 289 622 b 360 870 306 685 335 786 l 680 879 b 763 949 725 881 763 903 b 691 1017 763 983 742 1018 l 303 1008 b 227 944 265 1006 239 992 b 145 581 205 851 161 667 b 238 492 134 513 189 480 b 433 521 288 505 369 521 b 595 388 536 521 595 481 b 196 128 595 217 399 128 b 95 56 124 128 95 99 b 185 -15 95 8 128 -15 z "},"6":{"ha":861,"x_min":0,"x_max":0,"o":"m 431 -19 b 777 290 640 -19 777 119 b 506 549 777 453 662 549 b 233 441 399 549 305 503 b 622 874 276 607 426 784 b 695 987 674 900 717 938 b 585 1010 678 1024 640 1033 b 80 348 288 891 80 614 b 431 -19 80 117 223 -19 z m 220 326 b 474 431 297 395 386 431 b 642 292 581 431 642 374 b 433 112 642 197 560 112 b 220 326 313 112 228 186 z "},"7":{"ha":861,"x_min":0,"x_max":0,"o":"m 325 -15 b 432 45 359 -29 403 -15 b 763 819 549 285 717 670 b 655 1020 803 951 747 1020 b 266 1016 565 1020 384 1019 b 178 1049 248 1036 217 1049 b 70 961 107 1049 70 1012 b 197 867 70 903 124 867 b 546 877 298 867 459 877 b 601 808 603 877 622 865 b 296 93 534 627 389 301 b 325 -15 274 42 288 -1 z "},"8":{"ha":861,"x_min":0,"x_max":0,"o":"m 408 -19 b 751 224 590 -19 751 74 b 510 524 751 350 635 440 l 491 536 b 814 935 638 639 814 813 b 731 1026 814 997 772 1026 b 653 981 696 1026 669 1008 b 445 1035 606 1009 538 1035 b 137 794 277 1035 137 946 b 276 542 137 694 201 608 b 76 238 165 459 76 365 b 408 -19 76 64 240 -19 z m 217 240 b 385 461 217 320 288 389 b 609 225 477 401 609 311 b 415 105 609 151 514 105 b 217 240 329 105 217 138 z m 276 790 b 449 912 276 863 353 912 b 633 849 531 912 603 873 l 635 847 b 385 618 572 765 484 685 b 276 790 327 671 276 733 z "},"9":{"ha":861,"x_min":0,"x_max":0,"o":"m 431 1033 b 84 726 221 1033 84 897 b 356 467 84 563 200 467 b 629 574 463 467 558 512 b 240 140 586 408 435 231 b 166 28 187 115 144 78 b 277 5 183 -10 221 -17 b 781 667 573 124 781 401 b 431 1033 781 898 639 1033 z m 219 723 b 428 903 219 819 301 903 b 642 690 548 903 634 829 b 388 584 565 620 475 584 b 219 723 280 584 219 640 z "}," ":{"ha":861,"x_min":0,"x_max":0,"o":""},"A":{"ha":861,"x_min":0,"x_max":0,"o":"m 159 -35 b 246 56 208 -35 246 3 b 233 110 246 74 242 95 b 294 288 248 156 269 219 b 552 316 380 300 467 310 b 575 90 556 223 563 141 b 672 -4 590 28 626 -4 b 754 73 715 -4 754 22 b 706 156 754 108 735 135 b 694 324 701 205 697 263 b 763 397 738 328 764 361 b 689 463 762 435 733 462 b 681 849 685 608 683 754 b 562 1031 679 970 640 1031 b 383 858 485 1031 440 975 b 197 412 341 772 263 582 l 158 405 b 85 329 113 396 84 369 b 141 265 85 295 108 268 b 85 97 112 186 91 124 b 159 -35 63 18 101 -35 z m 349 435 b 528 871 416 612 490 795 l 552 864 b 549 456 549 768 546 609 b 349 435 483 451 416 444 z "},"Á":{"ha":861,"x_min":0,"x_max":0,"o":"m 159 -35 b 246 56 208 -35 246 3 b 233 110 246 74 242 95 b 294 288 248 156 269 219 b 552 316 380 300 467 310 b 575 90 556 223 563 141 b 672 -4 590 28 626 -4 b 754 73 715 -4 754 22 b 706 156 754 108 735 135 b 694 324 701 205 697 263 b 763 397 738 328 764 361 b 689 463 762 435 733 462 b 681 849 685 608 683 754 b 562 1031 679 970 640 1031 b 383 858 485 1031 440 975 b 197 412 341 772 263 582 l 158 405 b 85 329 113 396 84 369 b 141 265 85 295 108 268 b 85 97 112 186 91 124 b 159 -35 63 18 101 -35 z m 542 1131 b 549 1208 518 1156 519 1183 b 628 1295 577 1232 608 1264 b 728 1301 653 1337 698 1331 b 735 1208 760 1271 763 1238 b 619 1126 708 1179 660 1145 b 542 1131 595 1115 567 1106 z m 349 435 b 528 871 416 612 490 795 l 552 864 b 549 456 549 768 546 609 b 349 435 483 451 416 444 z "},"Ă":{"ha":861,"x_min":0,"x_max":0,"o":"m 159 -35 b 246 56 208 -35 246 3 b 233 110 246 74 242 95 b 294 288 248 156 269 219 b 552 316 380 300 467 310 b 575 90 556 223 563 141 b 672 -4 590 28 626 -4 b 754 73 715 -4 754 22 b 706 156 754 108 735 135 b 694 324 701 205 697 263 b 763 397 738 328 764 361 b 689 463 762 435 733 462 b 681 849 685 608 683 754 b 562 1031 679 970 640 1031 b 383 858 485 1031 440 975 b 197 412 341 772 263 582 l 158 405 b 85 329 113 396 84 369 b 141 265 85 295 108 268 b 85 97 112 186 91 124 b 159 -35 63 18 101 -35 z m 581 1133 b 798 1267 706 1133 787 1191 b 753 1322 803 1299 784 1319 b 694 1283 719 1323 701 1308 b 579 1222 683 1243 647 1222 b 469 1272 522 1222 486 1236 b 408 1311 458 1298 442 1313 b 363 1255 376 1309 356 1288 b 581 1133 375 1192 455 1133 z m 349 435 b 528 871 416 612 490 795 l 552 864 b 549 456 549 768 546 609 b 349 435 483 451 416 444 z "},"Â":{"ha":861,"x_min":0,"x_max":0,"o":"m 159 -35 b 246 56 208 -35 246 3 b 233 110 246 74 242 95 b 294 288 248 156 269 219 b 552 316 380 300 467 310 b 575 90 556 223 563 141 b 672 -4 590 28 626 -4 b 754 73 715 -4 754 22 b 706 156 754 108 735 135 b 694 324 701 205 697 263 b 763 397 738 328 764 361 b 689 463 762 435 733 462 b 681 849 685 608 683 754 b 562 1031 679 970 640 1031 b 383 858 485 1031 440 975 b 197 412 341 772 263 582 l 158 405 b 85 329 113 396 84 369 b 141 265 85 295 108 268 b 85 97 112 186 91 124 b 159 -35 63 18 101 -35 z m 340 1139 b 451 1139 366 1115 411 1119 b 597 1242 494 1159 551 1199 b 694 1147 633 1213 662 1185 b 775 1137 720 1118 752 1117 b 779 1213 796 1156 801 1184 b 662 1318 744 1258 709 1289 b 523 1313 618 1344 564 1349 b 429 1241 495 1286 465 1262 b 339 1231 403 1258 365 1257 b 340 1139 312 1202 317 1159 z m 349 435 b 528 871 416 612 490 795 l 552 864 b 549 456 549 768 546 609 b 349 435 483 451 416 444 z "},"Ä":{"ha":861,"x_min":0,"x_max":0,"o":"m 159 -35 b 246 56 208 -35 246 3 b 233 110 246 74 242 95 b 294 288 248 156 269 219 b 552 316 380 300 467 310 b 575 90 556 223 563 141 b 672 -4 590 28 626 -4 b 754 73 715 -4 754 22 b 706 156 754 108 735 135 b 694 324 701 205 697 263 b 763 397 738 328 764 361 b 689 463 762 435 733 462 b 681 849 685 608 683 754 b 562 1031 679 970 640 1031 b 383 858 485 1031 440 975 b 197 412 341 772 263 582 l 158 405 b 85 329 113 396 84 369 b 141 265 85 295 108 268 b 85 97 112 186 91 124 b 159 -35 63 18 101 -35 z m 397 1130 b 493 1228 442 1130 493 1167 b 393 1322 493 1285 448 1322 b 292 1228 340 1322 292 1285 b 338 1166 292 1190 310 1167 b 397 1130 350 1143 373 1130 z m 652 1214 b 755 1126 652 1165 693 1126 b 863 1227 822 1126 863 1172 b 762 1330 863 1282 823 1330 b 694 1282 725 1330 699 1312 b 652 1214 669 1270 652 1247 z m 349 435 b 528 871 416 612 490 795 l 552 864 b 549 456 549 768 546 609 b 349 435 483 451 416 444 z "},"Ạ":{"ha":861,"x_min":0,"x_max":0,"o":"m 159 -35 b 246 56 208 -35 246 3 b 233 110 246 74 242 95 b 294 288 248 156 269 219 b 552 316 380 300 467 310 b 575 90 556 223 563 141 b 672 -4 590 28 626 -4 b 754 73 715 -4 754 22 b 706 156 754 108 735 135 b 694 324 701 205 697 263 b 763 397 738 328 764 361 b 689 463 762 435 733 462 b 681 849 685 608 683 754 b 562 1031 679 970 640 1031 b 383 858 485 1031 440 975 b 197 412 341 772 263 582 l 158 405 b 85 329 113 396 84 369 b 141 265 85 295 108 268 b 85 97 112 186 91 124 b 159 -35 63 18 101 -35 z m 424 -369 b 535 -256 476 -369 535 -327 b 419 -150 535 -192 483 -150 b 301 -257 357 -150 301 -191 b 354 -328 301 -300 321 -326 b 424 -369 368 -353 395 -369 z m 349 435 b 528 871 416 612 490 795 l 552 864 b 549 456 549 768 546 609 b 349 435 483 451 416 444 z "},"À":{"ha":861,"x_min":0,"x_max":0,"o":"m 159 -35 b 246 56 208 -35 246 3 b 233 110 246 74 242 95 b 294 288 248 156 269 219 b 552 316 380 300 467 310 b 575 90 556 223 563 141 b 672 -4 590 28 626 -4 b 754 73 715 -4 754 22 b 706 156 754 108 735 135 b 694 324 701 205 697 263 b 763 397 738 328 764 361 b 689 463 762 435 733 462 b 681 849 685 608 683 754 b 562 1031 679 970 640 1031 b 383 858 485 1031 440 975 b 197 412 341 772 263 582 l 158 405 b 85 329 113 396 84 369 b 141 265 85 295 108 268 b 85 97 112 186 91 124 b 159 -35 63 18 101 -35 z m 613 1131 b 607 1208 637 1156 636 1183 b 527 1295 578 1232 548 1264 b 426 1301 502 1337 457 1331 b 420 1208 395 1271 393 1238 b 536 1126 447 1179 494 1145 b 613 1131 560 1115 589 1106 z m 349 435 b 528 871 416 612 490 795 l 552 864 b 549 456 549 768 546 609 b 349 435 483 451 416 444 z "},"Ā":{"ha":861,"x_min":0,"x_max":0,"o":"m 159 -35 b 246 56 208 -35 246 3 b 233 110 246 74 242 95 b 294 288 248 156 269 219 b 552 316 380 300 467 310 b 575 90 556 223 563 141 b 672 -4 590 28 626 -4 b 754 73 715 -4 754 22 b 706 156 754 108 735 135 b 694 324 701 205 697 263 b 763 397 738 328 764 361 b 689 463 762 435 733 462 b 681 849 685 608 683 754 b 562 1031 679 970 640 1031 b 383 858 485 1031 440 975 b 197 412 341 772 263 582 l 158 405 b 85 329 113 396 84 369 b 141 265 85 295 108 268 b 85 97 112 186 91 124 b 159 -35 63 18 101 -35 z m 404 1185 l 753 1188 b 806 1245 783 1188 806 1210 b 751 1299 805 1279 782 1301 l 402 1284 b 350 1234 372 1283 349 1262 b 404 1185 351 1206 374 1186 z m 349 435 b 528 871 416 612 490 795 l 552 864 b 549 456 549 768 546 609 b 349 435 483 451 416 444 z "},"Ą":{"ha":861,"x_min":0,"x_max":0,"o":"m 159 -35 b 246 56 208 -35 246 3 b 233 110 246 74 242 95 b 294 288 248 156 269 219 b 552 316 380 300 467 310 b 575 90 556 223 563 141 b 614 17 583 58 597 33 b 483 -162 523 -47 483 -103 b 635 -288 483 -228 527 -281 b 713 -242 684 -291 707 -273 b 674 -187 719 -212 703 -194 b 615 -127 638 -178 615 -162 b 710 3 615 -81 652 -42 b 754 73 736 15 754 38 b 706 156 754 108 735 135 b 694 324 701 205 697 263 b 763 397 738 328 764 361 b 689 463 762 435 733 462 b 681 849 685 608 683 754 b 562 1031 679 970 640 1031 b 383 858 485 1031 440 975 b 197 412 341 772 263 582 l 158 405 b 85 329 113 396 84 369 b 141 265 85 295 108 268 b 85 97 112 186 91 124 b 159 -35 63 18 101 -35 z m 349 435 b 528 871 416 612 490 795 l 552 864 b 549 456 549 768 546 609 b 349 435 483 451 416 444 z "},"Å":{"ha":861,"x_min":0,"x_max":0,"o":"m 159 -35 b 246 56 208 -35 246 3 b 233 110 246 74 242 95 b 294 288 248 156 269 219 b 552 316 380 300 467 310 b 575 90 556 223 563 141 b 672 -4 590 28 626 -4 b 754 73 715 -4 754 22 b 706 156 754 108 735 135 b 694 324 701 205 697 263 b 763 397 738 328 764 361 b 689 463 762 435 733 462 b 681 849 685 608 683 754 b 633 1006 680 924 664 977 b 753 1165 706 1028 753 1090 b 712 1272 753 1217 733 1252 l 714 1275 b 706 1328 724 1292 721 1316 b 603 1358 681 1348 642 1358 b 409 1153 488 1358 409 1264 b 493 1012 409 1082 444 1035 b 383 858 453 986 421 935 b 197 412 341 772 263 582 l 158 405 b 85 329 113 396 84 369 b 141 265 85 295 108 268 b 85 97 112 186 91 124 b 159 -35 63 18 101 -35 z m 349 435 b 528 871 416 612 490 795 l 552 864 b 549 456 549 768 546 609 b 349 435 483 451 416 444 z m 504 1163 b 604 1267 504 1213 545 1267 b 633 1263 615 1267 624 1265 b 638 1209 619 1244 626 1222 b 660 1156 649 1198 660 1180 b 574 1085 658 1117 627 1085 b 504 1163 534 1085 504 1115 z "},"Ã":{"ha":861,"x_min":0,"x_max":0,"o":"m 159 -35 b 246 56 208 -35 246 3 b 233 110 246 74 242 95 b 294 288 248 156 269 219 b 552 316 380 300 467 310 b 575 90 556 223 563 141 b 672 -4 590 28 626 -4 b 754 73 715 -4 754 22 b 706 156 754 108 735 135 b 694 324 701 205 697 263 b 763 397 738 328 764 361 b 689 463 762 435 733 462 b 681 849 685 608 683 754 b 562 1031 679 970 640 1031 b 383 858 485 1031 440 975 b 197 412 341 772 263 582 l 158 405 b 85 329 113 396 84 369 b 141 265 85 295 108 268 b 85 97 112 186 91 124 b 159 -35 63 18 101 -35 z m 688 1124 b 842 1242 764 1124 821 1164 b 806 1313 853 1280 842 1303 b 740 1281 769 1324 751 1308 b 675 1225 727 1242 704 1225 b 472 1315 610 1225 583 1315 b 315 1211 401 1315 342 1274 b 351 1134 297 1169 317 1145 b 416 1166 383 1124 402 1137 b 484 1211 430 1194 456 1211 b 688 1124 547 1211 576 1124 z m 349 435 b 528 871 416 612 490 795 l 552 864 b 549 456 549 768 546 609 b 349 435 483 451 416 444 z "},"Æ":{"ha":861,"x_min":0,"x_max":0,"o":"m 556 -18 b 749 10 630 -12 683 -7 b 806 92 786 19 812 47 b 740 144 801 126 772 152 b 597 118 688 131 649 123 b 536 229 536 113 525 144 l 558 407 l 713 426 b 772 497 751 431 774 462 b 706 556 771 533 744 560 l 574 541 l 612 865 l 783 875 b 849 946 821 877 851 908 b 776 1013 847 984 815 1014 b 617 1006 728 1012 672 1009 b 569 1040 610 1024 597 1037 b 497 997 532 1042 508 1025 l 445 992 b 285 860 378 984 325 958 b 126 403 242 761 178 574 l 113 401 b 47 324 67 392 42 363 b 88 271 49 298 65 278 b 40 51 59 168 40 85 b 119 -34 40 0 73 -34 b 207 52 165 -34 207 -1 b 191 111 207 73 202 94 b 238 285 203 158 219 218 l 410 309 l 399 204 b 556 -18 384 60 438 -25 z m 277 426 b 418 853 326 598 383 777 l 474 857 l 426 444 b 277 426 386 440 331 433 z "},"Ǽ":{"ha":861,"x_min":0,"x_max":0,"o":"m 556 -18 b 749 10 630 -12 683 -7 b 806 92 786 19 812 47 b 740 144 801 126 772 152 b 597 118 688 131 649 123 b 536 229 536 113 525 144 l 558 407 l 713 426 b 772 497 751 431 774 462 b 706 556 771 533 744 560 l 574 541 l 612 865 l 783 875 b 849 946 821 877 851 908 b 776 1013 847 984 815 1014 b 617 1006 728 1012 672 1009 b 569 1040 610 1024 597 1037 b 497 997 532 1042 508 1025 l 445 992 b 285 860 378 984 325 958 b 126 403 242 761 178 574 l 113 401 b 47 324 67 392 42 363 b 88 271 49 298 65 278 b 40 51 59 168 40 85 b 119 -34 40 0 73 -34 b 207 52 165 -34 207 -1 b 191 111 207 73 202 94 b 238 285 203 158 219 218 l 410 309 l 399 204 b 556 -18 384 60 438 -25 z m 492 1131 b 497 1208 467 1156 468 1183 b 577 1295 526 1232 556 1264 b 678 1301 602 1337 647 1331 b 684 1208 709 1271 711 1238 b 568 1126 657 1179 610 1145 b 492 1131 544 1115 515 1106 z m 277 426 b 418 853 326 598 383 777 l 474 857 l 426 444 b 277 426 386 440 331 433 z "},"B":{"ha":861,"x_min":0,"x_max":0,"o":"m 162 -38 b 801 352 483 -38 801 118 b 585 551 801 470 719 542 b 782 822 696 612 782 701 b 456 1044 782 983 625 1044 b 165 993 372 1044 240 1026 b 117 910 123 975 107 945 b 204 871 127 878 154 861 b 117 93 175 642 139 301 b 74 33 92 83 74 62 b 162 -38 74 -11 101 -38 z m 259 106 b 349 903 278 269 335 773 b 466 915 389 910 431 915 b 643 806 564 915 643 883 b 466 600 643 719 543 640 b 407 515 433 581 407 557 b 481 454 407 474 442 454 b 656 340 549 454 656 431 b 259 106 656 203 451 126 z "},"C":{"ha":861,"x_min":0,"x_max":0,"o":"m 405 -16 b 742 239 562 -16 678 83 b 710 353 761 287 756 335 b 618 299 672 368 642 349 b 411 126 569 188 492 126 b 251 380 307 126 251 231 b 529 892 251 556 351 892 b 603 708 622 892 624 797 b 636 613 592 668 599 626 b 734 674 677 597 715 624 b 537 1031 781 806 756 1031 b 102 369 251 1031 102 649 b 405 -16 102 124 217 -16 z "},"Ć":{"ha":861,"x_min":0,"x_max":0,"o":"m 405 -16 b 742 239 562 -16 678 83 b 710 353 761 287 756 335 b 618 299 672 368 642 349 b 411 126 569 188 492 126 b 251 380 307 126 251 231 b 529 892 251 556 351 892 b 603 708 622 892 624 797 b 636 613 592 668 599 626 b 734 674 677 597 715 624 b 537 1031 781 806 756 1031 b 102 369 251 1031 102 649 b 405 -16 102 124 217 -16 z m 517 1131 b 523 1208 492 1156 493 1183 b 602 1295 551 1232 582 1264 b 703 1301 628 1337 672 1331 b 709 1208 734 1271 737 1238 b 594 1126 683 1179 635 1145 b 517 1131 569 1115 541 1106 z "},"Č":{"ha":861,"x_min":0,"x_max":0,"o":"m 405 -16 b 742 239 562 -16 678 83 b 710 353 761 287 756 335 b 618 299 672 368 642 349 b 411 126 569 188 492 126 b 251 380 307 126 251 231 b 529 892 251 556 351 892 b 603 708 622 892 624 797 b 636 613 592 668 599 626 b 734 674 677 597 715 624 b 537 1031 781 806 756 1031 b 102 369 251 1031 102 649 b 405 -16 102 124 217 -16 z m 315 1313 b 426 1313 340 1337 385 1333 b 571 1210 469 1292 525 1253 b 669 1304 608 1238 636 1266 b 749 1315 694 1333 726 1335 b 753 1239 770 1297 776 1268 b 636 1133 719 1194 683 1163 b 497 1139 592 1108 538 1102 b 403 1210 469 1165 439 1190 b 313 1222 378 1194 338 1194 b 315 1313 286 1249 292 1292 z "},"Ç":{"ha":861,"x_min":0,"x_max":0,"o":"m 102 369 b 323 -6 102 163 185 30 l 320 -14 b 264 -133 307 -53 283 -100 b 305 -232 235 -182 264 -219 b 396 -183 346 -245 382 -232 b 426 -44 413 -135 421 -91 b 426 -15 427 -33 427 -24 b 742 239 572 -7 681 90 b 710 353 761 287 756 335 b 618 299 672 368 642 349 b 411 126 569 188 492 126 b 251 380 307 126 251 231 b 529 892 251 556 351 892 b 603 708 622 892 624 797 b 636 613 592 668 599 626 b 734 674 677 597 715 624 b 537 1031 781 806 756 1031 b 102 369 251 1031 102 649 z "},"Ĉ":{"ha":861,"x_min":0,"x_max":0,"o":"m 405 -16 b 742 239 562 -16 678 83 b 710 353 761 287 756 335 b 618 299 672 368 642 349 b 411 126 569 188 492 126 b 251 380 307 126 251 231 b 529 892 251 556 351 892 b 603 708 622 892 624 797 b 636 613 592 668 599 626 b 734 674 677 597 715 624 b 537 1031 781 806 756 1031 b 102 369 251 1031 102 649 b 405 -16 102 124 217 -16 z m 315 1139 b 426 1139 340 1115 385 1119 b 572 1242 469 1159 525 1199 b 669 1147 608 1213 636 1185 b 749 1137 694 1118 726 1117 b 753 1213 770 1156 776 1184 b 636 1318 719 1258 683 1289 b 497 1313 592 1344 538 1349 b 403 1241 469 1286 439 1262 b 313 1231 378 1258 339 1257 b 315 1139 286 1202 292 1159 z "},"Ċ":{"ha":861,"x_min":0,"x_max":0,"o":"m 405 -16 b 742 239 562 -16 678 83 b 710 353 761 287 756 335 b 618 299 672 368 642 349 b 411 126 569 188 492 126 b 251 380 307 126 251 231 b 529 892 251 556 351 892 b 603 708 622 892 624 797 b 636 613 592 668 599 626 b 734 674 677 597 715 624 b 537 1031 781 806 756 1031 b 102 369 251 1031 102 649 b 405 -16 102 124 217 -16 z m 553 1130 b 651 1228 599 1130 651 1167 b 549 1322 651 1285 604 1322 b 446 1228 494 1322 446 1285 b 492 1166 446 1190 463 1167 b 553 1130 505 1143 528 1130 z "},"D":{"ha":861,"x_min":0,"x_max":0,"o":"m 269 -22 b 810 626 619 63 810 363 b 381 1026 810 883 615 1026 b 200 1006 317 1026 257 1019 b 123 924 154 994 123 970 b 201 865 123 881 157 864 b 103 150 167 646 127 370 b 171 24 93 65 123 28 b 269 -22 176 -16 215 -35 z m 249 192 b 351 889 279 417 320 701 b 381 890 361 890 371 890 b 670 610 549 890 670 785 b 274 115 670 403 498 179 l 274 117 b 249 192 274 147 266 174 z "},"Ď":{"ha":861,"x_min":0,"x_max":0,"o":"m 269 -22 b 810 626 619 63 810 363 b 381 1026 810 883 615 1026 b 200 1006 317 1026 257 1019 b 123 924 154 994 123 970 b 201 865 123 881 157 864 b 103 150 167 646 127 370 b 171 24 93 65 123 28 b 269 -22 176 -16 215 -35 z m 240 1313 b 352 1313 267 1337 311 1333 b 497 1210 394 1292 451 1253 b 595 1304 533 1238 562 1266 b 675 1315 621 1333 652 1335 b 679 1239 696 1297 702 1268 b 562 1133 645 1194 609 1163 b 424 1139 518 1108 465 1102 b 329 1210 395 1165 365 1190 b 239 1222 303 1194 265 1194 b 240 1313 213 1249 217 1292 z m 249 192 b 351 889 279 417 320 701 b 381 890 361 890 371 890 b 670 610 549 890 670 785 b 274 115 670 403 498 179 l 274 117 b 249 192 274 147 266 174 z "},"Đ":{"ha":861,"x_min":0,"x_max":0,"o":"m 60 440 l 140 449 b 103 150 126 344 113 242 b 171 24 93 65 123 28 b 269 -22 176 -16 215 -35 b 810 626 619 63 810 363 b 381 1026 810 883 615 1026 b 200 1006 317 1026 257 1019 b 123 924 154 994 123 970 b 201 865 123 881 157 864 b 158 576 188 776 172 677 l 42 564 b -12 493 3 560 -18 525 b 60 440 -8 461 19 435 z m 249 192 l 287 465 l 447 483 b 502 557 490 488 508 524 b 428 606 497 588 470 611 l 306 593 b 351 889 322 701 337 805 b 381 890 361 890 371 890 b 670 610 549 890 670 785 b 274 115 670 403 498 179 l 274 117 b 249 192 274 147 266 174 z "},"Ð":{"ha":861,"x_min":0,"x_max":0,"o":"m 60 440 l 140 449 b 103 150 126 344 113 242 b 171 24 93 65 123 28 b 269 -22 176 -16 215 -35 b 810 626 619 63 810 363 b 381 1026 810 883 615 1026 b 200 1006 317 1026 257 1019 b 123 924 154 994 123 970 b 201 865 123 881 157 864 b 158 576 188 776 172 677 l 42 564 b -12 493 3 560 -18 525 b 60 440 -8 461 19 435 z m 249 192 l 287 465 l 447 483 b 502 557 490 488 508 524 b 428 606 497 588 470 611 l 306 593 b 351 889 322 701 337 805 b 381 890 361 890 371 890 b 670 610 549 890 670 785 b 274 115 670 403 498 179 l 274 117 b 249 192 274 147 266 174 z "},"E":{"ha":861,"x_min":0,"x_max":0,"o":"m 328 -17 b 683 22 425 -17 613 6 b 749 97 722 32 749 57 b 665 160 749 137 712 171 b 370 121 592 146 440 121 b 292 205 313 121 292 149 b 312 403 292 238 300 313 l 611 426 b 673 494 649 430 673 460 b 605 556 673 531 643 558 l 330 537 l 373 842 l 739 858 b 806 931 777 860 806 892 b 733 998 806 969 771 999 l 383 981 b 321 1038 378 1017 360 1038 b 247 975 278 1038 258 1015 l 207 973 b 140 901 169 972 140 939 b 213 834 140 860 174 832 l 222 835 b 142 168 193 639 142 276 b 328 -17 142 50 211 -17 z "},"É":{"ha":861,"x_min":0,"x_max":0,"o":"m 328 -17 b 683 22 425 -17 613 6 b 749 97 722 32 749 57 b 665 160 749 137 712 171 b 370 121 592 146 440 121 b 292 205 313 121 292 149 b 312 403 292 238 300 313 l 611 426 b 673 494 649 430 673 460 b 605 556 673 531 643 558 l 330 537 l 373 842 l 739 858 b 806 931 777 860 806 892 b 733 998 806 969 771 999 l 383 981 b 321 1038 378 1017 360 1038 b 247 975 278 1038 258 1015 l 207 973 b 140 901 169 972 140 939 b 213 834 140 860 174 832 l 222 835 b 142 168 193 639 142 276 b 328 -17 142 50 211 -17 z m 484 1131 b 490 1208 460 1156 460 1183 b 569 1295 519 1232 549 1264 b 670 1301 594 1337 640 1331 b 676 1208 701 1271 703 1238 b 560 1126 649 1179 602 1145 b 484 1131 536 1115 508 1106 z "},"Ĕ":{"ha":861,"x_min":0,"x_max":0,"o":"m 328 -17 b 683 22 425 -17 613 6 b 749 97 722 32 749 57 b 665 160 749 137 712 171 b 370 121 592 146 440 121 b 292 205 313 121 292 149 b 312 403 292 238 300 313 l 611 426 b 673 494 649 430 673 460 b 605 556 673 531 643 558 l 330 537 l 373 842 l 739 858 b 806 931 777 860 806 892 b 733 998 806 969 771 999 l 383 981 b 321 1038 378 1017 360 1038 b 247 975 278 1038 258 1015 l 207 973 b 140 901 169 972 140 939 b 213 834 140 860 174 832 l 222 835 b 142 168 193 639 142 276 b 328 -17 142 50 211 -17 z m 522 1133 b 740 1267 647 1133 728 1191 b 694 1322 744 1299 725 1319 b 635 1283 660 1323 642 1308 b 520 1222 624 1243 588 1222 b 411 1272 464 1222 427 1236 b 349 1311 399 1298 383 1313 b 304 1255 318 1309 297 1288 b 522 1133 317 1192 396 1133 z "},"Ě":{"ha":861,"x_min":0,"x_max":0,"o":"m 328 -17 b 683 22 425 -17 613 6 b 749 97 722 32 749 57 b 665 160 749 137 712 171 b 370 121 592 146 440 121 b 292 205 313 121 292 149 b 312 403 292 238 300 313 l 611 426 b 673 494 649 430 673 460 b 605 556 673 531 643 558 l 330 537 l 373 842 l 739 858 b 806 931 777 860 806 892 b 733 998 806 969 771 999 l 383 981 b 321 1038 378 1017 360 1038 b 247 975 278 1038 258 1015 l 207 973 b 140 901 169 972 140 939 b 213 834 140 860 174 832 l 222 835 b 142 168 193 639 142 276 b 328 -17 142 50 211 -17 z m 281 1313 b 393 1313 308 1337 352 1333 b 538 1210 435 1292 492 1253 b 636 1304 574 1238 603 1266 b 716 1315 662 1333 693 1335 b 720 1239 737 1297 743 1268 b 603 1133 686 1194 650 1163 b 465 1139 559 1108 506 1102 b 370 1210 436 1165 406 1190 b 280 1222 344 1194 306 1194 b 281 1313 253 1249 258 1292 z "},"Ê":{"ha":861,"x_min":0,"x_max":0,"o":"m 328 -17 b 683 22 425 -17 613 6 b 749 97 722 32 749 57 b 665 160 749 137 712 171 b 370 121 592 146 440 121 b 292 205 313 121 292 149 b 312 403 292 238 300 313 l 611 426 b 673 494 649 430 673 460 b 605 556 673 531 643 558 l 330 537 l 373 842 l 739 858 b 806 931 777 860 806 892 b 733 998 806 969 771 999 l 383 981 b 321 1038 378 1017 360 1038 b 247 975 278 1038 258 1015 l 207 973 b 140 901 169 972 140 939 b 213 834 140 860 174 832 l 222 835 b 142 168 193 639 142 276 b 328 -17 142 50 211 -17 z m 281 1139 b 393 1139 308 1115 352 1119 b 538 1242 435 1159 492 1199 b 636 1147 574 1213 603 1185 b 716 1137 662 1118 693 1117 b 720 1213 737 1156 743 1184 b 603 1318 686 1258 650 1289 b 465 1313 559 1344 506 1349 b 370 1241 437 1286 406 1262 b 280 1231 345 1258 306 1257 b 281 1139 253 1202 258 1159 z "},"Ë":{"ha":861,"x_min":0,"x_max":0,"o":"m 328 -17 b 683 22 425 -17 613 6 b 749 97 722 32 749 57 b 665 160 749 137 712 171 b 370 121 592 146 440 121 b 292 205 313 121 292 149 b 312 403 292 238 300 313 l 611 426 b 673 494 649 430 673 460 b 605 556 673 531 643 558 l 330 537 l 373 842 l 739 858 b 806 931 777 860 806 892 b 733 998 806 969 771 999 l 383 981 b 321 1038 378 1017 360 1038 b 247 975 278 1038 258 1015 l 207 973 b 140 901 169 972 140 939 b 213 834 140 860 174 832 l 222 835 b 142 168 193 639 142 276 b 328 -17 142 50 211 -17 z m 338 1130 b 435 1228 384 1130 435 1167 b 335 1322 435 1285 389 1322 b 234 1228 282 1322 234 1285 b 279 1166 234 1190 251 1167 b 338 1130 292 1143 314 1130 z m 594 1214 b 696 1126 594 1165 634 1126 b 803 1227 763 1126 803 1172 b 703 1330 803 1282 764 1330 b 636 1282 667 1330 641 1312 b 594 1214 610 1269 594 1246 z "},"Ė":{"ha":861,"x_min":0,"x_max":0,"o":"m 328 -17 b 683 22 425 -17 613 6 b 749 97 722 32 749 57 b 665 160 749 137 712 171 b 370 121 592 146 440 121 b 292 205 313 121 292 149 b 312 403 292 238 300 313 l 611 426 b 673 494 649 430 673 460 b 605 556 673 531 643 558 l 330 537 l 373 842 l 739 858 b 806 931 777 860 806 892 b 733 998 806 969 771 999 l 383 981 b 321 1038 378 1017 360 1038 b 247 975 278 1038 258 1015 l 207 973 b 140 901 169 972 140 939 b 213 834 140 860 174 832 l 222 835 b 142 168 193 639 142 276 b 328 -17 142 50 211 -17 z m 519 1130 b 618 1228 567 1130 618 1167 b 516 1322 618 1285 572 1322 b 413 1228 462 1322 413 1285 b 460 1166 413 1190 431 1167 b 519 1130 472 1143 495 1130 z "},"Ẹ":{"ha":861,"x_min":0,"x_max":0,"o":"m 328 -17 b 683 22 425 -17 613 6 b 749 97 722 32 749 57 b 665 160 749 137 712 171 b 370 121 592 146 440 121 b 292 205 313 121 292 149 b 312 403 292 238 300 313 l 611 426 b 673 494 649 430 673 460 b 605 556 673 531 643 558 l 330 537 l 373 842 l 739 858 b 806 931 777 860 806 892 b 733 998 806 969 771 999 l 383 981 b 321 1038 378 1017 360 1038 b 247 975 278 1038 258 1015 l 207 973 b 140 901 169 972 140 939 b 213 834 140 860 174 832 l 222 835 b 142 168 193 639 142 276 b 328 -17 142 50 211 -17 z m 434 -369 b 545 -256 487 -369 545 -327 b 429 -150 545 -192 493 -150 b 312 -257 367 -150 312 -191 b 365 -328 312 -300 331 -326 b 434 -369 378 -353 406 -369 z "},"È":{"ha":861,"x_min":0,"x_max":0,"o":"m 328 -17 b 683 22 425 -17 613 6 b 749 97 722 32 749 57 b 665 160 749 137 712 171 b 370 121 592 146 440 121 b 292 205 313 121 292 149 b 312 403 292 238 300 313 l 611 426 b 673 494 649 430 673 460 b 605 556 673 531 643 558 l 330 537 l 373 842 l 739 858 b 806 931 777 860 806 892 b 733 998 806 969 771 999 l 383 981 b 321 1038 378 1017 360 1038 b 247 975 278 1038 258 1015 l 207 973 b 140 901 169 972 140 939 b 213 834 140 860 174 832 l 222 835 b 142 168 193 639 142 276 b 328 -17 142 50 211 -17 z m 554 1131 b 548 1208 578 1156 578 1183 b 469 1295 519 1232 489 1264 b 368 1301 443 1337 399 1331 b 362 1208 337 1271 334 1238 b 477 1126 388 1179 436 1145 b 554 1131 501 1115 530 1106 z "},"Ē":{"ha":861,"x_min":0,"x_max":0,"o":"m 328 -17 b 683 22 425 -17 613 6 b 749 97 722 32 749 57 b 665 160 749 137 712 171 b 370 121 592 146 440 121 b 292 205 313 121 292 149 b 312 403 292 238 300 313 l 611 426 b 673 494 649 430 673 460 b 605 556 673 531 643 558 l 330 537 l 373 842 l 739 858 b 806 931 777 860 806 892 b 733 998 806 969 771 999 l 383 981 b 321 1038 378 1017 360 1038 b 247 975 278 1038 258 1015 l 207 973 b 140 901 169 972 140 939 b 213 834 140 860 174 832 l 222 835 b 142 168 193 639 142 276 b 328 -17 142 50 211 -17 z m 345 1185 l 694 1188 b 747 1245 725 1188 747 1210 b 692 1299 746 1279 723 1301 l 344 1284 b 291 1234 313 1283 291 1262 b 345 1185 292 1206 315 1186 z "},"Ę":{"ha":861,"x_min":0,"x_max":0,"o":"m 328 -17 b 558 1 387 -17 478 -9 b 481 -134 505 -46 481 -89 b 634 -260 481 -200 526 -254 b 711 -215 683 -263 705 -245 b 672 -160 717 -185 701 -166 b 613 -100 637 -151 613 -135 b 713 34 613 -53 653 -12 b 749 97 735 47 749 69 b 665 160 749 137 712 171 b 370 121 592 146 440 121 b 292 205 313 121 292 149 b 312 403 292 238 300 313 l 611 426 b 673 494 649 430 673 460 b 605 556 673 531 643 558 l 330 537 l 373 842 l 739 858 b 806 931 777 860 806 892 b 733 998 806 969 771 999 l 383 981 b 321 1038 378 1017 360 1038 b 247 975 278 1038 258 1015 l 207 973 b 140 901 169 972 140 939 b 213 834 140 860 174 832 l 222 835 b 142 168 193 639 142 276 b 328 -17 142 50 211 -17 z "},"Ẽ":{"ha":861,"x_min":0,"x_max":0,"o":"m 328 -17 b 683 22 425 -17 613 6 b 749 97 722 32 749 57 b 665 160 749 137 712 171 b 370 121 592 146 440 121 b 292 205 313 121 292 149 b 312 403 292 238 300 313 l 611 426 b 673 494 649 430 673 460 b 605 556 673 531 643 558 l 330 537 l 373 842 l 739 858 b 806 931 777 860 806 892 b 733 998 806 969 771 999 l 383 981 b 321 1038 378 1017 360 1038 b 247 975 278 1038 258 1015 l 207 973 b 140 901 169 972 140 939 b 213 834 140 860 174 832 l 222 835 b 142 168 193 639 142 276 b 328 -17 142 50 211 -17 z m 630 1124 b 783 1242 706 1124 762 1164 b 748 1313 794 1280 783 1303 b 682 1281 710 1324 692 1308 b 616 1225 669 1242 645 1225 b 413 1315 551 1225 524 1315 b 256 1211 342 1315 283 1274 b 293 1134 238 1169 258 1145 b 358 1166 325 1124 343 1137 b 426 1211 371 1194 397 1211 b 630 1124 488 1211 517 1124 z "},"Ə":{"ha":861,"x_min":0,"x_max":0,"o":"m 354 -14 b 733 462 549 -14 695 208 l 752 465 b 815 536 797 471 821 499 b 742 585 809 568 785 586 l 742 590 b 449 1031 742 903 613 1031 b 187 918 333 1031 239 969 b 181 829 158 890 158 854 b 272 824 205 803 242 801 b 440 904 324 865 379 904 b 603 569 526 904 603 817 b 258 498 489 553 340 527 b 110 281 157 461 110 394 b 354 -14 110 119 200 -14 z m 243 269 b 333 385 243 319 258 365 b 592 438 383 399 493 420 b 366 113 560 263 469 113 b 243 269 292 113 243 183 z "},"F":{"ha":861,"x_min":0,"x_max":0,"o":"m 242 -17 b 331 78 291 -17 331 20 b 303 150 331 104 322 135 b 326 374 309 221 317 297 l 649 399 b 711 467 688 402 711 432 b 643 528 711 502 684 531 l 342 508 b 389 842 357 628 374 744 l 753 858 b 819 931 791 860 819 893 b 747 998 819 969 785 999 l 400 981 b 337 1021 390 1006 366 1021 b 267 975 306 1021 281 1005 l 221 973 b 154 901 183 972 154 939 b 226 834 154 860 188 832 l 240 835 b 159 110 207 608 169 304 b 242 -17 157 25 189 -17 z "},"G":{"ha":861,"x_min":0,"x_max":0,"o":"m 396 -18 b 759 294 549 -18 685 74 b 765 359 766 315 769 339 b 783 410 777 372 783 390 b 713 468 783 447 750 477 b 451 446 624 450 552 444 b 389 377 408 447 389 412 b 464 312 389 336 419 312 b 622 319 521 310 571 313 b 404 122 569 184 489 122 b 240 388 299 122 240 227 b 519 893 240 571 333 893 b 603 754 588 893 626 835 b 650 669 591 712 608 679 b 740 742 690 660 726 696 b 526 1031 772 851 732 1031 b 89 373 226 1031 89 646 b 396 -18 89 126 209 -18 z "},"Ğ":{"ha":861,"x_min":0,"x_max":0,"o":"m 396 -18 b 759 294 549 -18 685 74 b 765 359 766 315 769 339 b 783 410 777 372 783 390 b 713 468 783 447 750 477 b 451 446 624 450 552 444 b 389 377 408 447 389 412 b 464 312 389 336 419 312 b 622 319 521 310 571 313 b 404 122 569 184 489 122 b 240 388 299 122 240 227 b 519 893 240 571 333 893 b 603 754 588 893 626 835 b 650 669 591 712 608 679 b 740 742 690 660 726 696 b 526 1031 772 851 732 1031 b 89 373 226 1031 89 646 b 396 -18 89 126 209 -18 z m 537 1133 b 755 1267 663 1133 744 1191 b 710 1322 760 1299 740 1319 b 650 1283 676 1323 658 1308 b 535 1222 640 1243 603 1222 b 426 1272 479 1222 442 1236 b 364 1311 415 1298 399 1313 b 319 1255 333 1309 313 1288 b 537 1133 332 1192 411 1133 z "},"Ǧ":{"ha":861,"x_min":0,"x_max":0,"o":"m 396 -18 b 759 294 549 -18 685 74 b 765 359 766 315 769 339 b 783 410 777 372 783 390 b 713 468 783 447 750 477 b 451 446 624 450 552 444 b 389 377 408 447 389 412 b 464 312 389 336 419 312 b 622 319 521 310 571 313 b 404 122 569 184 489 122 b 240 388 299 122 240 227 b 519 893 240 571 333 893 b 603 754 588 893 626 835 b 650 669 591 712 608 679 b 740 742 690 660 726 696 b 526 1031 772 851 732 1031 b 89 373 226 1031 89 646 b 396 -18 89 126 209 -18 z m 297 1313 b 408 1313 323 1337 367 1333 b 553 1210 451 1292 508 1253 b 651 1304 590 1238 618 1266 b 731 1315 677 1333 708 1335 b 735 1239 752 1297 758 1268 b 618 1133 701 1194 665 1163 b 480 1139 574 1108 521 1102 b 385 1210 451 1165 422 1190 b 295 1222 360 1194 321 1194 b 297 1313 269 1249 274 1292 z "},"Ĝ":{"ha":861,"x_min":0,"x_max":0,"o":"m 396 -18 b 759 294 549 -18 685 74 b 765 359 766 315 769 339 b 783 410 777 372 783 390 b 713 468 783 447 750 477 b 451 446 624 450 552 444 b 389 377 408 447 389 412 b 464 312 389 336 419 312 b 622 319 521 310 571 313 b 404 122 569 184 489 122 b 240 388 299 122 240 227 b 519 893 240 571 333 893 b 603 754 588 893 626 835 b 650 669 591 712 608 679 b 740 742 690 660 726 696 b 526 1031 772 851 732 1031 b 89 373 226 1031 89 646 b 396 -18 89 126 209 -18 z m 297 1139 b 408 1139 323 1115 367 1119 b 553 1242 451 1159 508 1199 b 651 1147 590 1213 619 1185 b 731 1137 677 1118 708 1117 b 735 1213 752 1156 758 1184 b 618 1318 701 1258 665 1289 b 480 1313 574 1344 521 1349 b 385 1241 452 1286 422 1262 b 295 1231 360 1258 321 1257 b 297 1139 269 1202 274 1159 z "},"Ģ":{"ha":861,"x_min":0,"x_max":0,"o":"m 396 -18 b 759 294 549 -18 685 74 b 765 359 766 315 769 339 b 783 410 777 372 783 390 b 713 468 783 447 750 477 b 451 446 624 450 552 444 b 389 377 408 447 389 412 b 464 312 389 336 419 312 b 622 319 521 310 571 313 b 404 122 569 184 489 122 b 240 388 299 122 240 227 b 519 893 240 571 333 893 b 603 754 588 893 626 835 b 650 669 591 712 608 679 b 740 742 690 660 726 696 b 526 1031 772 851 732 1031 b 89 373 226 1031 89 646 b 396 -18 89 126 209 -18 z m 338 -524 b 410 -477 368 -529 392 -509 b 489 -252 440 -426 480 -331 b 421 -164 494 -206 472 -170 b 331 -233 374 -158 329 -178 b 299 -455 333 -319 316 -402 b 338 -524 288 -490 306 -519 z "},"Ġ":{"ha":861,"x_min":0,"x_max":0,"o":"m 396 -18 b 759 294 549 -18 685 74 b 765 359 766 315 769 339 b 783 410 777 372 783 390 b 713 468 783 447 750 477 b 451 446 624 450 552 444 b 389 377 408 447 389 412 b 464 312 389 336 419 312 b 622 319 521 310 571 313 b 404 122 569 184 489 122 b 240 388 299 122 240 227 b 519 893 240 571 333 893 b 603 754 588 893 626 835 b 650 669 591 712 608 679 b 740 742 690 660 726 696 b 526 1031 772 851 732 1031 b 89 373 226 1031 89 646 b 396 -18 89 126 209 -18 z m 535 1130 b 633 1228 582 1130 633 1167 b 531 1322 633 1285 587 1322 b 428 1228 477 1322 428 1285 b 475 1166 428 1190 447 1167 b 535 1130 488 1143 510 1130 z "},"H":{"ha":861,"x_min":0,"x_max":0,"o":"m 620 -53 b 696 25 658 -53 695 -26 b 787 919 703 208 750 649 b 709 1047 799 1006 765 1047 b 612 934 646 1047 612 999 b 633 849 612 902 619 872 b 588 474 617 736 601 603 l 313 454 b 361 904 331 626 349 802 b 274 1031 372 995 329 1031 b 183 929 211 1031 183 987 b 210 848 183 899 191 867 b 165 443 196 734 179 585 l 142 442 b 76 369 105 440 76 408 b 148 303 76 331 110 301 l 150 303 b 128 69 140 207 133 123 b 199 -17 124 18 156 -17 b 275 63 241 -17 270 12 l 299 313 l 573 333 b 549 32 561 210 552 101 b 620 -53 549 -19 576 -53 z "},"Ħ":{"ha":861,"x_min":0,"x_max":0,"o":"m 585 -53 b 661 25 622 -56 658 -26 b 722 673 670 193 694 440 l 789 676 b 850 738 825 678 851 703 b 787 797 849 772 822 798 l 736 794 l 752 919 b 681 1047 763 1006 731 1043 b 585 949 628 1050 588 1009 b 606 849 583 913 590 876 l 598 789 l 355 778 l 368 904 b 289 1031 379 995 336 1028 b 194 944 233 1034 201 1001 b 222 852 192 915 198 880 l 213 773 l 126 769 b 64 706 91 768 64 741 b 131 645 65 672 93 643 l 199 649 b 138 69 174 428 151 213 b 209 -17 134 18 166 -16 b 282 63 248 -17 277 12 b 306 312 288 134 297 220 l 544 333 b 522 32 533 218 524 115 b 585 -53 522 -19 544 -52 z m 320 453 l 341 655 l 582 667 l 558 474 z "},"Ĥ":{"ha":861,"x_min":0,"x_max":0,"o":"m 620 -53 b 696 25 658 -53 695 -26 b 787 919 703 208 750 649 b 709 1047 799 1006 765 1047 b 612 934 646 1047 612 999 b 633 849 612 902 619 872 b 588 474 617 736 601 603 l 313 454 b 361 904 331 626 349 802 b 274 1031 372 995 329 1031 b 183 929 211 1031 183 987 b 210 848 183 899 191 867 b 165 443 196 734 179 585 l 142 442 b 76 369 105 440 76 408 b 148 303 76 331 110 301 l 150 303 b 128 69 140 207 133 123 b 199 -17 124 18 156 -17 b 275 63 241 -17 270 12 l 299 313 l 573 333 b 549 32 561 210 552 101 b 620 -53 549 -19 576 -53 z m 260 1139 b 371 1139 285 1115 331 1119 b 517 1242 414 1159 470 1199 b 614 1147 553 1213 581 1185 b 694 1137 640 1118 672 1117 b 699 1213 715 1156 721 1184 b 581 1318 664 1258 628 1289 b 442 1313 538 1344 483 1349 b 349 1241 415 1286 384 1262 b 258 1231 323 1258 284 1257 b 260 1139 231 1202 237 1159 z "},"I":{"ha":861,"x_min":0,"x_max":0,"o":"m 158 -17 l 647 18 b 713 92 685 20 713 53 b 641 158 713 130 679 160 l 455 144 b 556 851 492 362 531 625 l 708 863 b 775 935 747 865 775 897 b 698 1007 775 981 735 1000 b 474 1030 632 1017 552 1030 b 417 980 439 1030 423 1008 l 180 967 b 113 894 142 965 113 932 b 185 827 113 856 147 825 l 410 842 b 305 134 380 575 341 331 l 153 123 b 87 50 115 121 87 88 b 158 -17 87 12 121 -19 z "},"Ĳ":{"ha":861,"x_min":0,"x_max":0,"o":"m 337 -15 b 628 288 497 -15 594 100 b 706 876 649 397 683 670 l 755 881 b 811 955 785 883 812 917 b 638 1044 810 1008 774 1024 b 560 1000 586 1053 566 1029 l 436 996 b 369 923 398 995 369 961 b 442 856 371 885 403 856 l 558 863 b 489 322 539 699 510 450 b 338 125 467 190 423 125 b 228 226 276 125 236 164 b 266 306 251 241 266 272 b 184 386 266 354 236 386 b 76 238 118 386 76 322 b 337 -15 76 110 166 -15 z m 176 468 b 251 545 214 466 243 494 b 286 910 263 641 279 808 b 213 1031 292 989 265 1029 b 119 947 165 1033 126 1003 b 138 861 116 919 119 888 b 107 556 128 776 114 630 b 176 468 102 504 132 471 z "},"Í":{"ha":861,"x_min":0,"x_max":0,"o":"m 158 -17 l 647 18 b 713 92 685 20 713 53 b 641 158 713 130 679 160 l 455 144 b 556 851 492 362 531 625 l 708 863 b 775 935 747 865 775 897 b 698 1007 775 981 735 1000 b 474 1030 632 1017 552 1030 b 417 980 439 1030 423 1008 l 180 967 b 113 894 142 965 113 932 b 185 827 113 856 147 825 l 410 842 b 305 134 380 575 341 331 l 153 123 b 87 50 115 121 87 88 b 158 -17 87 12 121 -19 z m 457 1131 b 463 1208 433 1156 433 1183 b 542 1295 492 1232 522 1264 b 643 1301 567 1337 613 1331 b 649 1208 674 1271 676 1238 b 533 1126 622 1179 575 1145 b 457 1131 509 1115 481 1106 z "},"Ĭ":{"ha":861,"x_min":0,"x_max":0,"o":"m 158 -17 l 647 18 b 713 92 685 20 713 53 b 641 158 713 130 679 160 l 455 144 b 556 851 492 362 531 625 l 708 863 b 775 935 747 865 775 897 b 698 1007 775 981 735 1000 b 474 1030 632 1017 552 1030 b 417 980 439 1030 423 1008 l 180 967 b 113 894 142 965 113 932 b 185 827 113 856 147 825 l 410 842 b 305 134 380 575 341 331 l 153 123 b 87 50 115 121 87 88 b 158 -17 87 12 121 -19 z m 494 1133 b 713 1267 620 1133 701 1191 b 667 1322 717 1299 698 1319 b 608 1283 633 1323 615 1308 b 493 1222 597 1243 561 1222 b 384 1272 437 1222 400 1236 b 322 1311 372 1298 356 1313 b 277 1255 291 1309 270 1288 b 494 1133 290 1192 369 1133 z "},"Î":{"ha":861,"x_min":0,"x_max":0,"o":"m 158 -17 l 647 18 b 713 92 685 20 713 53 b 641 158 713 130 679 160 l 455 144 b 556 851 492 362 531 625 l 708 863 b 775 935 747 865 775 897 b 698 1007 775 981 735 1000 b 474 1030 632 1017 552 1030 b 417 980 439 1030 423 1008 l 180 967 b 113 894 142 965 113 932 b 185 827 113 856 147 825 l 410 842 b 305 134 380 575 341 331 l 153 123 b 87 50 115 121 87 88 b 158 -17 87 12 121 -19 z m 254 1139 b 366 1139 281 1115 325 1119 b 511 1242 408 1159 465 1199 b 609 1147 547 1213 576 1185 b 689 1137 635 1118 666 1117 b 693 1213 710 1156 716 1184 b 576 1318 659 1258 623 1289 b 438 1313 532 1344 478 1349 b 343 1241 410 1286 379 1262 b 253 1231 318 1258 278 1257 b 254 1139 226 1202 231 1159 z "},"Ï":{"ha":861,"x_min":0,"x_max":0,"o":"m 158 -17 l 647 18 b 713 92 685 20 713 53 b 641 158 713 130 679 160 l 455 144 b 556 851 492 362 531 625 l 708 863 b 775 935 747 865 775 897 b 698 1007 775 981 735 1000 b 474 1030 632 1017 552 1030 b 417 980 439 1030 423 1008 l 180 967 b 113 894 142 965 113 932 b 185 827 113 856 147 825 l 410 842 b 305 134 380 575 341 331 l 153 123 b 87 50 115 121 87 88 b 158 -17 87 12 121 -19 z m 311 1130 b 408 1228 357 1130 408 1167 b 308 1322 408 1285 362 1322 b 207 1228 255 1322 207 1285 b 252 1166 207 1190 224 1167 b 311 1130 265 1143 287 1130 z m 567 1214 b 669 1126 567 1165 607 1126 b 776 1227 736 1126 776 1172 b 676 1330 776 1282 737 1330 b 609 1282 640 1330 614 1312 b 567 1214 583 1269 567 1246 z "},"İ":{"ha":861,"x_min":0,"x_max":0,"o":"m 158 -17 l 647 18 b 713 92 685 20 713 53 b 641 158 713 130 679 160 l 455 144 b 556 851 492 362 531 625 l 708 863 b 775 935 747 865 775 897 b 698 1007 775 981 735 1000 b 474 1030 632 1017 552 1030 b 417 980 439 1030 423 1008 l 180 967 b 113 894 142 965 113 932 b 185 827 113 856 147 825 l 410 842 b 305 134 380 575 341 331 l 153 123 b 87 50 115 121 87 88 b 158 -17 87 12 121 -19 z m 492 1130 b 591 1228 540 1130 591 1167 b 489 1322 591 1285 544 1322 b 386 1228 435 1322 386 1285 b 433 1166 386 1190 404 1167 b 492 1130 445 1143 468 1130 z "},"Ị":{"ha":861,"x_min":0,"x_max":0,"o":"m 158 -17 l 647 18 b 713 92 685 20 713 53 b 641 158 713 130 679 160 l 455 144 b 556 851 492 362 531 625 l 708 863 b 775 935 747 865 775 897 b 698 1007 775 981 735 1000 b 474 1030 632 1017 552 1030 b 417 980 439 1030 423 1008 l 180 967 b 113 894 142 965 113 932 b 185 827 113 856 147 825 l 410 842 b 305 134 380 575 341 331 l 153 123 b 87 50 115 121 87 88 b 158 -17 87 12 121 -19 z m 372 -369 b 483 -256 425 -369 483 -327 b 367 -150 483 -192 431 -150 b 250 -257 306 -150 250 -191 b 303 -328 250 -300 269 -326 b 372 -369 317 -353 344 -369 z "},"Ì":{"ha":861,"x_min":0,"x_max":0,"o":"m 158 -17 l 647 18 b 713 92 685 20 713 53 b 641 158 713 130 679 160 l 455 144 b 556 851 492 362 531 625 l 708 863 b 775 935 747 865 775 897 b 698 1007 775 981 735 1000 b 474 1030 632 1017 552 1030 b 417 980 439 1030 423 1008 l 180 967 b 113 894 142 965 113 932 b 185 827 113 856 147 825 l 410 842 b 305 134 380 575 341 331 l 153 123 b 87 50 115 121 87 88 b 158 -17 87 12 121 -19 z m 527 1131 b 521 1208 551 1156 551 1183 b 442 1295 492 1232 462 1264 b 341 1301 416 1337 372 1331 b 335 1208 310 1271 307 1238 b 450 1126 361 1179 409 1145 b 527 1131 474 1115 503 1106 z "},"Ī":{"ha":861,"x_min":0,"x_max":0,"o":"m 158 -17 l 647 18 b 713 92 685 20 713 53 b 641 158 713 130 679 160 l 455 144 b 556 851 492 362 531 625 l 708 863 b 775 935 747 865 775 897 b 698 1007 775 981 735 1000 b 474 1030 632 1017 552 1030 b 417 980 439 1030 423 1008 l 180 967 b 113 894 142 965 113 932 b 185 827 113 856 147 825 l 410 842 b 305 134 380 575 341 331 l 153 123 b 87 50 115 121 87 88 b 158 -17 87 12 121 -19 z m 318 1185 l 667 1188 b 719 1245 698 1188 720 1210 b 665 1299 719 1279 696 1301 l 317 1284 b 264 1234 286 1283 264 1262 b 318 1185 265 1206 288 1186 z "},"Į":{"ha":861,"x_min":0,"x_max":0,"o":"m 158 -17 l 333 -4 b 228 -164 260 -61 228 -112 b 381 -290 228 -230 272 -284 b 458 -244 429 -293 452 -275 b 419 -190 464 -215 448 -196 b 360 -130 383 -181 360 -165 b 461 5 360 -82 399 -42 l 647 18 b 713 92 685 20 713 53 b 641 158 713 130 679 160 l 455 144 b 556 851 492 362 531 625 l 708 863 b 775 935 747 865 775 897 b 698 1007 775 981 735 1000 b 474 1030 632 1017 552 1030 b 417 980 439 1030 423 1008 l 180 967 b 113 894 142 965 113 932 b 185 827 113 856 147 825 l 410 842 b 305 134 380 575 341 331 l 153 123 b 87 50 115 121 87 88 b 158 -17 87 12 121 -19 z "},"Ĩ":{"ha":861,"x_min":0,"x_max":0,"o":"m 158 -17 l 647 18 b 713 92 685 20 713 53 b 641 158 713 130 679 160 l 455 144 b 556 851 492 362 531 625 l 708 863 b 775 935 747 865 775 897 b 698 1007 775 981 735 1000 b 474 1030 632 1017 552 1030 b 417 980 439 1030 423 1008 l 180 967 b 113 894 142 965 113 932 b 185 827 113 856 147 825 l 410 842 b 305 134 380 575 341 331 l 153 123 b 87 50 115 121 87 88 b 158 -17 87 12 121 -19 z m 603 1124 b 756 1242 678 1124 735 1164 b 721 1313 767 1280 756 1303 b 655 1281 683 1324 665 1308 b 589 1225 642 1242 618 1225 b 385 1315 524 1225 497 1315 b 229 1211 315 1315 256 1274 b 266 1134 211 1169 231 1145 b 331 1166 298 1124 316 1137 b 399 1211 344 1194 370 1211 b 603 1124 460 1211 490 1124 z "},"J":{"ha":861,"x_min":0,"x_max":0,"o":"m 340 -17 b 608 266 488 -17 576 99 b 672 872 626 363 663 663 l 729 880 b 798 951 772 885 798 914 b 591 1045 798 1017 708 1045 b 524 999 549 1045 531 1024 l 231 985 b 165 914 193 983 165 951 b 237 846 165 874 199 844 l 526 860 b 472 310 516 685 490 417 b 339 125 451 192 419 125 b 221 296 260 125 229 197 b 263 383 247 310 263 343 b 187 468 263 436 233 468 b 80 305 110 468 80 392 b 340 -17 80 159 157 -17 z "},"Ĵ":{"ha":861,"x_min":0,"x_max":0,"o":"m 340 -17 b 608 266 488 -17 576 99 b 672 872 626 363 663 663 l 729 880 b 798 951 772 885 798 914 b 591 1045 798 1017 708 1045 b 524 999 549 1045 531 1024 l 231 985 b 165 914 193 983 165 951 b 237 846 165 874 199 844 l 526 860 b 472 310 516 685 490 417 b 339 125 451 192 419 125 b 221 296 260 125 229 197 b 263 383 247 310 263 343 b 187 468 263 436 233 468 b 80 305 110 468 80 392 b 340 -17 80 159 157 -17 z m 259 1139 b 371 1139 285 1115 330 1119 b 516 1242 413 1159 470 1199 b 614 1147 552 1213 581 1185 b 694 1137 640 1118 671 1117 b 698 1213 715 1156 721 1184 b 581 1318 664 1258 628 1289 b 442 1313 537 1344 483 1349 b 348 1241 415 1286 384 1262 b 258 1231 323 1258 283 1257 b 259 1139 231 1202 236 1159 z "},"K":{"ha":861,"x_min":0,"x_max":0,"o":"m 699 -8 b 784 80 747 -8 784 30 b 697 167 784 130 745 167 b 661 163 684 167 672 166 b 376 464 568 245 447 376 l 381 485 b 775 876 465 554 698 785 b 778 988 803 909 814 957 b 665 969 742 1019 706 1013 l 365 656 b 300 589 341 633 319 610 b 329 904 315 715 325 830 b 242 1031 331 996 295 1031 b 151 925 183 1031 151 986 b 180 844 151 889 161 860 b 84 68 160 602 114 261 b 156 -17 76 18 111 -17 b 231 62 197 -17 222 11 b 274 372 244 146 260 256 b 343 283 293 344 317 315 b 699 -8 436 173 601 -8 z "},"Ķ":{"ha":861,"x_min":0,"x_max":0,"o":"m 699 -8 b 784 80 747 -8 784 30 b 697 167 784 130 745 167 b 661 163 684 167 672 166 b 376 464 568 245 447 376 l 381 485 b 775 876 465 554 698 785 b 778 988 803 909 814 957 b 665 969 742 1019 706 1013 l 365 656 b 300 589 341 633 319 610 b 329 904 315 715 325 830 b 242 1031 331 996 295 1031 b 151 925 183 1031 151 986 b 180 844 151 889 161 860 b 84 68 160 602 114 261 b 156 -17 76 18 111 -17 b 231 62 197 -17 222 11 b 274 372 244 146 260 256 b 343 283 293 344 317 315 b 699 -8 436 173 601 -8 z m 342 -524 b 414 -477 371 -529 395 -509 b 492 -252 442 -426 483 -331 b 424 -164 498 -206 475 -170 b 334 -233 376 -158 333 -178 b 302 -455 337 -319 319 -402 b 342 -524 291 -490 309 -519 z "},"L":{"ha":861,"x_min":0,"x_max":0,"o":"m 346 -17 b 693 22 451 -17 589 10 b 764 96 735 28 764 58 b 690 162 764 135 734 162 b 392 121 619 162 464 121 b 315 202 334 121 315 148 b 433 929 315 383 433 723 b 344 1038 433 994 403 1038 b 247 931 286 1038 247 997 b 273 838 247 895 256 859 b 158 164 256 634 158 331 b 346 -17 158 60 210 -17 z "},"Ĺ":{"ha":861,"x_min":0,"x_max":0,"o":"m 346 -17 b 693 22 451 -17 589 10 b 764 96 735 28 764 58 b 690 162 764 135 734 162 b 392 121 619 162 464 121 b 315 202 334 121 315 148 b 433 929 315 383 433 723 b 344 1038 433 994 403 1038 b 247 931 286 1038 247 997 b 273 838 247 895 256 859 b 158 164 256 634 158 331 b 346 -17 158 60 210 -17 z m 326 1131 b 332 1208 302 1156 303 1183 b 412 1295 361 1232 391 1264 b 513 1301 437 1337 482 1331 b 519 1208 544 1271 546 1238 b 403 1126 492 1179 444 1145 b 326 1131 378 1115 350 1106 z "},"Ľ":{"ha":861,"x_min":0,"x_max":0,"o":"m 346 -17 b 693 22 451 -17 589 10 b 764 96 735 28 764 58 b 690 162 764 135 734 162 b 392 121 619 162 464 121 b 315 202 334 121 315 148 b 433 929 315 383 433 723 b 344 1038 433 994 403 1038 b 247 931 286 1038 247 997 b 273 838 247 895 256 859 b 158 164 256 634 158 331 b 346 -17 158 60 210 -17 z m 620 850 b 684 901 654 846 671 865 b 715 1040 699 944 710 988 b 652 1119 722 1085 694 1113 b 574 1050 610 1124 569 1106 b 574 917 577 1012 579 959 b 620 850 570 880 586 854 z "},"Ļ":{"ha":861,"x_min":0,"x_max":0,"o":"m 346 -17 b 693 22 451 -17 589 10 b 764 96 735 28 764 58 b 690 162 764 135 734 162 b 392 121 619 162 464 121 b 315 202 334 121 315 148 b 433 929 315 383 433 723 b 344 1038 433 994 403 1038 b 247 931 286 1038 247 997 b 273 838 247 895 256 859 b 158 164 256 634 158 331 b 346 -17 158 60 210 -17 z m 370 -524 b 442 -477 399 -529 424 -509 b 521 -252 471 -426 511 -331 b 452 -164 526 -206 503 -170 b 363 -233 405 -158 361 -178 b 331 -455 365 -319 347 -402 b 370 -524 319 -490 338 -519 z "},"Ŀ":{"ha":861,"x_min":0,"x_max":0,"o":"m 753 463 b 856 575 802 463 856 505 b 749 682 856 640 807 682 b 642 574 692 682 642 641 b 690 504 642 532 660 506 b 753 463 703 478 727 463 z m 346 -17 b 693 22 451 -17 589 10 b 764 96 735 28 764 58 b 690 162 764 135 734 162 b 392 121 619 162 464 121 b 315 202 334 121 315 148 b 433 929 315 383 433 723 b 344 1038 433 994 403 1038 b 247 931 286 1038 247 997 b 273 838 247 895 256 859 b 158 164 256 634 158 331 b 346 -17 158 60 210 -17 z "},"Ł":{"ha":861,"x_min":0,"x_max":0,"o":"m 105 424 l 205 467 b 158 164 181 352 158 243 b 346 -17 158 60 210 -17 b 693 22 451 -17 589 10 b 764 96 735 28 764 58 b 690 162 764 135 734 162 b 392 121 619 162 464 121 b 315 202 334 121 315 148 b 370 539 315 289 342 412 l 563 623 b 595 710 603 641 610 680 b 510 738 582 738 549 754 l 403 690 b 433 929 419 778 433 861 b 344 1038 433 994 403 1038 b 247 931 286 1038 247 997 b 273 838 247 895 256 859 b 238 619 267 772 253 697 l 53 538 b 19 456 18 523 6 488 b 105 424 33 426 67 407 z "},"M":{"ha":861,"x_min":0,"x_max":0,"o":"m 122 -18 b 215 82 160 -18 198 6 b 310 717 243 204 289 509 l 333 708 b 348 301 331 572 338 374 b 424 208 357 238 383 208 b 512 283 453 208 488 223 b 647 745 542 358 609 595 l 670 736 b 625 142 645 564 625 285 b 713 -16 625 49 649 -16 b 799 76 761 -16 799 20 b 751 160 799 112 781 147 b 801 880 754 358 778 703 b 715 1040 813 967 791 1040 b 603 922 660 1040 624 1003 b 458 442 571 803 494 552 l 435 451 b 414 891 424 570 417 780 b 322 1009 412 970 381 1009 b 219 876 267 1009 231 973 b 109 172 199 717 152 388 b 46 74 71 160 46 119 b 122 -18 46 26 72 -18 z "},"N":{"ha":861,"x_min":0,"x_max":0,"o":"m 149 -11 b 236 72 186 -11 221 12 b 297 663 263 171 283 440 l 317 658 b 484 86 361 463 436 215 b 579 -3 507 28 531 -3 b 666 97 626 -3 652 28 b 780 957 697 258 773 859 b 715 1039 783 1003 758 1039 b 647 966 675 1039 651 1010 b 562 249 634 831 595 496 l 542 253 b 370 903 494 414 404 754 b 281 1004 358 958 335 1004 b 200 891 227 1004 203 956 b 133 190 192 767 165 401 b 70 85 98 175 70 138 b 149 -11 70 33 99 -11 z "},"Ń":{"ha":861,"x_min":0,"x_max":0,"o":"m 149 -11 b 236 72 186 -11 221 12 b 297 663 263 171 283 440 l 317 658 b 484 86 361 463 436 215 b 579 -3 507 28 531 -3 b 666 97 626 -3 652 28 b 780 957 697 258 773 859 b 715 1039 783 1003 758 1039 b 647 966 675 1039 651 1010 b 562 249 634 831 595 496 l 542 253 b 370 903 494 414 404 754 b 281 1004 358 958 335 1004 b 200 891 227 1004 203 956 b 133 190 192 767 165 401 b 70 85 98 175 70 138 b 149 -11 70 33 99 -11 z m 467 1131 b 473 1208 442 1156 443 1183 b 552 1295 501 1232 532 1264 b 653 1301 578 1337 622 1331 b 659 1208 684 1271 687 1238 b 544 1126 633 1179 585 1145 b 467 1131 519 1115 491 1106 z "},"Ň":{"ha":861,"x_min":0,"x_max":0,"o":"m 149 -11 b 236 72 186 -11 221 12 b 297 663 263 171 283 440 l 317 658 b 484 86 361 463 436 215 b 579 -3 507 28 531 -3 b 666 97 626 -3 652 28 b 780 957 697 258 773 859 b 715 1039 783 1003 758 1039 b 647 966 675 1039 651 1010 b 562 249 634 831 595 496 l 542 253 b 370 903 494 414 404 754 b 281 1004 358 958 335 1004 b 200 891 227 1004 203 956 b 133 190 192 767 165 401 b 70 85 98 175 70 138 b 149 -11 70 33 99 -11 z m 265 1313 b 376 1313 290 1337 335 1333 b 521 1210 419 1292 475 1253 b 619 1304 558 1238 586 1266 b 699 1315 644 1333 676 1335 b 703 1239 720 1297 726 1268 b 586 1133 669 1194 633 1163 b 447 1139 542 1108 488 1102 b 353 1210 419 1165 389 1190 b 263 1222 328 1194 288 1194 b 265 1313 236 1249 242 1292 z "},"Ņ":{"ha":861,"x_min":0,"x_max":0,"o":"m 149 -11 b 236 72 186 -11 221 12 b 297 663 263 171 283 440 l 317 658 b 484 86 361 463 436 215 b 579 -3 507 28 531 -3 b 666 97 626 -3 652 28 b 780 957 697 258 773 859 b 715 1039 783 1003 758 1039 b 647 966 675 1039 651 1010 b 562 249 634 831 595 496 l 542 253 b 370 903 494 414 404 754 b 281 1004 358 958 335 1004 b 200 891 227 1004 203 956 b 133 190 192 767 165 401 b 70 85 98 175 70 138 b 149 -11 70 33 99 -11 z m 335 -524 b 408 -477 365 -529 390 -509 b 486 -252 437 -426 477 -331 b 418 -164 492 -206 469 -170 b 328 -233 371 -158 326 -178 b 297 -455 331 -319 313 -402 b 335 -524 285 -490 303 -519 z "},"Ɲ":{"ha":861,"x_min":0,"x_max":0,"o":"m 72 -278 b 277 96 210 -278 257 -122 b 324 663 290 218 311 450 l 344 658 b 485 103 387 458 442 240 b 584 -3 506 34 526 -3 b 673 105 631 -3 656 23 b 780 960 699 254 771 860 b 728 1039 784 1005 764 1036 b 653 976 680 1042 658 1015 b 574 249 635 833 602 497 l 554 253 b 391 903 513 414 433 753 b 301 1004 375 958 360 1004 b 222 905 247 1004 227 956 b 158 105 203 683 176 324 b 84 -151 144 -43 122 -151 l 76 -151 b 12 -92 68 -119 47 -92 b -55 -167 -28 -92 -55 -124 b 72 -278 -55 -237 10 -278 z "},"Ñ":{"ha":861,"x_min":0,"x_max":0,"o":"m 149 -11 b 236 72 186 -11 221 12 b 297 663 263 171 283 440 l 317 658 b 484 86 361 463 436 215 b 579 -3 507 28 531 -3 b 666 97 626 -3 652 28 b 780 957 697 258 773 859 b 715 1039 783 1003 758 1039 b 647 966 675 1039 651 1010 b 562 249 634 831 595 496 l 542 253 b 370 903 494 414 404 754 b 281 1004 358 958 335 1004 b 200 891 227 1004 203 956 b 133 190 192 767 165 401 b 70 85 98 175 70 138 b 149 -11 70 33 99 -11 z m 613 1124 b 766 1242 688 1124 745 1164 b 731 1313 777 1280 766 1303 b 665 1281 694 1324 675 1308 b 599 1225 651 1242 628 1225 b 396 1315 534 1225 507 1315 b 239 1211 325 1315 266 1274 b 276 1134 221 1169 241 1145 b 340 1166 308 1124 326 1137 b 408 1211 354 1194 381 1211 b 613 1124 471 1211 500 1124 z "},"Ŋ":{"ha":861,"x_min":0,"x_max":0,"o":"m 465 -277 b 676 96 601 -277 653 -121 b 780 960 697 285 771 860 b 719 1039 784 1005 760 1038 b 644 976 675 1041 648 1015 l 562 301 l 542 305 l 365 903 b 278 1004 348 958 333 1004 b 198 905 220 1004 203 956 b 119 188 179 718 151 390 b 74 101 98 172 81 143 b 139 -10 67 47 92 -1 b 235 72 177 -16 217 6 b 297 663 263 171 284 437 l 317 658 b 531 19 368 459 484 142 b 476 -150 532 -94 509 -150 l 467 -150 b 403 -92 460 -119 439 -92 b 337 -167 365 -92 337 -124 b 465 -277 337 -237 402 -277 z "},"O":{"ha":861,"x_min":0,"x_max":0,"o":"m 365 -15 b 789 605 672 -15 789 364 b 700 878 789 736 751 828 b 535 1031 739 944 679 1031 b 65 359 217 1031 65 639 b 365 -15 65 134 176 -15 z m 214 374 b 517 890 214 566 329 890 b 557 885 531 890 544 888 b 575 793 541 858 547 825 b 647 582 619 754 647 681 b 379 123 647 410 556 123 b 214 374 269 123 214 233 z "},"Ó":{"ha":861,"x_min":0,"x_max":0,"o":"m 365 -15 b 789 605 672 -15 789 364 b 700 878 789 736 751 828 b 535 1031 739 944 679 1031 b 65 359 217 1031 65 639 b 365 -15 65 134 176 -15 z m 501 1131 b 507 1208 476 1156 477 1183 b 586 1295 535 1232 566 1264 b 687 1301 612 1337 656 1331 b 693 1208 718 1271 721 1238 b 578 1126 667 1179 619 1145 b 501 1131 553 1115 525 1106 z m 214 374 b 517 890 214 566 329 890 b 557 885 531 890 544 888 b 575 793 541 858 547 825 b 647 582 619 754 647 681 b 379 123 647 410 556 123 b 214 374 269 123 214 233 z "},"Ŏ":{"ha":861,"x_min":0,"x_max":0,"o":"m 365 -15 b 789 605 672 -15 789 364 b 700 878 789 736 751 828 b 535 1031 739 944 679 1031 b 65 359 217 1031 65 639 b 365 -15 65 134 176 -15 z m 539 1133 b 756 1267 664 1133 745 1191 b 711 1322 761 1299 742 1319 b 652 1283 678 1323 660 1308 b 538 1222 641 1243 605 1222 b 428 1272 481 1222 444 1236 b 366 1311 416 1298 401 1313 b 321 1255 335 1309 315 1288 b 539 1133 333 1192 413 1133 z m 214 374 b 517 890 214 566 329 890 b 557 885 531 890 544 888 b 575 793 541 858 547 825 b 647 582 619 754 647 681 b 379 123 647 410 556 123 b 214 374 269 123 214 233 z "},"Ô":{"ha":861,"x_min":0,"x_max":0,"o":"m 365 -15 b 789 605 672 -15 789 364 b 700 878 789 736 751 828 b 535 1031 739 944 679 1031 b 65 359 217 1031 65 639 b 365 -15 65 134 176 -15 z m 299 1139 b 410 1139 324 1115 369 1119 b 556 1242 453 1159 509 1199 b 653 1147 592 1213 620 1185 b 733 1137 678 1118 710 1117 b 738 1213 754 1156 760 1184 b 620 1318 703 1258 667 1289 b 481 1313 576 1344 522 1349 b 388 1241 453 1286 423 1262 b 297 1231 362 1258 323 1257 b 299 1139 270 1202 276 1159 z m 214 374 b 517 890 214 566 329 890 b 557 885 531 890 544 888 b 575 793 541 858 547 825 b 647 582 619 754 647 681 b 379 123 647 410 556 123 b 214 374 269 123 214 233 z "},"Ö":{"ha":861,"x_min":0,"x_max":0,"o":"m 365 -15 b 789 605 672 -15 789 364 b 700 878 789 736 751 828 b 535 1031 739 944 679 1031 b 65 359 217 1031 65 639 b 365 -15 65 134 176 -15 z m 356 1130 b 451 1228 401 1130 451 1167 b 351 1322 451 1285 406 1322 b 251 1228 299 1322 251 1285 b 297 1166 251 1190 268 1167 b 356 1130 308 1143 331 1130 z m 610 1214 b 713 1126 610 1165 651 1126 b 821 1227 780 1126 821 1172 b 720 1330 821 1282 781 1330 b 653 1282 683 1330 658 1312 b 610 1214 627 1270 610 1247 z m 214 374 b 517 890 214 566 329 890 b 557 885 531 890 544 888 b 575 793 541 858 547 825 b 647 582 619 754 647 681 b 379 123 647 410 556 123 b 214 374 269 123 214 233 z "},"Ọ":{"ha":861,"x_min":0,"x_max":0,"o":"m 365 -15 b 789 605 672 -15 789 364 b 700 878 789 736 751 828 b 535 1031 739 944 679 1031 b 65 359 217 1031 65 639 b 365 -15 65 134 176 -15 z m 351 -369 b 462 -256 403 -369 462 -327 b 346 -150 462 -192 410 -150 b 228 -257 284 -150 228 -191 b 281 -328 228 -300 248 -326 b 351 -369 295 -353 322 -369 z m 214 374 b 517 890 214 566 329 890 b 557 885 531 890 544 888 b 575 793 541 858 547 825 b 647 582 619 754 647 681 b 379 123 647 410 556 123 b 214 374 269 123 214 233 z "},"Ò":{"ha":861,"x_min":0,"x_max":0,"o":"m 365 -15 b 789 605 672 -15 789 364 b 700 878 789 736 751 828 b 535 1031 739 944 679 1031 b 65 359 217 1031 65 639 b 365 -15 65 134 176 -15 z m 571 1131 b 565 1208 595 1156 594 1183 b 485 1295 536 1232 506 1264 b 385 1301 460 1337 415 1331 b 378 1208 353 1271 351 1238 b 494 1126 406 1179 453 1145 b 571 1131 519 1115 547 1106 z m 214 374 b 517 890 214 566 329 890 b 557 885 531 890 544 888 b 575 793 541 858 547 825 b 647 582 619 754 647 681 b 379 123 647 410 556 123 b 214 374 269 123 214 233 z "},"Ő":{"ha":861,"x_min":0,"x_max":0,"o":"m 365 -15 b 789 605 672 -15 789 364 b 700 878 789 736 751 828 b 535 1031 739 944 679 1031 b 65 359 217 1031 65 639 b 365 -15 65 134 176 -15 z m 363 1144 b 433 1137 384 1122 408 1126 b 533 1213 470 1155 508 1185 b 524 1303 558 1240 556 1276 b 434 1294 491 1331 451 1326 b 364 1203 417 1263 390 1228 b 363 1144 344 1183 343 1163 z m 630 1146 b 703 1137 653 1121 678 1126 b 806 1217 740 1155 781 1189 b 798 1307 834 1247 830 1281 b 700 1297 760 1339 718 1333 b 630 1209 683 1267 656 1234 b 630 1146 610 1190 610 1167 z m 214 374 b 517 890 214 566 329 890 b 557 885 531 890 544 888 b 575 793 541 858 547 825 b 647 582 619 754 647 681 b 379 123 647 410 556 123 b 214 374 269 123 214 233 z "},"Ō":{"ha":861,"x_min":0,"x_max":0,"o":"m 365 -15 b 789 605 672 -15 789 364 b 700 878 789 736 751 828 b 535 1031 739 944 679 1031 b 65 359 217 1031 65 639 b 365 -15 65 134 176 -15 z m 363 1185 l 711 1188 b 764 1245 742 1188 765 1210 b 710 1299 763 1279 740 1301 l 360 1284 b 308 1234 330 1283 308 1262 b 363 1185 309 1206 332 1186 z m 214 374 b 517 890 214 566 329 890 b 557 885 531 890 544 888 b 575 793 541 858 547 825 b 647 582 619 754 647 681 b 379 123 647 410 556 123 b 214 374 269 123 214 233 z "},"Ǫ":{"ha":861,"x_min":0,"x_max":0,"o":"m 388 -296 b 466 -250 437 -299 460 -281 b 427 -195 472 -221 456 -201 b 368 -135 391 -187 368 -171 b 469 0 368 -87 408 -47 l 467 1 b 789 605 698 74 789 393 b 700 878 789 736 751 828 b 535 1031 739 944 679 1031 b 65 359 217 1031 65 639 b 336 -13 65 146 165 1 b 235 -169 267 -69 235 -118 b 388 -296 235 -235 280 -290 z m 214 374 b 517 890 214 566 329 890 b 557 885 531 890 544 888 b 575 793 541 858 547 825 b 647 582 619 754 647 681 b 379 123 647 410 556 123 b 214 374 269 123 214 233 z "},"Ø":{"ha":861,"x_min":0,"x_max":0,"o":"m 364 -15 b 789 598 676 -15 791 358 b 699 878 788 734 750 827 b 699 967 717 907 717 940 l 755 1092 b 723 1182 774 1134 754 1168 b 640 1143 694 1194 660 1184 l 587 1026 b 522 1031 567 1028 546 1031 b 65 389 229 1031 65 657 b 176 58 65 240 105 127 l 114 -78 b 144 -171 93 -123 113 -157 b 228 -130 173 -183 208 -173 l 285 -4 b 364 -15 310 -11 336 -15 z m 203 391 b 517 890 202 601 326 890 b 541 888 526 890 533 890 l 248 197 b 203 391 219 246 203 313 z m 333 123 l 610 774 b 660 572 641 730 660 661 b 378 116 658 390 565 116 b 333 123 363 116 347 119 z "},"Ǿ":{"ha":861,"x_min":0,"x_max":0,"o":"m 364 -15 b 789 598 676 -15 791 358 b 699 878 788 734 750 827 b 699 967 717 907 717 940 l 755 1092 b 723 1182 774 1134 754 1168 b 640 1143 694 1194 660 1184 l 587 1026 b 522 1031 567 1028 546 1031 b 65 389 229 1031 65 657 b 176 58 65 240 105 127 l 114 -78 b 144 -171 93 -123 113 -157 b 228 -130 173 -183 208 -173 l 285 -4 b 364 -15 310 -11 336 -15 z m 396 1131 b 401 1208 372 1156 372 1183 b 481 1295 431 1232 460 1264 b 582 1301 506 1337 551 1331 b 588 1208 613 1271 615 1238 b 472 1126 561 1179 514 1145 b 396 1131 448 1115 419 1106 z m 203 391 b 517 890 202 601 326 890 b 541 888 526 890 533 890 l 248 197 b 203 391 219 246 203 313 z m 333 123 l 610 774 b 660 572 641 730 660 661 b 378 116 658 390 565 116 b 333 123 363 116 347 119 z "},"Õ":{"ha":861,"x_min":0,"x_max":0,"o":"m 365 -15 b 789 605 672 -15 789 364 b 700 878 789 736 751 828 b 535 1031 739 944 679 1031 b 65 359 217 1031 65 639 b 365 -15 65 134 176 -15 z m 647 1124 b 800 1242 722 1124 779 1164 b 765 1313 811 1280 800 1303 b 699 1281 728 1324 709 1308 b 633 1225 685 1242 663 1225 b 430 1315 568 1225 541 1315 b 273 1211 359 1315 300 1274 b 310 1134 255 1169 275 1145 b 374 1166 342 1124 360 1137 b 442 1211 388 1194 415 1211 b 647 1124 505 1211 534 1124 z m 214 374 b 517 890 214 566 329 890 b 557 885 531 890 544 888 b 575 793 541 858 547 825 b 647 582 619 754 647 681 b 379 123 647 410 556 123 b 214 374 269 123 214 233 z "},"Œ":{"ha":861,"x_min":0,"x_max":0,"o":"m 560 -18 b 752 10 633 -12 686 -7 b 809 92 790 19 815 47 b 743 144 805 126 776 152 b 600 118 692 131 653 123 b 540 229 540 113 528 144 l 561 407 l 711 426 b 773 495 749 432 775 460 b 705 556 771 530 743 560 l 578 541 l 614 853 l 801 874 b 863 942 840 878 865 908 b 795 1003 862 977 833 1006 l 625 987 b 572 1040 622 1015 608 1036 b 494 962 525 1044 499 1008 l 493 954 b 485 944 490 951 487 947 b 356 1031 478 988 436 1031 b 37 559 228 1031 85 874 b 235 -15 -17 215 65 -15 b 412 88 302 -15 363 19 b 560 -18 431 16 481 -23 z m 162 541 b 358 894 197 767 284 894 b 374 892 363 894 369 893 b 366 878 371 888 368 883 b 384 793 353 849 363 828 b 415 419 432 731 447 596 b 251 123 386 250 328 123 b 162 541 160 123 127 311 z m 471 888 l 476 897 l 478 899 b 485 881 479 893 481 887 l 483 870 b 471 888 479 876 475 882 z "},"P":{"ha":861,"x_min":0,"x_max":0,"o":"m 209 -16 b 298 77 260 -16 298 17 b 269 150 298 110 287 138 b 281 318 271 203 275 260 b 813 719 543 323 813 469 b 392 1042 813 923 639 1042 b 199 1016 317 1042 240 1029 b 134 936 153 1001 134 969 b 221 874 134 888 172 871 b 125 110 181 651 125 320 b 209 -16 125 23 159 -16 z m 297 455 b 369 890 318 615 347 774 l 369 895 b 422 898 387 897 405 898 b 665 710 561 898 665 826 b 297 455 665 555 480 459 z "},"Þ":{"ha":861,"x_min":0,"x_max":0,"o":"m 303 217 b 801 545 537 230 801 319 b 406 815 801 731 615 815 l 356 814 l 377 936 b 322 1022 389 986 361 1016 b 233 942 274 1028 243 993 l 208 792 l 185 785 b 124 694 141 772 113 739 b 186 645 131 665 154 647 b 125 110 160 467 135 269 b 204 -16 122 19 154 -16 b 292 59 253 -16 287 13 b 269 133 294 88 288 113 l 277 217 b 303 217 285 217 294 217 z m 292 352 b 334 670 304 460 319 570 b 413 676 358 674 383 676 b 656 538 542 676 656 633 b 292 352 656 413 467 357 z "},"Q":{"ha":861,"x_min":0,"x_max":0,"o":"m 658 -164 b 740 -78 704 -164 740 -128 b 656 10 740 -31 707 10 l 642 10 b 594 76 626 31 610 53 b 789 605 732 203 789 438 b 700 878 789 736 751 828 b 535 1031 739 944 679 1031 b 65 359 217 1031 65 639 b 365 -15 65 134 176 -15 b 467 1 401 -15 435 -9 b 658 -164 518 -79 588 -164 z m 214 374 b 517 890 214 566 329 890 b 557 885 531 890 544 888 b 575 793 541 858 547 825 b 647 582 619 754 647 681 b 522 198 647 465 605 295 l 511 219 b 416 250 488 263 453 270 b 399 124 372 226 371 182 b 379 123 392 124 386 123 b 214 374 269 123 214 233 z "},"R":{"ha":861,"x_min":0,"x_max":0,"o":"m 698 -15 b 794 74 755 -15 794 24 b 703 158 794 122 759 158 b 667 151 690 158 678 156 b 469 382 588 230 519 309 l 474 399 b 817 743 652 442 817 562 b 419 1040 817 916 656 1040 b 213 1017 352 1040 275 1033 b 127 922 154 1003 117 973 b 220 867 136 876 176 864 b 118 91 187 643 144 308 b 188 -16 110 28 135 -16 b 267 60 236 -16 261 15 l 307 398 b 324 356 310 384 316 369 b 698 -15 375 266 561 -15 z m 316 475 b 369 890 335 633 356 796 l 370 894 b 439 897 393 896 416 897 b 667 731 572 897 667 832 b 374 508 667 607 524 528 b 316 475 347 505 328 492 z "},"Ŕ":{"ha":861,"x_min":0,"x_max":0,"o":"m 698 -15 b 794 74 755 -15 794 24 b 703 158 794 122 759 158 b 667 151 690 158 678 156 b 469 382 588 230 519 309 l 474 399 b 817 743 652 442 817 562 b 419 1040 817 916 656 1040 b 213 1017 352 1040 275 1033 b 127 922 154 1003 117 973 b 220 867 136 876 176 864 b 118 91 187 643 144 308 b 188 -16 110 28 135 -16 b 267 60 236 -16 261 15 l 307 398 b 324 356 310 384 316 369 b 698 -15 375 266 561 -15 z m 433 1131 b 439 1208 408 1156 409 1183 b 518 1295 467 1232 498 1264 b 619 1301 544 1337 588 1331 b 625 1208 650 1271 653 1238 b 510 1126 599 1179 551 1145 b 433 1131 485 1115 457 1106 z m 316 475 b 369 890 335 633 356 796 l 370 894 b 439 897 393 896 416 897 b 667 731 572 897 667 832 b 374 508 667 607 524 528 b 316 475 347 505 328 492 z "},"Ř":{"ha":861,"x_min":0,"x_max":0,"o":"m 698 -15 b 794 74 755 -15 794 24 b 703 158 794 122 759 158 b 667 151 690 158 678 156 b 469 382 588 230 519 309 l 474 399 b 817 743 652 442 817 562 b 419 1040 817 916 656 1040 b 213 1017 352 1040 275 1033 b 127 922 154 1003 117 973 b 220 867 136 876 176 864 b 118 91 187 643 144 308 b 188 -16 110 28 135 -16 b 267 60 236 -16 261 15 l 307 398 b 324 356 310 384 316 369 b 698 -15 375 266 561 -15 z m 231 1313 b 342 1313 256 1337 301 1333 b 487 1210 385 1292 441 1253 b 585 1304 524 1238 552 1266 b 665 1315 610 1333 642 1335 b 669 1239 686 1297 692 1268 b 552 1133 635 1194 599 1163 b 413 1139 508 1108 454 1102 b 319 1210 385 1165 355 1190 b 229 1222 294 1194 254 1194 b 231 1313 202 1249 208 1292 z m 316 475 b 369 890 335 633 356 796 l 370 894 b 439 897 393 896 416 897 b 667 731 572 897 667 832 b 374 508 667 607 524 528 b 316 475 347 505 328 492 z "},"Ŗ":{"ha":861,"x_min":0,"x_max":0,"o":"m 698 -15 b 794 74 755 -15 794 24 b 703 158 794 122 759 158 b 667 151 690 158 678 156 b 469 382 588 230 519 309 l 474 399 b 817 743 652 442 817 562 b 419 1040 817 916 656 1040 b 213 1017 352 1040 275 1033 b 127 922 154 1003 117 973 b 220 867 136 876 176 864 b 118 91 187 643 144 308 b 188 -16 110 28 135 -16 b 267 60 236 -16 261 15 l 307 398 b 324 356 310 384 316 369 b 698 -15 375 266 561 -15 z m 360 -524 b 433 -477 390 -529 414 -509 b 511 -252 461 -426 501 -331 b 442 -164 517 -206 494 -170 b 353 -233 395 -158 351 -178 b 321 -455 356 -319 338 -402 b 360 -524 310 -490 328 -519 z m 316 475 b 369 890 335 633 356 796 l 370 894 b 439 897 393 896 416 897 b 667 731 572 897 667 832 b 374 508 667 607 524 528 b 316 475 347 505 328 492 z "},"S":{"ha":861,"x_min":0,"x_max":0,"o":"m 380 -22 b 694 198 546 -22 694 64 b 495 438 694 306 600 376 b 318 647 408 490 318 551 b 625 901 318 777 484 888 l 635 885 b 575 712 617 846 575 769 b 661 618 575 653 613 618 b 744 699 708 618 744 651 b 727 748 744 719 738 737 b 608 1031 772 863 799 1031 b 170 641 407 1031 170 838 b 361 362 170 523 249 435 b 536 195 447 306 536 247 b 390 116 536 154 483 116 b 206 175 313 116 251 141 b 99 174 167 201 128 211 b 108 69 75 141 78 97 b 380 -22 153 28 254 -22 z "},"Ś":{"ha":861,"x_min":0,"x_max":0,"o":"m 380 -22 b 694 198 546 -22 694 64 b 495 438 694 306 600 376 b 318 647 408 490 318 551 b 625 901 318 777 484 888 l 635 885 b 575 712 617 846 575 769 b 661 618 575 653 613 618 b 744 699 708 618 744 651 b 727 748 744 719 738 737 b 608 1031 772 863 799 1031 b 170 641 407 1031 170 838 b 361 362 170 523 249 435 b 536 195 447 306 536 247 b 390 116 536 154 483 116 b 206 175 313 116 251 141 b 99 174 167 201 128 211 b 108 69 75 141 78 97 b 380 -22 153 28 254 -22 z m 527 1131 b 533 1208 503 1156 503 1183 b 613 1295 562 1232 592 1264 b 713 1301 638 1337 683 1331 b 719 1208 744 1271 747 1238 b 603 1126 692 1179 645 1145 b 527 1131 579 1115 551 1106 z "},"Š":{"ha":861,"x_min":0,"x_max":0,"o":"m 380 -22 b 694 198 546 -22 694 64 b 495 438 694 306 600 376 b 318 647 408 490 318 551 b 625 901 318 777 484 888 l 635 885 b 575 712 617 846 575 769 b 661 618 575 653 613 618 b 744 699 708 618 744 651 b 727 748 744 719 738 737 b 608 1031 772 863 799 1031 b 170 641 407 1031 170 838 b 361 362 170 523 249 435 b 536 195 447 306 536 247 b 390 116 536 154 483 116 b 206 175 313 116 251 141 b 99 174 167 201 128 211 b 108 69 75 141 78 97 b 380 -22 153 28 254 -22 z m 324 1313 b 436 1313 351 1337 395 1333 b 581 1210 478 1292 535 1253 b 679 1304 617 1238 646 1266 b 759 1315 705 1333 736 1335 b 763 1239 780 1297 786 1268 b 646 1133 729 1194 693 1163 b 508 1139 602 1108 549 1102 b 413 1210 479 1165 449 1190 b 323 1222 388 1194 349 1194 b 324 1313 297 1249 301 1292 z "},"Ş":{"ha":861,"x_min":0,"x_max":0,"o":"m 99 174 b 108 69 75 141 78 97 b 319 -17 146 35 222 -5 b 265 -133 306 -56 283 -101 b 306 -232 236 -182 265 -219 b 397 -183 347 -245 383 -232 b 428 -44 414 -135 422 -91 b 428 -19 428 -35 428 -26 b 694 198 574 -4 694 77 b 495 438 694 306 600 376 b 318 647 408 490 318 551 b 625 901 318 777 484 888 l 635 885 b 575 712 617 846 575 769 b 661 618 575 653 613 618 b 744 699 708 618 744 651 b 727 748 744 719 738 737 b 608 1031 772 863 799 1031 b 170 641 407 1031 170 838 b 361 362 170 523 249 435 b 536 195 447 306 536 247 b 390 116 536 154 483 116 b 206 175 313 116 251 141 b 99 174 167 201 128 211 z "},"Ŝ":{"ha":861,"x_min":0,"x_max":0,"o":"m 380 -22 b 694 198 546 -22 694 64 b 495 438 694 306 600 376 b 318 647 408 490 318 551 b 625 901 318 777 484 888 l 635 885 b 575 712 617 846 575 769 b 661 618 575 653 613 618 b 744 699 708 618 744 651 b 727 748 744 719 738 737 b 608 1031 772 863 799 1031 b 170 641 407 1031 170 838 b 361 362 170 523 249 435 b 536 195 447 306 536 247 b 390 116 536 154 483 116 b 206 175 313 116 251 141 b 99 174 167 201 128 211 b 108 69 75 141 78 97 b 380 -22 153 28 254 -22 z m 324 1139 b 436 1139 351 1115 395 1119 b 581 1242 478 1159 535 1199 b 679 1147 617 1213 647 1185 b 759 1137 705 1118 736 1117 b 763 1213 780 1156 786 1184 b 646 1318 729 1258 693 1289 b 508 1313 602 1344 549 1349 b 413 1241 480 1286 449 1262 b 323 1231 388 1258 349 1257 b 324 1139 297 1202 301 1159 z "},"Ș":{"ha":861,"x_min":0,"x_max":0,"o":"m 380 -22 b 694 198 546 -22 694 64 b 495 438 694 306 600 376 b 318 647 408 490 318 551 b 625 901 318 777 484 888 l 635 885 b 575 712 617 846 575 769 b 661 618 575 653 613 618 b 744 699 708 618 744 651 b 727 748 744 719 738 737 b 608 1031 772 863 799 1031 b 170 641 407 1031 170 838 b 361 362 170 523 249 435 b 536 195 447 306 536 247 b 390 116 536 154 483 116 b 206 175 313 116 251 141 b 99 174 167 201 128 211 b 108 69 75 141 78 97 b 380 -22 153 28 254 -22 z m 328 -524 b 401 -477 358 -529 383 -509 b 479 -252 430 -426 470 -331 b 411 -164 485 -206 462 -170 b 322 -233 364 -158 319 -178 b 290 -455 324 -319 306 -402 b 328 -524 278 -490 297 -519 z "},"ẞ":{"ha":861,"x_min":0,"x_max":0,"o":"m 474 -20 b 821 346 635 -20 821 122 b 635 582 821 466 763 562 b 751 856 677 676 723 776 b 646 1028 787 965 752 1031 b 142 1003 486 1024 265 1013 b 74 928 97 1000 70 967 b 153 864 77 890 108 861 l 171 865 b 95 85 151 680 103 183 b 160 -16 90 20 113 -16 b 235 65 207 -16 229 13 b 314 874 245 144 302 732 b 565 888 398 880 490 886 b 603 837 608 890 619 878 b 503 608 576 771 526 667 b 494 510 491 577 478 539 b 570 478 506 488 522 480 b 686 338 647 475 686 422 b 467 111 686 190 569 111 b 408 49 432 111 408 89 b 474 -20 408 6 431 -20 z "},"T":{"ha":861,"x_min":0,"x_max":0,"o":"m 339 -15 b 418 64 380 -15 408 13 b 524 878 458 272 511 664 l 735 891 b 801 961 774 893 803 924 b 724 1031 801 1003 763 1024 b 457 1058 658 1040 540 1050 b 383 1010 409 1063 390 1038 l 126 996 b 60 924 88 994 59 961 b 132 856 61 885 94 854 l 378 872 b 271 70 363 617 308 258 b 339 -15 260 20 294 -15 z "},"Ŧ":{"ha":861,"x_min":0,"x_max":0,"o":"m 237 438 l 333 448 b 271 70 313 302 290 165 b 339 -15 260 20 294 -15 b 418 64 380 -15 408 13 b 481 464 438 167 460 315 l 631 480 b 686 555 674 485 692 522 b 612 604 681 585 654 608 l 497 592 b 524 878 509 699 519 801 l 735 891 b 801 961 774 893 803 924 b 724 1031 801 1003 763 1024 b 457 1058 658 1040 540 1050 b 383 1010 409 1063 390 1038 l 126 996 b 60 924 88 994 59 961 b 132 856 61 885 94 854 l 378 872 b 349 576 372 782 363 679 l 219 562 b 165 491 181 558 159 523 b 237 438 169 459 197 433 z "},"Ť":{"ha":861,"x_min":0,"x_max":0,"o":"m 339 -15 b 418 64 380 -15 408 13 b 524 878 458 272 511 664 l 735 891 b 801 961 774 893 803 924 b 724 1031 801 1003 763 1024 b 457 1058 658 1040 540 1050 b 383 1010 409 1063 390 1038 l 126 996 b 60 924 88 994 59 961 b 132 856 61 885 94 854 l 378 872 b 271 70 363 617 308 258 b 339 -15 260 20 294 -15 z m 215 1313 b 326 1313 241 1337 286 1333 b 472 1210 369 1292 426 1253 b 569 1304 508 1238 537 1266 b 650 1315 595 1333 627 1335 b 654 1239 671 1297 676 1268 b 537 1133 619 1194 584 1163 b 398 1139 493 1108 439 1102 b 304 1210 370 1165 340 1190 b 214 1222 278 1194 239 1194 b 215 1313 187 1249 192 1292 z "},"Ţ":{"ha":861,"x_min":0,"x_max":0,"o":"m 339 -15 b 418 64 380 -15 408 13 b 524 878 458 272 511 664 l 735 891 b 801 961 774 893 803 924 b 724 1031 801 1003 763 1024 b 457 1058 658 1040 540 1050 b 383 1010 409 1063 390 1038 l 126 996 b 60 924 88 994 59 961 b 132 856 61 885 94 854 l 378 872 b 271 70 363 617 308 258 b 339 -15 260 20 294 -15 z m 390 -67 b 311 -79 363 -48 334 -53 b 219 -160 286 -108 249 -139 b 227 -256 177 -192 192 -232 b 328 -244 261 -280 299 -280 b 401 -139 359 -210 381 -176 b 390 -67 416 -109 417 -87 z "},"Ț":{"ha":861,"x_min":0,"x_max":0,"o":"m 339 -15 b 418 64 380 -15 408 13 b 524 878 458 272 511 664 l 735 891 b 801 961 774 893 803 924 b 724 1031 801 1003 763 1024 b 457 1058 658 1040 540 1050 b 383 1010 409 1063 390 1038 l 126 996 b 60 924 88 994 59 961 b 132 856 61 885 94 854 l 378 872 b 271 70 363 617 308 258 b 339 -15 260 20 294 -15 z m 283 -524 b 356 -477 313 -529 338 -509 b 434 -252 385 -426 425 -331 b 366 -164 440 -206 417 -170 b 276 -233 319 -158 274 -178 b 244 -455 278 -319 261 -402 b 283 -524 233 -490 251 -519 z "},"U":{"ha":861,"x_min":0,"x_max":0,"o":"m 336 -16 b 694 351 532 -16 640 118 b 792 939 728 497 766 744 b 725 1042 800 994 781 1042 b 644 942 682 1042 655 1013 b 555 413 627 823 593 592 b 349 125 518 219 451 125 b 240 405 233 125 215 243 b 319 890 270 600 301 776 b 236 1031 335 990 294 1031 b 138 920 170 1031 138 977 b 167 842 138 892 146 858 b 93 385 147 724 120 559 b 336 -16 58 172 113 -16 z "},"Ú":{"ha":861,"x_min":0,"x_max":0,"o":"m 336 -16 b 694 351 532 -16 640 118 b 792 939 728 497 766 744 b 725 1042 800 994 781 1042 b 644 942 682 1042 655 1013 b 555 413 627 823 593 592 b 349 125 518 219 451 125 b 240 405 233 125 215 243 b 319 890 270 600 301 776 b 236 1031 335 990 294 1031 b 138 920 170 1031 138 977 b 167 842 138 892 146 858 b 93 385 147 724 120 559 b 336 -16 58 172 113 -16 z m 450 1131 b 456 1208 426 1156 426 1183 b 535 1295 485 1232 515 1264 b 636 1301 561 1337 606 1331 b 642 1208 667 1271 670 1238 b 527 1126 616 1179 568 1145 b 450 1131 503 1115 474 1106 z "},"Ŭ":{"ha":861,"x_min":0,"x_max":0,"o":"m 336 -16 b 694 351 532 -16 640 118 b 792 939 728 497 766 744 b 725 1042 800 994 781 1042 b 644 942 682 1042 655 1013 b 555 413 627 823 593 592 b 349 125 518 219 451 125 b 240 405 233 125 215 243 b 319 890 270 600 301 776 b 236 1031 335 990 294 1031 b 138 920 170 1031 138 977 b 167 842 138 892 146 858 b 93 385 147 724 120 559 b 336 -16 58 172 113 -16 z m 488 1133 b 706 1267 613 1133 694 1191 b 660 1322 710 1299 692 1319 b 601 1283 627 1323 609 1308 b 487 1222 590 1243 554 1222 b 377 1272 430 1222 394 1236 b 315 1311 365 1298 350 1313 b 270 1255 284 1309 264 1288 b 488 1133 283 1192 363 1133 z "},"Û":{"ha":861,"x_min":0,"x_max":0,"o":"m 336 -16 b 694 351 532 -16 640 118 b 792 939 728 497 766 744 b 725 1042 800 994 781 1042 b 644 942 682 1042 655 1013 b 555 413 627 823 593 592 b 349 125 518 219 451 125 b 240 405 233 125 215 243 b 319 890 270 600 301 776 b 236 1031 335 990 294 1031 b 138 920 170 1031 138 977 b 167 842 138 892 146 858 b 93 385 147 724 120 559 b 336 -16 58 172 113 -16 z m 248 1139 b 359 1139 274 1115 319 1119 b 505 1242 402 1159 458 1199 b 602 1147 541 1213 569 1185 b 683 1137 628 1118 660 1117 b 687 1213 703 1156 709 1184 b 569 1318 652 1258 617 1289 b 431 1313 526 1344 472 1349 b 337 1241 403 1286 372 1262 b 247 1231 311 1258 272 1257 b 248 1139 219 1202 225 1159 z "},"Ü":{"ha":861,"x_min":0,"x_max":0,"o":"m 336 -16 b 694 351 532 -16 640 118 b 792 939 728 497 766 744 b 725 1042 800 994 781 1042 b 644 942 682 1042 655 1013 b 555 413 627 823 593 592 b 349 125 518 219 451 125 b 240 405 233 125 215 243 b 319 890 270 600 301 776 b 236 1031 335 990 294 1031 b 138 920 170 1031 138 977 b 167 842 138 892 146 858 b 93 385 147 724 120 559 b 336 -16 58 172 113 -16 z m 305 1130 b 401 1228 350 1130 401 1167 b 301 1322 401 1285 356 1322 b 200 1228 248 1322 200 1285 b 246 1166 200 1190 217 1167 b 305 1130 258 1143 281 1130 z m 560 1214 b 663 1126 560 1165 601 1126 b 770 1227 729 1126 770 1172 b 669 1330 770 1282 731 1330 b 602 1282 633 1330 607 1312 b 560 1214 576 1270 560 1247 z "},"Ụ":{"ha":861,"x_min":0,"x_max":0,"o":"m 336 -16 b 694 351 532 -16 640 118 b 792 939 728 497 766 744 b 725 1042 800 994 781 1042 b 644 942 682 1042 655 1013 b 555 413 627 823 593 592 b 349 125 518 219 451 125 b 240 405 233 125 215 243 b 319 890 270 600 301 776 b 236 1031 335 990 294 1031 b 138 920 170 1031 138 977 b 167 842 138 892 146 858 b 93 385 147 724 120 559 b 336 -16 58 172 113 -16 z m 307 -369 b 419 -256 360 -369 419 -327 b 302 -150 419 -192 366 -150 b 185 -257 240 -150 185 -191 b 238 -328 185 -300 205 -326 b 307 -369 251 -353 278 -369 z "},"Ù":{"ha":861,"x_min":0,"x_max":0,"o":"m 336 -16 b 694 351 532 -16 640 118 b 792 939 728 497 766 744 b 725 1042 800 994 781 1042 b 644 942 682 1042 655 1013 b 555 413 627 823 593 592 b 349 125 518 219 451 125 b 240 405 233 125 215 243 b 319 890 270 600 301 776 b 236 1031 335 990 294 1031 b 138 920 170 1031 138 977 b 167 842 138 892 146 858 b 93 385 147 724 120 559 b 336 -16 58 172 113 -16 z m 520 1131 b 515 1208 544 1156 544 1183 b 435 1295 485 1232 456 1264 b 334 1301 410 1337 365 1331 b 328 1208 303 1271 301 1238 b 444 1126 355 1179 402 1145 b 520 1131 468 1115 497 1106 z "},"Ű":{"ha":861,"x_min":0,"x_max":0,"o":"m 336 -16 b 694 351 532 -16 640 118 b 792 939 728 497 766 744 b 725 1042 800 994 781 1042 b 644 942 682 1042 655 1013 b 555 413 627 823 593 592 b 349 125 518 219 451 125 b 240 405 233 125 215 243 b 319 890 270 600 301 776 b 236 1031 335 990 294 1031 b 138 920 170 1031 138 977 b 167 842 138 892 146 858 b 93 385 147 724 120 559 b 336 -16 58 172 113 -16 z m 312 1144 b 382 1137 333 1122 357 1126 b 483 1213 419 1155 458 1185 b 474 1303 507 1240 506 1276 b 383 1294 440 1331 400 1326 b 313 1203 367 1263 339 1228 b 312 1144 293 1183 292 1163 z m 579 1146 b 652 1137 603 1121 627 1126 b 756 1217 690 1155 731 1189 b 747 1307 783 1247 779 1281 b 649 1297 710 1339 667 1333 b 579 1209 633 1267 605 1234 b 579 1146 559 1190 559 1167 z "},"Ū":{"ha":861,"x_min":0,"x_max":0,"o":"m 336 -16 b 694 351 532 -16 640 118 b 792 939 728 497 766 744 b 725 1042 800 994 781 1042 b 644 942 682 1042 655 1013 b 555 413 627 823 593 592 b 349 125 518 219 451 125 b 240 405 233 125 215 243 b 319 890 270 600 301 776 b 236 1031 335 990 294 1031 b 138 920 170 1031 138 977 b 167 842 138 892 146 858 b 93 385 147 724 120 559 b 336 -16 58 172 113 -16 z m 312 1185 l 660 1188 b 713 1245 691 1188 714 1210 b 659 1299 713 1279 690 1301 l 310 1284 b 258 1234 279 1283 257 1262 b 312 1185 258 1206 281 1186 z "},"Ų":{"ha":861,"x_min":0,"x_max":0,"o":"m 360 -296 b 438 -250 409 -299 431 -281 b 399 -195 443 -221 428 -201 b 340 -135 363 -187 340 -171 b 439 -1 340 -88 379 -47 b 694 351 572 39 651 163 b 792 939 728 497 766 744 b 725 1042 800 994 781 1042 b 644 942 682 1042 655 1013 b 555 413 627 823 593 592 b 349 125 518 219 451 125 b 240 405 233 125 215 243 b 319 890 270 600 301 776 b 236 1031 335 990 294 1031 b 138 920 170 1031 138 977 b 167 842 138 892 146 858 b 93 385 147 724 120 559 b 306 -15 59 181 108 1 b 207 -169 238 -69 207 -119 b 360 -296 207 -235 252 -290 z "},"Ů":{"ha":861,"x_min":0,"x_max":0,"o":"m 336 -16 b 694 351 532 -16 640 118 b 792 939 728 497 766 744 b 725 1042 800 994 781 1042 b 644 942 682 1042 655 1013 b 555 413 627 823 593 592 b 349 125 518 219 451 125 b 240 405 233 125 215 243 b 319 890 270 600 301 776 b 236 1031 335 990 294 1031 b 138 920 170 1031 138 977 b 167 842 138 892 146 858 b 93 385 147 724 120 559 b 336 -16 58 172 113 -16 z m 475 996 b 660 1165 585 996 660 1070 b 619 1272 660 1217 640 1252 l 622 1275 b 613 1328 631 1292 628 1316 b 511 1358 589 1348 549 1358 b 317 1153 395 1358 317 1264 b 475 996 317 1049 392 996 z m 412 1163 b 512 1267 412 1213 453 1267 b 540 1263 523 1267 532 1265 b 546 1209 527 1244 534 1222 b 567 1156 557 1198 568 1180 b 482 1085 565 1117 535 1085 b 412 1163 442 1085 412 1115 z "},"Ũ":{"ha":861,"x_min":0,"x_max":0,"o":"m 336 -16 b 694 351 532 -16 640 118 b 792 939 728 497 766 744 b 725 1042 800 994 781 1042 b 644 942 682 1042 655 1013 b 555 413 627 823 593 592 b 349 125 518 219 451 125 b 240 405 233 125 215 243 b 319 890 270 600 301 776 b 236 1031 335 990 294 1031 b 138 920 170 1031 138 977 b 167 842 138 892 146 858 b 93 385 147 724 120 559 b 336 -16 58 172 113 -16 z m 596 1124 b 749 1242 672 1124 728 1164 b 714 1313 760 1280 749 1303 b 648 1281 677 1324 658 1308 b 583 1225 635 1242 612 1225 b 379 1315 517 1225 490 1315 b 222 1211 308 1315 249 1274 b 259 1134 204 1169 224 1145 b 324 1166 291 1124 310 1137 b 392 1211 338 1194 364 1211 b 596 1124 454 1211 483 1124 z "},"V":{"ha":861,"x_min":0,"x_max":0,"o":"m 335 -18 b 494 125 413 -18 449 38 b 790 909 594 306 763 755 b 717 1043 810 1003 771 1043 b 633 949 672 1043 633 1015 b 647 893 633 928 637 908 b 365 138 588 655 458 335 l 341 144 b 296 897 347 367 320 745 b 199 1006 285 971 248 1006 b 116 922 151 1006 116 970 b 165 835 116 885 136 856 b 215 166 187 648 210 325 b 335 -18 220 43 262 -18 z "},"W":{"ha":861,"x_min":0,"x_max":0,"o":"m 151 -17 b 259 88 201 -17 232 16 b 412 578 313 227 376 442 l 433 568 b 451 121 442 451 449 244 b 535 -1 454 39 481 -1 b 648 133 582 -1 619 29 b 799 933 697 309 778 771 b 742 1039 809 998 792 1039 b 672 951 700 1039 681 1009 b 555 289 646 785 597 503 l 532 298 b 518 697 533 441 530 588 b 435 798 510 761 486 798 b 338 685 392 798 363 773 b 202 244 307 578 264 423 l 179 253 b 228 885 208 427 228 713 b 140 1022 228 958 206 1022 b 56 932 94 1022 56 989 b 102 838 56 892 72 853 b 63 122 105 640 80 296 b 151 -17 55 41 84 -17 z "},"Ẃ":{"ha":861,"x_min":0,"x_max":0,"o":"m 151 -17 b 259 88 201 -17 232 16 b 412 578 313 227 376 442 l 433 568 b 451 121 442 451 449 244 b 535 -1 454 39 481 -1 b 648 133 582 -1 619 29 b 799 933 697 309 778 771 b 742 1039 809 998 792 1039 b 672 951 700 1039 681 1009 b 555 289 646 785 597 503 l 532 298 b 518 697 533 441 530 588 b 435 798 510 761 486 798 b 338 685 392 798 363 773 b 202 244 307 578 264 423 l 179 253 b 228 885 208 427 228 713 b 140 1022 228 958 206 1022 b 56 932 94 1022 56 989 b 102 838 56 892 72 853 b 63 122 105 640 80 296 b 151 -17 55 41 84 -17 z m 396 1131 b 401 1208 372 1156 372 1183 b 481 1295 431 1232 460 1264 b 582 1301 506 1337 551 1331 b 588 1208 613 1271 615 1238 b 472 1126 561 1179 514 1145 b 396 1131 448 1115 419 1106 z "},"Ŵ":{"ha":861,"x_min":0,"x_max":0,"o":"m 151 -17 b 259 88 201 -17 232 16 b 412 578 313 227 376 442 l 433 568 b 451 121 442 451 449 244 b 535 -1 454 39 481 -1 b 648 133 582 -1 619 29 b 799 933 697 309 778 771 b 742 1039 809 998 792 1039 b 672 951 700 1039 681 1009 b 555 289 646 785 597 503 l 532 298 b 518 697 533 441 530 588 b 435 798 510 761 486 798 b 338 685 392 798 363 773 b 202 244 307 578 264 423 l 179 253 b 228 885 208 427 228 713 b 140 1022 228 958 206 1022 b 56 932 94 1022 56 989 b 102 838 56 892 72 853 b 63 122 105 640 80 296 b 151 -17 55 41 84 -17 z m 193 1139 b 305 1139 219 1115 264 1119 b 450 1242 347 1159 404 1199 b 548 1147 486 1213 515 1185 b 628 1137 574 1118 605 1117 b 632 1213 649 1156 655 1184 b 515 1318 598 1258 562 1289 b 376 1313 471 1344 417 1349 b 282 1241 349 1286 318 1262 b 192 1231 257 1258 217 1257 b 193 1139 165 1202 170 1159 z "},"Ẅ":{"ha":861,"x_min":0,"x_max":0,"o":"m 151 -17 b 259 88 201 -17 232 16 b 412 578 313 227 376 442 l 433 568 b 451 121 442 451 449 244 b 535 -1 454 39 481 -1 b 648 133 582 -1 619 29 b 799 933 697 309 778 771 b 742 1039 809 998 792 1039 b 672 951 700 1039 681 1009 b 555 289 646 785 597 503 l 532 298 b 518 697 533 441 530 588 b 435 798 510 761 486 798 b 338 685 392 798 363 773 b 202 244 307 578 264 423 l 179 253 b 228 885 208 427 228 713 b 140 1022 228 958 206 1022 b 56 932 94 1022 56 989 b 102 838 56 892 72 853 b 63 122 105 640 80 296 b 151 -17 55 41 84 -17 z m 250 1130 b 347 1228 296 1130 347 1167 b 247 1322 347 1285 301 1322 b 146 1228 194 1322 146 1285 b 191 1166 146 1190 163 1167 b 250 1130 203 1143 226 1130 z m 506 1214 b 608 1126 506 1165 546 1126 b 715 1227 675 1126 715 1172 b 615 1330 715 1282 676 1330 b 548 1282 578 1330 553 1312 b 506 1214 522 1269 506 1246 z "},"Ẁ":{"ha":861,"x_min":0,"x_max":0,"o":"m 151 -17 b 259 88 201 -17 232 16 b 412 578 313 227 376 442 l 433 568 b 451 121 442 451 449 244 b 535 -1 454 39 481 -1 b 648 133 582 -1 619 29 b 799 933 697 309 778 771 b 742 1039 809 998 792 1039 b 672 951 700 1039 681 1009 b 555 289 646 785 597 503 l 532 298 b 518 697 533 441 530 588 b 435 798 510 761 486 798 b 338 685 392 798 363 773 b 202 244 307 578 264 423 l 179 253 b 228 885 208 427 228 713 b 140 1022 228 958 206 1022 b 56 932 94 1022 56 989 b 102 838 56 892 72 853 b 63 122 105 640 80 296 b 151 -17 55 41 84 -17 z m 466 1131 b 460 1208 490 1156 490 1183 b 381 1295 431 1232 401 1264 b 280 1301 355 1337 310 1331 b 274 1208 249 1271 246 1238 b 389 1126 300 1179 348 1145 b 466 1131 413 1115 442 1106 z "},"X":{"ha":861,"x_min":0,"x_max":0,"o":"m 113 -4 b 224 33 150 -28 191 -12 b 384 283 250 71 311 167 b 651 18 457 181 547 88 b 772 15 699 -12 742 -24 b 750 119 803 56 785 95 b 467 416 633 200 538 303 b 737 855 567 578 674 752 b 823 950 788 855 823 903 b 744 1031 823 1001 786 1031 b 639 951 705 1031 668 1001 b 393 553 610 901 503 729 b 308 860 346 656 317 763 b 341 931 332 876 341 904 b 259 1019 341 981 311 1019 b 166 907 205 1019 166 976 b 304 413 166 756 215 578 b 113 117 218 276 142 158 b 113 -4 75 60 78 19 z "},"Y":{"ha":861,"x_min":0,"x_max":0,"o":"m 374 -15 b 448 51 412 -15 443 13 l 484 372 b 547 458 505 392 524 422 b 754 855 614 565 705 740 b 783 961 772 897 783 930 b 708 1042 783 1018 749 1042 b 622 956 653 1042 622 1003 b 637 903 622 937 627 917 b 435 499 574 767 499 619 l 411 506 b 272 926 370 626 308 808 b 181 1017 251 993 220 1017 b 103 935 133 1017 103 984 b 155 847 103 895 124 861 b 282 488 197 722 248 577 b 344 369 306 431 324 392 l 307 59 b 374 -15 302 21 334 -15 z "},"Ý":{"ha":861,"x_min":0,"x_max":0,"o":"m 374 -15 b 448 51 412 -15 443 13 l 484 372 b 547 458 505 392 524 422 b 754 855 614 565 705 740 b 783 961 772 897 783 930 b 708 1042 783 1018 749 1042 b 622 956 653 1042 622 1003 b 637 903 622 937 627 917 b 435 499 574 767 499 619 l 411 506 b 272 926 370 626 308 808 b 181 1017 251 993 220 1017 b 103 935 133 1017 103 984 b 155 847 103 895 124 861 b 282 488 197 722 248 577 b 344 369 306 431 324 392 l 307 59 b 374 -15 302 21 334 -15 z m 399 1131 b 405 1208 375 1156 376 1183 b 485 1295 434 1232 464 1264 b 585 1301 510 1337 555 1331 b 592 1208 617 1271 619 1238 b 476 1126 565 1179 517 1145 b 399 1131 451 1115 423 1106 z "},"Ŷ":{"ha":861,"x_min":0,"x_max":0,"o":"m 374 -15 b 448 51 412 -15 443 13 l 484 372 b 547 458 505 392 524 422 b 754 855 614 565 705 740 b 783 961 772 897 783 930 b 708 1042 783 1018 749 1042 b 622 956 653 1042 622 1003 b 637 903 622 937 627 917 b 435 499 574 767 499 619 l 411 506 b 272 926 370 626 308 808 b 181 1017 251 993 220 1017 b 103 935 133 1017 103 984 b 155 847 103 895 124 861 b 282 488 197 722 248 577 b 344 369 306 431 324 392 l 307 59 b 374 -15 302 21 334 -15 z m 197 1139 b 308 1139 223 1115 267 1119 b 453 1242 351 1159 408 1199 b 551 1147 490 1213 519 1185 b 631 1137 577 1118 608 1117 b 635 1213 652 1156 658 1184 b 518 1318 601 1258 565 1289 b 380 1313 474 1344 421 1349 b 285 1241 352 1286 322 1262 b 195 1231 260 1258 221 1257 b 197 1139 169 1202 174 1159 z "},"Ÿ":{"ha":861,"x_min":0,"x_max":0,"o":"m 374 -15 b 448 51 412 -15 443 13 l 484 372 b 547 458 505 392 524 422 b 754 855 614 565 705 740 b 783 961 772 897 783 930 b 708 1042 783 1018 749 1042 b 622 956 653 1042 622 1003 b 637 903 622 937 627 917 b 435 499 574 767 499 619 l 411 506 b 272 926 370 626 308 808 b 181 1017 251 993 220 1017 b 103 935 133 1017 103 984 b 155 847 103 895 124 861 b 282 488 197 722 248 577 b 344 369 306 431 324 392 l 307 59 b 374 -15 302 21 334 -15 z m 253 1130 b 350 1228 299 1130 350 1167 b 250 1322 350 1285 304 1322 b 149 1228 197 1322 149 1285 b 194 1166 149 1190 167 1167 b 253 1130 207 1143 229 1130 z m 509 1214 b 611 1126 509 1165 549 1126 b 719 1227 678 1126 719 1172 b 619 1330 719 1282 679 1330 b 551 1282 582 1330 556 1312 b 509 1214 526 1269 509 1246 z "},"Ỳ":{"ha":861,"x_min":0,"x_max":0,"o":"m 374 -15 b 448 51 412 -15 443 13 l 484 372 b 547 458 505 392 524 422 b 754 855 614 565 705 740 b 783 961 772 897 783 930 b 708 1042 783 1018 749 1042 b 622 956 653 1042 622 1003 b 637 903 622 937 627 917 b 435 499 574 767 499 619 l 411 506 b 272 926 370 626 308 808 b 181 1017 251 993 220 1017 b 103 935 133 1017 103 984 b 155 847 103 895 124 861 b 282 488 197 722 248 577 b 344 369 306 431 324 392 l 307 59 b 374 -15 302 21 334 -15 z m 469 1131 b 463 1208 494 1156 493 1183 b 384 1295 435 1232 404 1264 b 283 1301 358 1337 314 1331 b 277 1208 252 1271 249 1238 b 392 1126 303 1179 351 1145 b 469 1131 417 1115 445 1106 z "},"Ȳ":{"ha":861,"x_min":0,"x_max":0,"o":"m 374 -15 b 448 51 412 -15 443 13 l 484 372 b 547 458 505 392 524 422 b 754 855 614 565 705 740 b 783 961 772 897 783 930 b 708 1042 783 1018 749 1042 b 622 956 653 1042 622 1003 b 637 903 622 937 627 917 b 435 499 574 767 499 619 l 411 506 b 272 926 370 626 308 808 b 181 1017 251 993 220 1017 b 103 935 133 1017 103 984 b 155 847 103 895 124 861 b 282 488 197 722 248 577 b 344 369 306 431 324 392 l 307 59 b 374 -15 302 21 334 -15 z m 260 1185 l 610 1188 b 662 1245 640 1188 663 1210 b 608 1299 661 1279 638 1301 l 259 1284 b 206 1234 228 1283 206 1262 b 260 1185 207 1206 230 1186 z "},"Ỹ":{"ha":861,"x_min":0,"x_max":0,"o":"m 374 -15 b 448 51 412 -15 443 13 l 484 372 b 547 458 505 392 524 422 b 754 855 614 565 705 740 b 783 961 772 897 783 930 b 708 1042 783 1018 749 1042 b 622 956 653 1042 622 1003 b 637 903 622 937 627 917 b 435 499 574 767 499 619 l 411 506 b 272 926 370 626 308 808 b 181 1017 251 993 220 1017 b 103 935 133 1017 103 984 b 155 847 103 895 124 861 b 282 488 197 722 248 577 b 344 369 306 431 324 392 l 307 59 b 374 -15 302 21 334 -15 z m 545 1124 b 699 1242 621 1124 677 1164 b 663 1313 710 1280 699 1303 b 597 1281 626 1324 608 1308 b 531 1225 584 1242 560 1225 b 328 1315 467 1225 439 1315 b 172 1211 257 1315 199 1274 b 208 1134 153 1169 174 1145 b 273 1166 240 1124 258 1137 b 341 1211 286 1194 313 1211 b 545 1124 403 1211 432 1124 z "},"Z":{"ha":861,"x_min":0,"x_max":0,"o":"m 183 -12 b 692 42 273 -12 599 23 b 767 117 738 51 767 74 b 697 180 767 160 735 184 b 236 119 597 165 390 138 l 228 140 b 699 756 299 229 578 597 b 793 940 763 838 793 899 b 685 1024 793 999 745 1024 b 301 976 596 1024 417 988 b 211 1022 285 1003 253 1022 b 118 933 151 1022 118 981 b 236 840 118 878 172 840 b 608 894 303 840 467 860 l 622 878 b 132 248 516 742 213 350 b 60 90 98 206 60 148 b 183 -12 60 30 103 -12 z "},"Ź":{"ha":861,"x_min":0,"x_max":0,"o":"m 183 -12 b 692 42 273 -12 599 23 b 767 117 738 51 767 74 b 697 180 767 160 735 184 b 236 119 597 165 390 138 l 228 140 b 699 756 299 229 578 597 b 793 940 763 838 793 899 b 685 1024 793 999 745 1024 b 301 976 596 1024 417 988 b 211 1022 285 1003 253 1022 b 118 933 151 1022 118 981 b 236 840 118 878 172 840 b 608 894 303 840 467 860 l 622 878 b 132 248 516 742 213 350 b 60 90 98 206 60 148 b 183 -12 60 30 103 -12 z m 424 1131 b 429 1208 399 1156 400 1183 b 509 1295 458 1232 488 1264 b 610 1301 534 1337 579 1331 b 616 1208 641 1271 643 1238 b 500 1126 589 1179 542 1145 b 424 1131 476 1115 447 1106 z "},"Ž":{"ha":861,"x_min":0,"x_max":0,"o":"m 183 -12 b 692 42 273 -12 599 23 b 767 117 738 51 767 74 b 697 180 767 160 735 184 b 236 119 597 165 390 138 l 228 140 b 699 756 299 229 578 597 b 793 940 763 838 793 899 b 685 1024 793 999 745 1024 b 301 976 596 1024 417 988 b 211 1022 285 1003 253 1022 b 118 933 151 1022 118 981 b 236 840 118 878 172 840 b 608 894 303 840 467 860 l 622 878 b 132 248 516 742 213 350 b 60 90 98 206 60 148 b 183 -12 60 30 103 -12 z m 221 1313 b 333 1313 247 1337 292 1333 b 478 1210 375 1292 432 1253 b 576 1304 514 1238 542 1266 b 656 1315 601 1333 633 1335 b 660 1239 676 1297 683 1268 b 542 1133 626 1194 590 1163 b 404 1139 499 1108 445 1102 b 310 1210 376 1165 346 1190 b 219 1222 284 1194 245 1194 b 221 1313 193 1249 198 1292 z "},"Ż":{"ha":861,"x_min":0,"x_max":0,"o":"m 183 -12 b 692 42 273 -12 599 23 b 767 117 738 51 767 74 b 697 180 767 160 735 184 b 236 119 597 165 390 138 l 228 140 b 699 756 299 229 578 597 b 793 940 763 838 793 899 b 685 1024 793 999 745 1024 b 301 976 596 1024 417 988 b 211 1022 285 1003 253 1022 b 118 933 151 1022 118 981 b 236 840 118 878 172 840 b 608 894 303 840 467 860 l 622 878 b 132 248 516 742 213 350 b 60 90 98 206 60 148 b 183 -12 60 30 103 -12 z m 459 1130 b 558 1228 506 1130 558 1167 b 456 1322 558 1285 511 1322 b 353 1228 401 1322 353 1285 b 399 1166 353 1190 371 1167 b 459 1130 412 1143 435 1130 z "},"a":{"ha":861,"x_min":0,"x_max":0,"o":"m 261 -16 b 572 263 376 -16 496 85 l 590 263 b 578 115 583 203 578 151 b 677 -17 578 39 613 -17 b 765 69 729 -17 765 19 b 715 158 765 108 747 145 b 781 631 735 317 760 497 b 730 738 791 699 776 733 b 647 648 684 742 658 709 l 647 642 b 454 723 615 693 535 723 b 64 238 263 723 64 518 b 261 -16 64 59 167 -16 z m 201 260 b 462 597 201 426 322 597 b 512 590 481 597 497 594 b 593 509 522 542 551 509 l 597 509 b 292 113 519 282 381 113 b 201 260 226 113 201 178 z "},"á":{"ha":861,"x_min":0,"x_max":0,"o":"m 261 -16 b 572 263 376 -16 496 85 l 590 263 b 578 115 583 203 578 151 b 677 -17 578 39 613 -17 b 765 69 729 -17 765 19 b 715 158 765 108 747 145 b 781 631 735 317 760 497 b 730 738 791 699 776 733 b 647 648 684 742 658 709 l 647 642 b 454 723 615 693 535 723 b 64 238 263 723 64 518 b 261 -16 64 59 167 -16 z m 477 874 b 464 952 448 892 442 920 b 550 1113 500 1001 529 1059 b 648 1139 565 1160 610 1160 b 674 1041 685 1116 696 1083 b 557 894 647 991 606 939 b 477 874 529 868 506 855 z m 201 260 b 462 597 201 426 322 597 b 512 590 481 597 497 594 b 593 509 522 542 551 509 l 597 509 b 292 113 519 282 381 113 b 201 260 226 113 201 178 z "},"ă":{"ha":861,"x_min":0,"x_max":0,"o":"m 261 -16 b 572 263 376 -16 496 85 l 590 263 b 578 115 583 203 578 151 b 677 -17 578 39 613 -17 b 765 69 729 -17 765 19 b 715 158 765 108 747 145 b 781 631 735 317 760 497 b 730 738 791 699 776 733 b 647 648 684 742 658 709 l 647 642 b 454 723 615 693 535 723 b 64 238 263 723 64 518 b 261 -16 64 59 167 -16 z m 506 879 b 724 1063 635 879 712 946 b 677 1128 730 1103 708 1127 b 618 1076 644 1131 628 1110 b 506 981 606 1015 569 981 b 394 1065 440 981 405 1015 b 334 1118 384 1100 367 1120 b 287 1050 303 1117 281 1093 b 506 879 299 946 373 879 z m 201 260 b 462 597 201 426 322 597 b 512 590 481 597 497 594 b 593 509 522 542 551 509 l 597 509 b 292 113 519 282 381 113 b 201 260 226 113 201 178 z "},"â":{"ha":861,"x_min":0,"x_max":0,"o":"m 261 -16 b 572 263 376 -16 496 85 l 590 263 b 578 115 583 203 578 151 b 677 -17 578 39 613 -17 b 765 69 729 -17 765 19 b 715 158 765 108 747 145 b 781 631 735 317 760 497 b 730 738 791 699 776 733 b 647 648 684 742 658 709 l 647 642 b 454 723 615 693 535 723 b 64 238 263 723 64 518 b 261 -16 64 59 167 -16 z m 255 897 b 362 904 284 871 326 880 b 516 1032 407 933 464 981 b 618 900 554 991 589 943 b 697 894 638 872 672 872 b 701 973 722 915 721 944 b 584 1112 668 1022 627 1074 b 442 1110 542 1147 489 1152 b 335 1016 415 1083 376 1047 b 252 1001 310 1027 276 1026 b 255 897 222 970 228 921 z m 201 260 b 462 597 201 426 322 597 b 512 590 481 597 497 594 b 593 509 522 542 551 509 l 597 509 b 292 113 519 282 381 113 b 201 260 226 113 201 178 z "},"ä":{"ha":861,"x_min":0,"x_max":0,"o":"m 261 -16 b 572 263 376 -16 496 85 l 590 263 b 578 115 583 203 578 151 b 677 -17 578 39 613 -17 b 765 69 729 -17 765 19 b 715 158 765 108 747 145 b 781 631 735 317 760 497 b 730 738 791 699 776 733 b 647 648 684 742 658 709 l 647 642 b 454 723 615 693 535 723 b 64 238 263 723 64 518 b 261 -16 64 59 167 -16 z m 323 873 b 425 985 372 873 425 915 b 319 1092 425 1050 377 1092 b 210 985 262 1092 210 1051 b 259 915 210 942 229 916 b 323 873 272 888 297 873 z m 565 971 b 678 873 565 917 610 873 b 797 985 753 873 797 924 b 686 1099 797 1046 754 1099 b 611 1045 646 1099 617 1080 b 565 971 583 1032 565 1006 z m 201 260 b 462 597 201 426 322 597 b 512 590 481 597 497 594 b 593 509 522 542 551 509 l 597 509 b 292 113 519 282 381 113 b 201 260 226 113 201 178 z "},"à":{"ha":861,"x_min":0,"x_max":0,"o":"m 261 -16 b 572 263 376 -16 496 85 l 590 263 b 578 115 583 203 578 151 b 677 -17 578 39 613 -17 b 765 69 729 -17 765 19 b 715 158 765 108 747 145 b 781 631 735 317 760 497 b 730 738 791 699 776 733 b 647 648 684 742 658 709 l 647 642 b 454 723 615 693 535 723 b 64 238 263 723 64 518 b 261 -16 64 59 167 -16 z m 528 874 b 542 952 558 892 564 920 b 456 1113 506 1001 477 1059 b 358 1139 442 1160 395 1160 b 333 1041 321 1116 310 1083 b 449 894 359 991 400 939 b 528 874 476 868 499 855 z m 201 260 b 462 597 201 426 322 597 b 512 590 481 597 497 594 b 593 509 522 542 551 509 l 597 509 b 292 113 519 282 381 113 b 201 260 226 113 201 178 z "},"ā":{"ha":861,"x_min":0,"x_max":0,"o":"m 261 -16 b 572 263 376 -16 496 85 l 590 263 b 578 115 583 203 578 151 b 677 -17 578 39 613 -17 b 765 69 729 -17 765 19 b 715 158 765 108 747 145 b 781 631 735 317 760 497 b 730 738 791 699 776 733 b 647 648 684 742 658 709 l 647 642 b 454 723 615 693 535 723 b 64 238 263 723 64 518 b 261 -16 64 59 167 -16 z m 329 913 l 678 915 b 731 973 709 915 731 938 b 676 1027 730 1007 707 1028 l 328 1012 b 275 962 297 1010 275 990 b 329 913 276 934 299 914 z m 201 260 b 462 597 201 426 322 597 b 512 590 481 597 497 594 b 593 509 522 542 551 509 l 597 509 b 292 113 519 282 381 113 b 201 260 226 113 201 178 z "},"ą":{"ha":861,"x_min":0,"x_max":0,"o":"m 261 -16 b 572 263 376 -16 496 85 l 590 263 b 578 115 583 203 578 151 b 619 3 578 67 592 26 b 495 -169 533 -59 495 -113 b 649 -296 495 -235 540 -290 b 726 -250 697 -299 719 -281 b 687 -195 731 -221 716 -201 b 628 -135 651 -187 628 -171 b 719 -8 628 -90 664 -51 b 765 69 748 6 765 34 b 715 158 765 108 747 145 b 781 631 735 317 760 497 b 730 738 791 699 776 733 b 647 648 684 742 658 709 l 647 642 b 454 723 615 693 535 723 b 64 238 263 723 64 518 b 261 -16 64 59 167 -16 z m 201 260 b 462 597 201 426 322 597 b 512 590 481 597 497 594 b 593 509 522 542 551 509 l 597 509 b 292 113 519 282 381 113 b 201 260 226 113 201 178 z "},"å":{"ha":861,"x_min":0,"x_max":0,"o":"m 261 -16 b 572 263 376 -16 496 85 l 590 263 b 578 115 583 203 578 151 b 677 -17 578 39 613 -17 b 765 69 729 -17 765 19 b 715 158 765 108 747 145 b 781 631 735 317 760 497 b 730 738 791 699 776 733 b 647 648 684 742 658 709 l 647 642 b 454 723 615 693 535 723 b 64 238 263 723 64 518 b 261 -16 64 59 167 -16 z m 482 841 b 667 1010 592 841 667 915 b 626 1117 667 1063 647 1097 l 628 1120 b 620 1174 639 1138 636 1161 b 519 1203 597 1193 556 1203 b 324 999 403 1203 324 1109 b 482 841 324 894 400 841 z m 201 260 b 462 597 201 426 322 597 b 512 590 481 597 497 594 b 593 509 522 542 551 509 l 597 509 b 292 113 519 282 381 113 b 201 260 226 113 201 178 z m 419 1008 b 519 1113 419 1058 460 1113 b 547 1108 530 1113 539 1110 b 553 1054 534 1089 542 1067 b 574 1001 565 1043 576 1025 b 489 931 573 963 542 931 b 419 1008 449 931 419 960 z "},"ã":{"ha":861,"x_min":0,"x_max":0,"o":"m 261 -16 b 572 263 376 -16 496 85 l 590 263 b 578 115 583 203 578 151 b 677 -17 578 39 613 -17 b 765 69 729 -17 765 19 b 715 158 765 108 747 145 b 781 631 735 317 760 497 b 730 738 791 699 776 733 b 647 648 684 742 658 709 l 647 642 b 454 723 615 693 535 723 b 64 238 263 723 64 518 b 261 -16 64 59 167 -16 z m 614 871 b 767 1027 690 871 743 926 b 729 1096 776 1063 761 1088 b 656 1053 692 1106 670 1088 b 595 990 642 1015 624 990 b 392 1092 533 990 501 1092 b 237 983 319 1092 263 1047 b 273 901 219 941 237 911 b 343 938 306 891 326 903 b 406 983 356 967 378 983 b 614 871 469 983 501 871 z m 201 260 b 462 597 201 426 322 597 b 512 590 481 597 497 594 b 593 509 522 542 551 509 l 597 509 b 292 113 519 282 381 113 b 201 260 226 113 201 178 z "},"æ":{"ha":861,"x_min":0,"x_max":0,"o":"m 578 -17 b 778 87 664 -17 738 35 b 781 172 799 114 802 144 b 714 171 762 197 733 190 b 593 103 674 131 634 103 b 491 278 528 103 496 173 b 715 349 554 294 657 323 b 813 517 788 378 813 415 b 646 740 813 643 757 740 b 515 686 594 740 551 719 b 470 737 512 719 495 735 b 409 669 438 739 413 714 l 408 663 b 294 723 383 701 338 723 b 38 252 159 723 38 525 b 174 -16 38 59 103 -16 b 376 263 252 -16 331 85 l 385 263 b 578 -17 391 92 467 -17 z m 151 261 b 298 599 151 433 217 599 b 323 594 308 599 316 597 b 376 515 328 542 346 517 b 203 120 328 296 263 120 b 151 261 165 120 151 185 z m 497 393 b 638 622 515 511 567 622 b 710 526 688 622 710 576 b 658 443 710 481 699 458 b 497 393 608 424 549 407 z "},"ǽ":{"ha":861,"x_min":0,"x_max":0,"o":"m 578 -17 b 778 87 664 -17 738 35 b 781 172 799 114 802 144 b 714 171 762 197 733 190 b 593 103 674 131 634 103 b 491 278 528 103 496 173 b 715 349 554 294 657 323 b 813 517 788 378 813 415 b 646 740 813 643 757 740 b 515 686 594 740 551 719 b 470 737 512 719 495 735 b 409 669 438 739 413 714 l 408 663 b 294 723 383 701 338 723 b 38 252 159 723 38 525 b 174 -16 38 59 103 -16 b 376 263 252 -16 331 85 l 385 263 b 578 -17 391 92 467 -17 z m 405 874 b 392 952 376 892 369 920 b 478 1113 428 1001 457 1059 b 576 1139 492 1160 538 1160 b 601 1041 613 1116 624 1083 b 485 894 574 991 534 939 b 405 874 457 868 434 855 z m 151 261 b 298 599 151 433 217 599 b 323 594 308 599 316 597 b 376 515 328 542 346 517 b 203 120 328 296 263 120 b 151 261 165 120 151 185 z m 497 393 b 638 622 515 511 567 622 b 710 526 688 622 710 576 b 658 443 710 481 699 458 b 497 393 608 424 549 407 z "},"b":{"ha":861,"x_min":0,"x_max":0,"o":"m 401 -16 b 789 467 588 -16 789 176 b 592 723 789 651 692 723 b 281 447 476 723 357 624 l 262 447 b 317 949 291 660 317 883 b 228 1069 317 1042 276 1069 b 133 963 177 1069 133 1028 b 170 872 133 925 147 890 b 71 81 153 663 97 263 b 124 -19 63 21 76 -16 b 203 65 170 -22 193 15 b 401 -16 236 13 321 -16 z m 256 199 b 564 594 333 426 470 594 b 653 452 630 594 653 532 b 398 110 653 285 537 110 b 339 119 376 110 356 114 b 263 199 332 170 308 199 z "},"c":{"ha":861,"x_min":0,"x_max":0,"o":"m 433 -16 b 718 86 551 -16 657 31 b 724 182 751 116 750 157 b 629 180 694 211 666 206 b 442 113 578 142 509 113 b 265 315 330 113 265 203 b 503 621 265 468 368 621 b 584 517 578 621 601 572 b 616 424 569 476 580 438 b 714 476 653 410 690 431 b 503 742 762 577 701 742 b 123 308 278 742 123 541 b 433 -16 123 105 249 -16 z "},"ć":{"ha":861,"x_min":0,"x_max":0,"o":"m 433 -16 b 718 86 551 -16 657 31 b 724 182 751 116 750 157 b 629 180 694 211 666 206 b 442 113 578 142 509 113 b 265 315 330 113 265 203 b 503 621 265 468 368 621 b 584 517 578 621 601 572 b 616 424 569 476 580 438 b 714 476 653 410 690 431 b 503 742 762 577 701 742 b 123 308 278 742 123 541 b 433 -16 123 105 249 -16 z m 494 874 b 481 952 465 892 458 920 b 567 1113 517 1001 546 1059 b 665 1139 581 1160 627 1160 b 690 1041 701 1116 713 1083 b 574 894 663 991 623 939 b 494 874 546 868 523 855 z "},"č":{"ha":861,"x_min":0,"x_max":0,"o":"m 433 -16 b 718 86 551 -16 657 31 b 724 182 751 116 750 157 b 629 180 694 211 666 206 b 442 113 578 142 509 113 b 265 315 330 113 265 203 b 503 621 265 468 368 621 b 584 517 578 621 601 572 b 616 424 569 476 580 438 b 714 476 653 410 690 431 b 503 742 762 577 701 742 b 123 308 278 742 123 541 b 433 -16 123 105 249 -16 z m 281 1113 b 388 1106 310 1140 352 1131 b 542 978 433 1077 490 1028 b 644 1110 580 1019 615 1067 b 723 1117 665 1139 699 1139 b 727 1038 747 1095 747 1066 b 610 899 694 989 653 936 b 468 900 567 863 515 858 b 360 994 441 927 402 963 b 278 1009 335 983 301 985 b 281 1113 248 1040 254 1090 z "},"ç":{"ha":861,"x_min":0,"x_max":0,"o":"m 123 308 b 354 -8 123 135 215 22 l 352 -14 b 296 -133 339 -53 315 -100 b 337 -232 267 -182 296 -219 b 428 -183 378 -245 414 -232 b 458 -44 444 -135 453 -91 b 458 -15 459 -33 459 -24 b 718 86 566 -9 661 35 b 724 182 751 116 750 157 b 629 180 694 211 666 206 b 442 113 578 142 509 113 b 265 315 330 113 265 203 b 503 621 265 468 368 621 b 584 517 578 621 601 572 b 616 424 569 476 580 438 b 714 476 653 410 690 431 b 503 742 762 577 701 742 b 123 308 278 742 123 541 z "},"ĉ":{"ha":861,"x_min":0,"x_max":0,"o":"m 433 -16 b 718 86 551 -16 657 31 b 724 182 751 116 750 157 b 629 180 694 211 666 206 b 442 113 578 142 509 113 b 265 315 330 113 265 203 b 503 621 265 468 368 621 b 584 517 578 621 601 572 b 616 424 569 476 580 438 b 714 476 653 410 690 431 b 503 742 762 577 701 742 b 123 308 278 742 123 541 b 433 -16 123 105 249 -16 z m 272 897 b 378 904 301 871 343 880 b 533 1032 424 933 481 981 b 635 900 571 991 606 943 b 713 894 655 872 689 872 b 717 973 738 915 738 944 b 601 1112 685 1022 644 1074 b 458 1110 558 1147 506 1152 b 351 1016 431 1083 392 1047 b 269 1001 326 1027 292 1026 b 272 897 239 970 245 921 z "},"ċ":{"ha":861,"x_min":0,"x_max":0,"o":"m 433 -16 b 718 86 551 -16 657 31 b 724 182 751 116 750 157 b 629 180 694 211 666 206 b 442 113 578 142 509 113 b 265 315 330 113 265 203 b 503 621 265 468 368 621 b 584 517 578 621 601 572 b 616 424 569 476 580 438 b 714 476 653 410 690 431 b 503 742 762 577 701 742 b 123 308 278 742 123 541 b 433 -16 123 105 249 -16 z m 523 874 b 634 987 576 874 634 917 b 518 1094 634 1052 582 1094 b 401 986 456 1094 401 1053 b 453 916 401 944 420 917 b 523 874 467 890 494 874 z "},"d":{"ha":861,"x_min":0,"x_max":0,"o":"m 265 -16 b 572 263 376 -16 496 85 l 593 263 b 584 124 588 208 584 161 b 678 -17 584 43 610 -17 b 769 81 731 -17 769 21 b 719 163 769 117 755 152 b 806 943 742 393 806 783 b 719 1063 806 1027 772 1063 b 620 956 666 1063 620 1027 b 660 856 620 915 632 876 b 641 656 656 797 649 728 b 463 723 605 699 533 723 b 64 240 271 723 64 531 b 265 -16 64 57 165 -16 z m 199 261 b 463 599 199 427 314 599 b 514 590 481 599 498 596 b 590 509 520 538 544 509 l 598 509 b 290 110 520 282 389 110 b 199 261 228 110 199 174 z "},"ď":{"ha":861,"x_min":0,"x_max":0,"o":"m 231 -16 b 477 263 329 -16 414 102 l 494 263 b 485 124 489 208 485 161 b 574 -17 485 43 511 -17 b 660 74 623 -17 660 19 b 610 163 660 114 646 151 b 701 943 636 397 701 797 b 622 1063 701 1027 671 1063 b 531 956 571 1063 531 1028 b 564 862 531 917 541 882 b 544 663 560 803 553 734 b 398 723 513 701 456 723 b 64 252 215 723 64 521 b 231 -16 64 54 145 -16 z m 871 899 b 928 949 902 894 917 914 b 957 1088 942 993 953 1037 b 899 1167 963 1134 938 1162 b 828 1099 861 1173 824 1155 b 829 966 831 1060 833 1008 b 871 899 825 928 840 903 z m 198 256 b 391 597 198 433 289 597 b 418 593 401 597 410 596 b 494 509 424 539 448 509 l 503 510 b 266 113 430 282 338 113 b 198 256 216 113 198 181 z "},"đ":{"ha":861,"x_min":0,"x_max":0,"o":"m 261 -16 b 572 263 376 -16 496 85 l 589 263 b 580 124 583 208 580 161 b 680 -17 580 43 606 -17 b 765 74 728 -17 765 19 b 715 163 765 114 751 151 b 794 779 731 333 773 594 l 797 779 b 855 843 836 781 856 810 b 805 898 854 870 836 894 l 806 943 b 725 1063 806 1027 775 1063 b 626 956 675 1063 626 1028 b 636 894 626 933 629 913 l 396 888 b 333 828 357 887 332 860 b 400 771 334 797 358 769 l 652 781 b 635 623 648 731 642 678 b 458 685 595 663 523 685 b 64 233 249 685 64 489 b 261 -16 64 53 165 -16 z m 199 247 b 458 559 199 403 314 559 b 514 551 480 559 498 556 b 590 471 521 499 544 471 l 591 471 b 288 113 512 264 380 113 b 199 247 228 113 199 170 z "},"ð":{"ha":861,"x_min":0,"x_max":0,"o":"m 408 -16 b 765 392 615 -16 765 159 b 540 885 765 555 688 734 l 647 938 b 673 1027 686 958 690 998 b 586 1048 658 1053 624 1067 l 438 975 b 342 1042 408 999 376 1021 b 224 1032 295 1073 249 1074 b 280 915 199 988 231 944 l 295 906 l 214 866 b 184 785 180 849 169 813 b 269 761 200 757 233 744 l 405 827 b 517 704 448 790 485 748 l 499 705 b 108 298 288 705 108 533 b 408 -16 108 106 237 -16 z m 249 310 b 506 582 249 451 357 582 b 597 558 544 582 572 570 b 633 389 621 499 633 441 b 419 109 633 241 538 109 b 249 310 315 109 249 202 z "},"e":{"ha":861,"x_min":0,"x_max":0,"o":"m 416 -17 b 699 87 540 -17 643 35 b 701 178 728 114 730 150 b 614 173 669 208 644 196 b 421 108 558 132 495 108 b 260 275 320 108 269 172 b 613 349 384 298 549 331 b 751 511 716 376 751 417 b 506 740 751 644 663 740 b 128 376 290 740 160 565 l 110 374 b 47 303 65 367 42 340 b 121 251 50 269 77 247 b 416 -17 134 88 251 -17 z m 270 399 b 510 616 299 513 384 616 b 626 524 592 616 626 574 b 553 452 626 492 610 465 b 270 399 494 438 374 417 z "},"é":{"ha":861,"x_min":0,"x_max":0,"o":"m 416 -17 b 699 87 540 -17 643 35 b 701 178 728 114 730 150 b 614 173 669 208 644 196 b 421 108 558 132 495 108 b 260 275 320 108 269 172 b 613 349 384 298 549 331 b 751 511 716 376 751 417 b 506 740 751 644 663 740 b 128 376 290 740 160 565 l 110 374 b 47 303 65 367 42 340 b 121 251 50 269 77 247 b 416 -17 134 88 251 -17 z m 485 874 b 472 952 456 892 450 920 b 558 1113 508 1001 538 1059 b 656 1139 573 1160 619 1160 b 682 1041 693 1116 704 1083 b 565 894 655 991 615 939 b 485 874 538 868 515 855 z m 270 399 b 510 616 299 513 384 616 b 626 524 592 616 626 574 b 553 452 626 492 610 465 b 270 399 494 438 374 417 z "},"ĕ":{"ha":861,"x_min":0,"x_max":0,"o":"m 416 -17 b 699 87 540 -17 643 35 b 701 178 728 114 730 150 b 614 173 669 208 644 196 b 421 108 558 132 495 108 b 260 275 320 108 269 172 b 613 349 384 298 549 331 b 751 511 716 376 751 417 b 506 740 751 644 663 740 b 128 376 290 740 160 565 l 110 374 b 47 303 65 367 42 340 b 121 251 50 269 77 247 b 416 -17 134 88 251 -17 z m 514 879 b 733 1063 643 879 720 946 b 685 1128 738 1103 717 1127 b 626 1076 653 1131 636 1110 b 514 981 615 1015 577 981 b 402 1065 448 981 413 1015 b 342 1118 392 1100 375 1120 b 295 1050 311 1117 289 1093 b 514 879 307 946 381 879 z m 270 399 b 510 616 299 513 384 616 b 626 524 592 616 626 574 b 553 452 626 492 610 465 b 270 399 494 438 374 417 z "},"ě":{"ha":861,"x_min":0,"x_max":0,"o":"m 416 -17 b 699 87 540 -17 643 35 b 701 178 728 114 730 150 b 614 173 669 208 644 196 b 421 108 558 132 495 108 b 260 275 320 108 269 172 b 613 349 384 298 549 331 b 751 511 716 376 751 417 b 506 740 751 644 663 740 b 128 376 290 740 160 565 l 110 374 b 47 303 65 367 42 340 b 121 251 50 269 77 247 b 416 -17 134 88 251 -17 z m 272 1113 b 380 1106 301 1140 344 1131 b 533 978 424 1077 481 1028 b 635 1110 572 1019 606 1067 b 715 1117 656 1139 690 1139 b 719 1038 739 1095 738 1066 b 602 899 686 989 645 936 b 460 900 559 863 506 858 b 352 994 433 927 394 963 b 269 1009 327 983 293 985 b 272 1113 240 1040 246 1090 z m 270 399 b 510 616 299 513 384 616 b 626 524 592 616 626 574 b 553 452 626 492 610 465 b 270 399 494 438 374 417 z "},"ê":{"ha":861,"x_min":0,"x_max":0,"o":"m 416 -17 b 699 87 540 -17 643 35 b 701 178 728 114 730 150 b 614 173 669 208 644 196 b 421 108 558 132 495 108 b 260 275 320 108 269 172 b 613 349 384 298 549 331 b 751 511 716 376 751 417 b 506 740 751 644 663 740 b 128 376 290 740 160 565 l 110 374 b 47 303 65 367 42 340 b 121 251 50 269 77 247 b 416 -17 134 88 251 -17 z m 263 897 b 370 904 292 871 335 880 b 524 1032 415 933 472 981 b 626 900 563 991 597 943 b 705 894 647 872 681 872 b 709 973 730 915 729 944 b 592 1112 676 1022 635 1074 b 450 1110 550 1147 497 1152 b 343 1016 423 1083 384 1047 b 260 1001 318 1027 284 1026 b 263 897 231 970 237 921 z m 270 399 b 510 616 299 513 384 616 b 626 524 592 616 626 574 b 553 452 626 492 610 465 b 270 399 494 438 374 417 z "},"ë":{"ha":861,"x_min":0,"x_max":0,"o":"m 416 -17 b 699 87 540 -17 643 35 b 701 178 728 114 730 150 b 614 173 669 208 644 196 b 421 108 558 132 495 108 b 260 275 320 108 269 172 b 613 349 384 298 549 331 b 751 511 716 376 751 417 b 506 740 751 644 663 740 b 128 376 290 740 160 565 l 110 374 b 47 303 65 367 42 340 b 121 251 50 269 77 247 b 416 -17 134 88 251 -17 z m 331 873 b 433 985 380 873 433 915 b 327 1092 433 1050 385 1092 b 219 985 270 1092 219 1051 b 267 915 219 942 238 916 b 331 873 281 888 305 873 z m 574 971 b 687 873 574 917 618 873 b 806 985 761 873 806 924 b 694 1099 806 1046 763 1099 b 619 1045 654 1099 625 1080 b 574 971 592 1032 574 1006 z m 270 399 b 510 616 299 513 384 616 b 626 524 592 616 626 574 b 553 452 626 492 610 465 b 270 399 494 438 374 417 z "},"ė":{"ha":861,"x_min":0,"x_max":0,"o":"m 416 -17 b 699 87 540 -17 643 35 b 701 178 728 114 730 150 b 614 173 669 208 644 196 b 421 108 558 132 495 108 b 260 275 320 108 269 172 b 613 349 384 298 549 331 b 751 511 716 376 751 417 b 506 740 751 644 663 740 b 128 376 290 740 160 565 l 110 374 b 47 303 65 367 42 340 b 121 251 50 269 77 247 b 416 -17 134 88 251 -17 z m 515 874 b 626 987 567 874 626 917 b 510 1094 626 1052 574 1094 b 392 986 448 1094 392 1053 b 445 916 392 944 412 917 b 515 874 459 890 486 874 z m 270 399 b 510 616 299 513 384 616 b 626 524 592 616 626 574 b 553 452 626 492 610 465 b 270 399 494 438 374 417 z "},"ẹ":{"ha":861,"x_min":0,"x_max":0,"o":"m 416 -17 b 699 87 540 -17 643 35 b 701 178 728 114 730 150 b 614 173 669 208 644 196 b 421 108 558 132 495 108 b 260 275 320 108 269 172 b 613 349 384 298 549 331 b 751 511 716 376 751 417 b 506 740 751 644 663 740 b 128 376 290 740 160 565 l 110 374 b 47 303 65 367 42 340 b 121 251 50 269 77 247 b 416 -17 134 88 251 -17 z m 408 -369 b 519 -256 461 -369 519 -327 b 403 -150 519 -192 467 -150 b 286 -257 342 -150 286 -191 b 339 -328 286 -300 306 -326 b 408 -369 353 -353 380 -369 z m 270 399 b 510 616 299 513 384 616 b 626 524 592 616 626 574 b 553 452 626 492 610 465 b 270 399 494 438 374 417 z "},"è":{"ha":861,"x_min":0,"x_max":0,"o":"m 416 -17 b 699 87 540 -17 643 35 b 701 178 728 114 730 150 b 614 173 669 208 644 196 b 421 108 558 132 495 108 b 260 275 320 108 269 172 b 613 349 384 298 549 331 b 751 511 716 376 751 417 b 506 740 751 644 663 740 b 128 376 290 740 160 565 l 110 374 b 47 303 65 367 42 340 b 121 251 50 269 77 247 b 416 -17 134 88 251 -17 z m 537 874 b 551 952 566 892 572 920 b 465 1113 515 1001 485 1059 b 367 1139 450 1160 403 1160 b 341 1041 329 1116 319 1083 b 457 894 367 991 408 939 b 537 874 485 868 508 855 z m 270 399 b 510 616 299 513 384 616 b 626 524 592 616 626 574 b 553 452 626 492 610 465 b 270 399 494 438 374 417 z "},"ē":{"ha":861,"x_min":0,"x_max":0,"o":"m 416 -17 b 699 87 540 -17 643 35 b 701 178 728 114 730 150 b 614 173 669 208 644 196 b 421 108 558 132 495 108 b 260 275 320 108 269 172 b 613 349 384 298 549 331 b 751 511 716 376 751 417 b 506 740 751 644 663 740 b 128 376 290 740 160 565 l 110 374 b 47 303 65 367 42 340 b 121 251 50 269 77 247 b 416 -17 134 88 251 -17 z m 338 913 l 687 915 b 739 973 717 915 740 938 b 685 1027 738 1007 715 1028 l 336 1012 b 283 962 306 1010 283 990 b 338 913 284 934 307 914 z m 270 399 b 510 616 299 513 384 616 b 626 524 592 616 626 574 b 553 452 626 492 610 465 b 270 399 494 438 374 417 z "},"ę":{"ha":861,"x_min":0,"x_max":0,"o":"m 457 -296 b 535 -250 506 -299 528 -281 b 496 -195 540 -221 524 -201 b 437 -135 460 -187 437 -171 b 538 0 437 -87 476 -47 b 699 87 606 19 663 53 b 701 178 728 114 730 150 b 614 173 669 208 644 196 b 421 108 558 132 495 108 b 260 275 320 108 269 172 b 613 349 384 298 549 331 b 751 511 716 376 751 417 b 506 740 751 644 663 740 b 128 376 290 740 160 565 l 110 374 b 47 303 65 367 42 340 b 121 251 50 269 77 247 b 401 -17 133 93 244 -10 b 304 -169 334 -71 304 -119 b 457 -296 304 -235 349 -290 z m 270 399 b 510 616 299 513 384 616 b 626 524 592 616 626 574 b 553 452 626 492 610 465 b 270 399 494 438 374 417 z "},"ẽ":{"ha":861,"x_min":0,"x_max":0,"o":"m 416 -17 b 699 87 540 -17 643 35 b 701 178 728 114 730 150 b 614 173 669 208 644 196 b 421 108 558 132 495 108 b 260 275 320 108 269 172 b 613 349 384 298 549 331 b 751 511 716 376 751 417 b 506 740 751 644 663 740 b 128 376 290 740 160 565 l 110 374 b 47 303 65 367 42 340 b 121 251 50 269 77 247 b 416 -17 134 88 251 -17 z m 622 871 b 776 1027 698 871 751 926 b 738 1096 785 1063 769 1088 b 664 1053 701 1106 678 1088 b 603 990 651 1015 632 990 b 400 1092 541 990 510 1092 b 245 983 328 1092 272 1047 b 281 901 228 941 245 911 b 351 938 314 891 335 903 b 415 983 365 967 387 983 b 622 871 477 983 510 871 z m 270 399 b 510 616 299 513 384 616 b 626 524 592 616 626 574 b 553 452 626 492 610 465 b 270 399 494 438 374 417 z "},"ə":{"ha":861,"x_min":0,"x_max":0,"o":"m 446 740 b 163 637 322 740 219 688 b 160 546 133 610 131 573 b 248 550 192 516 217 528 b 441 615 303 592 367 615 b 601 448 542 615 592 551 b 249 375 477 426 313 393 b 110 213 146 347 110 307 b 356 -17 110 78 198 -17 b 734 347 572 -17 702 158 l 752 350 b 815 419 797 356 819 383 b 741 472 811 454 784 476 b 446 740 728 635 611 740 z m 235 199 b 309 271 235 232 251 258 b 591 324 368 285 488 306 b 351 107 562 210 477 107 b 235 199 269 107 235 149 z "},"f":{"ha":861,"x_min":0,"x_max":0,"o":"m 259 -24 b 325 67 308 -24 325 13 b 340 345 325 159 331 253 l 658 382 b 719 459 696 386 724 420 b 643 521 716 497 681 525 l 356 487 b 385 659 365 549 375 607 b 594 956 417 821 479 956 b 694 894 643 956 678 933 b 649 806 663 876 649 840 b 727 724 649 762 679 724 b 817 856 784 724 817 778 b 587 1079 817 953 751 1079 b 251 666 401 1079 303 921 b 219 471 239 606 228 540 l 119 459 b 58 383 82 455 54 421 b 133 321 62 344 96 316 l 203 329 b 190 68 195 242 190 153 b 259 -24 190 14 210 -24 z "},"g":{"ha":861,"x_min":0,"x_max":0,"o":"m 353 -296 b 700 54 551 -296 658 -144 b 781 638 733 216 775 517 b 720 738 787 703 766 738 b 647 656 672 738 656 710 b 462 723 606 698 529 723 b 82 296 242 723 82 525 b 281 51 82 124 190 51 b 579 276 381 51 499 117 l 599 276 b 560 65 586 195 572 119 b 351 -166 522 -98 438 -166 b 199 -104 291 -166 241 -137 b 99 -106 163 -78 124 -74 b 105 -205 72 -141 76 -176 b 353 -296 159 -257 245 -296 z m 219 313 b 465 599 219 458 317 599 b 524 589 485 599 506 595 b 594 501 527 538 556 506 b 309 176 508 285 386 176 b 219 313 244 176 219 238 z "},"ğ":{"ha":861,"x_min":0,"x_max":0,"o":"m 353 -296 b 700 54 551 -296 658 -144 b 781 638 733 216 775 517 b 720 738 787 703 766 738 b 647 656 672 738 656 710 b 462 723 606 698 529 723 b 82 296 242 723 82 525 b 281 51 82 124 190 51 b 579 276 381 51 499 117 l 599 276 b 560 65 586 195 572 119 b 351 -166 522 -98 438 -166 b 199 -104 291 -166 241 -137 b 99 -106 163 -78 124 -74 b 105 -205 72 -141 76 -176 b 353 -296 159 -257 245 -296 z m 473 879 b 692 1063 602 879 679 946 b 644 1128 697 1103 676 1127 b 585 1076 612 1131 595 1110 b 473 981 574 1015 536 981 b 361 1065 407 981 372 1015 b 301 1118 351 1100 334 1120 b 254 1050 270 1117 248 1093 b 473 879 266 946 340 879 z m 219 313 b 465 599 219 458 317 599 b 524 589 485 599 506 595 b 594 501 527 538 556 506 b 309 176 508 285 386 176 b 219 313 244 176 219 238 z "},"ǧ":{"ha":861,"x_min":0,"x_max":0,"o":"m 353 -296 b 700 54 551 -296 658 -144 b 781 638 733 216 775 517 b 720 738 787 703 766 738 b 647 656 672 738 656 710 b 462 723 606 698 529 723 b 82 296 242 723 82 525 b 281 51 82 124 190 51 b 579 276 381 51 499 117 l 599 276 b 560 65 586 195 572 119 b 351 -166 522 -98 438 -166 b 199 -104 291 -166 241 -137 b 99 -106 163 -78 124 -74 b 105 -205 72 -141 76 -176 b 353 -296 159 -257 245 -296 z m 231 1113 b 339 1106 260 1140 303 1131 b 492 978 383 1077 440 1028 b 594 1110 531 1019 565 1067 b 674 1117 615 1139 649 1139 b 678 1038 698 1095 697 1066 b 561 899 645 989 604 936 b 419 900 518 863 465 858 b 311 994 392 927 353 963 b 228 1009 286 983 252 985 b 231 1113 199 1040 205 1090 z m 219 313 b 465 599 219 458 317 599 b 524 589 485 599 506 595 b 594 501 527 538 556 506 b 309 176 508 285 386 176 b 219 313 244 176 219 238 z "},"ĝ":{"ha":861,"x_min":0,"x_max":0,"o":"m 353 -296 b 700 54 551 -296 658 -144 b 781 638 733 216 775 517 b 720 738 787 703 766 738 b 647 656 672 738 656 710 b 462 723 606 698 529 723 b 82 296 242 723 82 525 b 281 51 82 124 190 51 b 579 276 381 51 499 117 l 599 276 b 560 65 586 195 572 119 b 351 -166 522 -98 438 -166 b 199 -104 291 -166 241 -137 b 99 -106 163 -78 124 -74 b 105 -205 72 -141 76 -176 b 353 -296 159 -257 245 -296 z m 222 897 b 329 904 251 871 294 880 b 483 1032 374 933 431 981 b 585 900 522 991 556 943 b 664 894 606 872 640 872 b 668 973 689 915 688 944 b 551 1112 635 1022 594 1074 b 409 1110 509 1147 456 1152 b 302 1016 382 1083 343 1047 b 219 1001 277 1027 243 1026 b 222 897 190 970 196 921 z m 219 313 b 465 599 219 458 317 599 b 524 589 485 599 506 595 b 594 501 527 538 556 506 b 309 176 508 285 386 176 b 219 313 244 176 219 238 z "},"ģ":{"ha":861,"x_min":0,"x_max":0,"o":"m 353 -296 b 700 54 551 -296 658 -144 b 781 638 733 216 775 517 b 720 738 787 703 766 738 b 647 656 672 738 656 710 b 462 723 606 698 529 723 b 82 296 242 723 82 525 b 281 51 82 124 190 51 b 579 276 381 51 499 117 l 599 276 b 560 65 586 195 572 119 b 351 -166 522 -98 438 -166 b 199 -104 291 -166 241 -137 b 99 -106 163 -78 124 -74 b 105 -205 72 -141 76 -176 b 353 -296 159 -257 245 -296 z m 524 1247 b 452 1201 494 1252 470 1233 b 374 975 423 1150 383 1055 b 442 887 368 928 391 894 b 531 957 489 881 533 901 b 563 1178 529 1043 547 1126 b 524 1247 574 1214 556 1242 z m 219 313 b 465 599 219 458 317 599 b 524 589 485 599 506 595 b 594 501 527 538 556 506 b 309 176 508 285 386 176 b 219 313 244 176 219 238 z "},"ġ":{"ha":861,"x_min":0,"x_max":0,"o":"m 353 -296 b 700 54 551 -296 658 -144 b 781 638 733 216 775 517 b 720 738 787 703 766 738 b 647 656 672 738 656 710 b 462 723 606 698 529 723 b 82 296 242 723 82 525 b 281 51 82 124 190 51 b 579 276 381 51 499 117 l 599 276 b 560 65 586 195 572 119 b 351 -166 522 -98 438 -166 b 199 -104 291 -166 241 -137 b 99 -106 163 -78 124 -74 b 105 -205 72 -141 76 -176 b 353 -296 159 -257 245 -296 z m 474 874 b 585 987 526 874 585 917 b 469 1094 585 1052 533 1094 b 351 986 407 1094 351 1053 b 404 916 351 944 371 917 b 474 874 418 890 445 874 z m 219 313 b 465 599 219 458 317 599 b 524 589 485 599 506 595 b 594 501 527 538 556 506 b 309 176 508 285 386 176 b 219 313 244 176 219 238 z "},"h":{"ha":861,"x_min":0,"x_max":0,"o":"m 651 -62 b 738 25 699 -62 738 -27 b 679 116 738 66 717 105 b 738 576 680 267 703 416 b 666 744 758 672 740 744 b 532 667 615 744 569 708 b 316 351 467 592 389 479 l 293 357 b 391 959 326 463 391 824 b 305 1071 391 1028 354 1071 b 217 970 259 1071 217 1034 b 251 870 217 928 230 890 b 128 150 235 654 158 269 b 173 -18 109 72 106 -18 b 312 122 226 -18 266 35 b 592 583 377 249 487 442 l 607 578 b 556 44 556 362 538 149 b 651 -62 568 -23 602 -62 z "},"ħ":{"ha":861,"x_min":0,"x_max":0,"o":"m 656 -62 b 738 20 700 -62 738 -27 b 679 115 738 63 717 103 b 722 533 681 260 688 372 b 679 693 740 619 727 675 b 513 624 620 717 560 675 b 315 351 450 555 383 460 l 296 357 b 375 766 317 428 353 611 l 526 782 b 582 857 569 787 588 824 b 508 906 576 887 550 910 l 390 894 b 393 959 392 919 393 941 b 308 1071 393 1028 357 1071 b 217 970 260 1071 217 1034 b 244 878 217 933 227 899 l 115 864 b 60 793 76 860 55 825 b 133 740 65 761 92 735 l 239 751 b 128 150 210 534 153 249 b 163 -17 104 53 112 -6 b 312 122 218 -28 260 28 b 576 540 381 249 472 405 l 589 534 b 554 44 541 325 535 149 b 656 -62 566 -23 601 -62 z "},"ĥ":{"ha":861,"x_min":0,"x_max":0,"o":"m 651 -62 b 738 25 699 -62 738 -27 b 679 116 738 66 717 105 b 738 576 680 267 703 416 b 666 744 758 672 740 744 b 532 667 615 744 569 708 b 316 351 467 592 389 479 l 293 357 b 391 959 326 463 391 824 b 305 1071 391 1028 354 1071 b 217 970 259 1071 217 1034 b 251 870 217 928 230 890 b 128 150 235 654 158 269 b 173 -18 109 72 106 -18 b 312 122 226 -18 266 35 b 592 583 377 249 487 442 l 607 578 b 556 44 556 362 538 149 b 651 -62 568 -23 602 -62 z m 81 1188 b 192 1188 107 1164 151 1167 b 338 1290 235 1208 292 1247 b 435 1196 374 1262 403 1233 b 515 1185 461 1167 492 1165 b 519 1261 536 1204 542 1233 b 402 1367 485 1306 449 1338 b 264 1362 358 1393 305 1398 b 169 1290 236 1335 206 1310 b 79 1279 144 1306 105 1306 b 81 1188 53 1251 58 1208 z "},"i":{"ha":861,"x_min":0,"x_max":0,"o":"m 384 -10 b 679 44 468 -10 615 24 b 744 144 732 61 755 99 b 654 191 735 185 700 195 b 440 133 592 185 501 153 l 424 148 b 553 492 464 253 518 388 b 582 633 574 556 582 604 b 483 740 582 705 539 740 b 183 688 407 740 254 709 b 117 588 127 672 106 634 b 203 536 129 547 158 533 b 422 599 262 542 360 576 l 438 585 b 322 276 405 497 356 386 b 281 97 297 195 281 135 b 384 -10 281 26 328 -10 z m 441 874 b 552 987 494 874 552 917 b 436 1094 552 1052 500 1094 b 319 986 374 1094 319 1053 b 372 916 319 944 338 917 b 441 874 385 890 413 874 z "},"ı":{"ha":861,"x_min":0,"x_max":0,"o":"m 384 -10 b 679 44 468 -10 615 24 b 744 144 732 61 755 99 b 654 191 735 185 700 195 b 440 133 592 185 501 153 l 424 148 b 553 492 464 253 518 388 b 582 633 574 556 582 604 b 483 740 582 705 539 740 b 183 688 407 740 254 709 b 117 588 127 672 106 634 b 203 536 129 547 158 533 b 422 599 262 542 360 576 l 438 585 b 322 276 405 497 356 386 b 281 97 297 195 281 135 b 384 -10 281 26 328 -10 z "},"í":{"ha":861,"x_min":0,"x_max":0,"o":"m 384 -10 b 679 44 468 -10 615 24 b 744 144 732 61 755 99 b 654 191 735 185 700 195 b 440 133 592 185 501 153 l 424 148 b 553 492 464 253 518 388 b 582 633 574 556 582 604 b 483 740 582 705 539 740 b 183 688 407 740 254 709 b 117 588 127 672 106 634 b 203 536 129 547 158 533 b 422 599 262 542 360 576 l 438 585 b 322 276 405 497 356 386 b 281 97 297 195 281 135 b 384 -10 281 26 328 -10 z m 412 874 b 399 952 383 892 376 920 b 485 1113 435 1001 464 1059 b 583 1139 499 1160 545 1160 b 608 1041 619 1116 631 1083 b 492 894 581 991 541 939 b 412 874 464 868 441 855 z "},"ĭ":{"ha":861,"x_min":0,"x_max":0,"o":"m 384 -10 b 679 44 468 -10 615 24 b 744 144 732 61 755 99 b 654 191 735 185 700 195 b 440 133 592 185 501 153 l 424 148 b 553 492 464 253 518 388 b 582 633 574 556 582 604 b 483 740 582 705 539 740 b 183 688 407 740 254 709 b 117 588 127 672 106 634 b 203 536 129 547 158 533 b 422 599 262 542 360 576 l 438 585 b 322 276 405 497 356 386 b 281 97 297 195 281 135 b 384 -10 281 26 328 -10 z m 440 879 b 659 1063 569 879 647 946 b 612 1128 665 1103 643 1127 b 553 1076 579 1131 563 1110 b 440 981 541 1015 503 981 b 328 1065 374 981 340 1015 b 269 1118 319 1100 301 1120 b 222 1050 238 1117 215 1093 b 440 879 233 946 308 879 z "},"î":{"ha":861,"x_min":0,"x_max":0,"o":"m 384 -10 b 679 44 468 -10 615 24 b 744 144 732 61 755 99 b 654 191 735 185 700 195 b 440 133 592 185 501 153 l 424 148 b 553 492 464 253 518 388 b 582 633 574 556 582 604 b 483 740 582 705 539 740 b 183 688 407 740 254 709 b 117 588 127 672 106 634 b 203 536 129 547 158 533 b 422 599 262 542 360 576 l 438 585 b 322 276 405 497 356 386 b 281 97 297 195 281 135 b 384 -10 281 26 328 -10 z m 190 897 b 297 904 219 871 261 880 b 451 1032 342 933 399 981 b 553 900 489 991 524 943 b 631 894 573 872 607 872 b 635 973 656 915 656 944 b 519 1112 603 1022 562 1074 b 376 1110 476 1147 424 1152 b 269 1016 349 1083 310 1047 b 187 1001 244 1027 210 1026 b 190 897 157 970 163 921 z "},"ï":{"ha":861,"x_min":0,"x_max":0,"o":"m 384 -10 b 679 44 468 -10 615 24 b 744 144 732 61 755 99 b 654 191 735 185 700 195 b 440 133 592 185 501 153 l 424 148 b 553 492 464 253 518 388 b 582 633 574 556 582 604 b 483 740 582 705 539 740 b 183 688 407 740 254 709 b 117 588 127 672 106 634 b 203 536 129 547 158 533 b 422 599 262 542 360 576 l 438 585 b 322 276 405 497 356 386 b 281 97 297 195 281 135 b 384 -10 281 26 328 -10 z m 258 873 b 360 985 306 873 360 915 b 253 1092 360 1050 312 1092 b 145 985 197 1092 145 1051 b 194 915 145 942 164 916 b 258 873 207 888 231 873 z m 500 971 b 613 873 500 917 544 873 b 732 985 688 873 732 924 b 621 1099 732 1046 689 1099 b 546 1045 581 1099 551 1080 b 500 971 518 1032 500 1006 z "},"ị":{"ha":861,"x_min":0,"x_max":0,"o":"m 384 -10 b 679 44 468 -10 615 24 b 744 144 732 61 755 99 b 654 191 735 185 700 195 b 440 133 592 185 501 153 l 424 148 b 553 492 464 253 518 388 b 582 633 574 556 582 604 b 483 740 582 705 539 740 b 183 688 407 740 254 709 b 117 588 127 672 106 634 b 203 536 129 547 158 533 b 422 599 262 542 360 576 l 438 585 b 322 276 405 497 356 386 b 281 97 297 195 281 135 b 384 -10 281 26 328 -10 z m 441 874 b 552 987 494 874 552 917 b 436 1094 552 1052 500 1094 b 319 986 374 1094 319 1053 b 372 916 319 944 338 917 b 441 874 385 890 413 874 z m 434 -369 b 545 -256 487 -369 545 -327 b 429 -150 545 -192 493 -150 b 312 -257 367 -150 312 -191 b 365 -328 312 -300 331 -326 b 434 -369 378 -353 406 -369 z "},"ì":{"ha":861,"x_min":0,"x_max":0,"o":"m 384 -10 b 679 44 468 -10 615 24 b 744 144 732 61 755 99 b 654 191 735 185 700 195 b 440 133 592 185 501 153 l 424 148 b 553 492 464 253 518 388 b 582 633 574 556 582 604 b 483 740 582 705 539 740 b 183 688 407 740 254 709 b 117 588 127 672 106 634 b 203 536 129 547 158 533 b 422 599 262 542 360 576 l 438 585 b 322 276 405 497 356 386 b 281 97 297 195 281 135 b 384 -10 281 26 328 -10 z m 463 874 b 477 952 492 892 499 920 b 391 1113 441 1001 412 1059 b 293 1139 376 1160 330 1160 b 267 1041 256 1116 245 1083 b 383 894 294 991 335 939 b 463 874 411 868 434 855 z "},"ī":{"ha":861,"x_min":0,"x_max":0,"o":"m 384 -10 b 679 44 468 -10 615 24 b 744 144 732 61 755 99 b 654 191 735 185 700 195 b 440 133 592 185 501 153 l 424 148 b 553 492 464 253 518 388 b 582 633 574 556 582 604 b 483 740 582 705 539 740 b 183 688 407 740 254 709 b 117 588 127 672 106 634 b 203 536 129 547 158 533 b 422 599 262 542 360 576 l 438 585 b 322 276 405 497 356 386 b 281 97 297 195 281 135 b 384 -10 281 26 328 -10 z m 264 913 l 613 915 b 665 973 644 915 666 938 b 611 1027 665 1007 642 1028 l 263 1012 b 210 962 232 1010 210 990 b 264 913 210 934 233 914 z "},"į":{"ha":861,"x_min":0,"x_max":0,"o":"m 441 874 b 552 987 494 874 552 917 b 436 1094 552 1052 500 1094 b 319 986 374 1094 319 1053 b 372 916 319 944 338 917 b 441 874 385 890 413 874 z m 426 -290 b 504 -244 475 -292 498 -274 b 465 -188 510 -214 494 -195 b 406 -128 429 -180 406 -164 b 502 3 406 -82 444 -42 b 679 44 570 15 640 32 b 744 144 732 61 755 99 b 654 191 735 185 700 195 b 440 133 592 185 501 153 l 424 148 b 553 492 464 253 518 388 b 582 633 574 556 582 604 b 483 740 582 705 539 740 b 183 688 407 740 254 709 b 117 588 127 672 106 634 b 203 536 129 547 158 533 b 422 599 262 542 360 576 l 438 585 b 322 276 405 497 356 386 b 281 97 297 195 281 135 b 372 -9 281 31 321 -4 b 274 -163 303 -63 274 -112 b 426 -290 274 -229 318 -283 z "},"ĳ":{"ha":861,"x_min":0,"x_max":0,"o":"m 203 0 b 432 47 288 0 383 25 b 485 151 476 67 498 106 b 409 197 474 190 450 202 b 260 143 355 190 304 165 l 244 158 b 399 629 285 288 399 530 b 302 740 399 704 358 740 b 88 699 226 740 153 722 b 37 600 43 684 24 647 b 114 549 48 559 79 546 b 240 599 163 558 189 575 l 258 584 b 97 110 217 453 97 219 b 203 0 97 37 147 0 z m 260 874 b 372 987 313 874 372 917 b 256 1094 372 1052 319 1094 b 138 986 194 1094 138 1053 b 191 916 138 944 158 917 b 260 874 205 890 232 874 z m 668 874 b 780 987 721 874 780 917 b 663 1094 780 1052 727 1094 b 546 986 601 1094 546 1053 b 599 916 546 944 566 917 b 668 874 613 890 640 874 z m 436 -294 b 750 48 608 -294 709 -162 b 810 617 774 175 810 465 b 703 740 810 702 780 740 b 520 710 628 740 574 730 b 464 619 477 694 453 667 b 544 562 473 574 506 560 b 654 600 586 565 617 583 l 671 585 b 608 68 665 437 630 176 b 452 -168 580 -76 550 -150 b 359 -96 442 -128 406 -96 b 273 -175 304 -96 273 -131 b 436 -294 273 -247 337 -294 z "},"j":{"ha":861,"x_min":0,"x_max":0,"o":"m 356 -294 b 656 48 518 -294 615 -162 b 719 617 681 175 719 465 b 610 740 719 702 686 740 b 353 707 535 740 420 726 b 284 615 304 692 274 664 b 374 559 293 571 327 556 b 560 600 426 562 508 585 l 578 589 b 516 68 569 440 535 176 b 358 -157 492 -64 443 -157 b 230 15 278 -157 237 -79 b 288 108 262 28 288 60 b 209 190 288 162 253 190 b 92 10 139 190 92 122 b 356 -294 92 -132 178 -294 z m 553 874 b 665 987 606 874 665 917 b 549 1094 665 1052 613 1094 b 431 986 487 1094 431 1053 b 484 916 431 944 451 917 b 553 874 498 890 525 874 z "},"ȷ":{"ha":861,"x_min":0,"x_max":0,"o":"m 356 -294 b 656 48 518 -294 615 -162 b 719 617 681 175 719 465 b 610 740 719 702 686 740 b 353 707 535 740 420 726 b 284 615 304 692 274 664 b 374 559 293 571 327 556 b 560 600 426 562 508 585 l 578 589 b 516 68 569 440 535 176 b 358 -157 492 -64 443 -157 b 230 15 278 -157 237 -79 b 288 108 262 28 288 60 b 209 190 288 162 253 190 b 92 10 139 190 92 122 b 356 -294 92 -132 178 -294 z "},"ĵ":{"ha":861,"x_min":0,"x_max":0,"o":"m 356 -294 b 656 48 518 -294 615 -162 b 719 617 681 175 719 465 b 610 740 719 702 686 740 b 353 707 535 740 420 726 b 284 615 304 692 274 664 b 374 559 293 571 327 556 b 560 600 426 562 508 585 l 578 589 b 516 68 569 440 535 176 b 358 -157 492 -64 443 -157 b 230 15 278 -157 237 -79 b 288 108 262 28 288 60 b 209 190 288 162 253 190 b 92 10 139 190 92 122 b 356 -294 92 -132 178 -294 z m 302 897 b 410 904 331 871 374 880 b 563 1033 455 933 511 982 b 665 900 601 991 636 943 b 744 894 686 872 720 872 b 749 973 769 915 768 944 b 632 1112 716 1022 675 1074 b 490 1110 589 1147 536 1152 b 382 1016 463 1083 424 1047 b 299 1001 357 1027 323 1026 b 302 897 269 970 276 921 z "},"k":{"ha":861,"x_min":0,"x_max":0,"o":"m 190 -3 b 275 91 229 -3 256 23 b 353 282 294 157 319 222 b 687 -11 444 152 594 -11 b 776 73 749 -11 776 28 b 697 159 776 120 737 159 b 647 147 677 159 660 154 b 435 392 569 213 495 302 b 707 608 512 473 629 562 b 759 719 759 638 781 675 b 650 732 738 760 693 754 b 338 447 567 688 405 561 l 319 447 b 383 955 358 645 383 816 b 297 1063 383 1026 349 1063 b 211 965 252 1063 211 1028 b 241 881 211 930 223 899 b 133 111 231 670 167 293 b 190 -3 122 53 132 -3 z "},"ķ":{"ha":861,"x_min":0,"x_max":0,"o":"m 190 -3 b 275 91 229 -3 256 23 b 353 282 294 157 319 222 b 687 -11 444 152 594 -11 b 776 73 749 -11 776 28 b 697 159 776 120 737 159 b 647 147 677 159 660 154 b 435 392 569 213 495 302 b 707 608 512 473 629 562 b 759 719 759 638 781 675 b 650 732 738 760 693 754 b 338 447 567 688 405 561 l 319 447 b 383 955 358 645 383 816 b 297 1063 383 1026 349 1063 b 211 965 252 1063 211 1028 b 241 881 211 930 223 899 b 133 111 231 670 167 293 b 190 -3 122 53 132 -3 z m 360 -524 b 432 -477 389 -529 413 -509 b 510 -252 460 -426 501 -331 b 442 -164 516 -206 493 -170 b 352 -233 394 -158 351 -178 b 320 -455 355 -319 337 -402 b 360 -524 309 -490 327 -519 z "},"ĸ":{"ha":861,"x_min":0,"x_max":0,"o":"m 180 -1 b 275 91 229 -10 256 23 b 353 282 294 157 319 222 b 687 -11 444 152 594 -11 b 776 73 749 -11 776 27 b 698 159 776 119 738 159 b 646 147 678 159 660 155 b 435 392 569 214 495 303 b 707 608 512 473 629 562 b 759 719 759 638 781 675 b 650 732 738 760 693 754 b 338 447 567 688 405 561 l 324 447 b 354 665 346 527 354 590 b 269 773 354 737 322 773 b 183 675 225 773 183 738 b 213 592 183 641 194 610 b 136 111 205 449 168 263 b 180 -1 124 53 132 6 z "},"l":{"ha":861,"x_min":0,"x_max":0,"o":"m 339 -10 b 679 44 423 -10 615 24 b 744 144 732 61 755 99 b 654 191 735 185 700 195 b 394 133 592 185 456 153 l 378 148 b 599 828 414 260 553 672 b 627 974 619 892 627 944 b 528 1081 627 1045 584 1081 b 183 1028 452 1081 254 1049 b 117 928 127 1012 106 974 b 203 876 129 887 158 873 b 467 940 262 883 406 917 l 483 925 b 284 307 459 843 333 463 b 235 97 256 214 235 135 b 339 -10 235 26 283 -10 z "},"ĺ":{"ha":861,"x_min":0,"x_max":0,"o":"m 339 -10 b 679 44 423 -10 615 24 b 744 144 732 61 755 99 b 654 191 735 185 700 195 b 394 133 592 185 456 153 l 378 148 b 599 828 414 260 553 672 b 627 974 619 892 627 944 b 528 1081 627 1045 584 1081 b 183 1028 452 1081 254 1049 b 117 928 127 1012 106 974 b 203 876 129 887 158 873 b 467 940 262 883 406 917 l 483 925 b 284 307 459 843 333 463 b 235 97 256 214 235 135 b 339 -10 235 26 283 -10 z m 498 1180 b 504 1257 474 1205 474 1231 b 583 1344 533 1281 563 1313 b 684 1349 609 1385 653 1379 b 690 1257 715 1319 718 1287 b 575 1174 664 1228 616 1194 b 498 1180 551 1163 522 1154 z "},"ľ":{"ha":861,"x_min":0,"x_max":0,"o":"m 339 -10 b 679 44 423 -10 615 24 b 744 144 732 61 755 99 b 654 191 735 185 700 195 b 394 133 592 185 456 153 l 378 148 b 599 828 414 260 553 672 b 627 974 619 892 627 944 b 528 1081 627 1045 584 1081 b 183 1028 452 1081 254 1049 b 117 928 127 1012 106 974 b 203 876 129 887 158 873 b 467 940 262 883 406 917 l 483 925 b 284 307 459 843 333 463 b 235 97 256 214 235 135 b 339 -10 235 26 283 -10 z m 792 899 b 856 949 826 894 842 914 b 887 1088 871 993 882 1037 b 824 1167 894 1134 867 1162 b 746 1099 781 1173 741 1155 b 747 966 749 1060 751 1008 b 792 899 742 928 758 903 z "},"ļ":{"ha":861,"x_min":0,"x_max":0,"o":"m 339 -10 b 679 44 423 -10 615 24 b 744 144 732 61 755 99 b 654 191 735 185 700 195 b 394 133 592 185 456 153 l 378 148 b 599 828 414 260 553 672 b 627 974 619 892 627 944 b 528 1081 627 1045 584 1081 b 183 1028 452 1081 254 1049 b 117 928 127 1012 106 974 b 203 876 129 887 158 873 b 467 940 262 883 406 917 l 483 925 b 284 307 459 843 333 463 b 235 97 256 214 235 135 b 339 -10 235 26 283 -10 z m 340 -524 b 412 -478 369 -529 394 -510 b 490 -252 441 -427 481 -332 b 422 -164 496 -206 473 -171 b 333 -234 375 -158 331 -178 b 301 -455 335 -320 317 -403 b 340 -524 290 -491 308 -519 z "},"ŀ":{"ha":861,"x_min":0,"x_max":0,"o":"m 854 463 b 956 575 903 463 956 505 b 850 682 956 640 908 682 b 742 574 793 682 742 641 b 790 504 742 532 761 506 b 854 463 803 478 828 463 z m 339 -10 b 679 44 423 -10 615 24 b 744 144 732 61 755 99 b 654 191 735 185 700 195 b 394 133 592 185 456 153 l 378 148 b 599 828 414 260 553 672 b 627 974 619 892 627 944 b 528 1081 627 1045 584 1081 b 183 1028 452 1081 254 1049 b 117 928 127 1012 106 974 b 203 876 129 887 158 873 b 467 940 262 883 406 917 l 483 925 b 284 307 459 843 333 463 b 235 97 256 214 235 135 b 339 -10 235 26 283 -10 z "},"ł":{"ha":861,"x_min":0,"x_max":0,"o":"m 226 435 l 341 485 l 284 307 b 235 97 256 214 235 135 b 339 -10 235 26 283 -10 b 679 44 423 -10 615 24 b 744 144 732 61 755 99 b 654 191 735 185 700 195 b 394 133 592 185 456 153 l 378 148 b 514 560 400 217 460 396 l 683 635 b 716 722 724 652 731 691 b 631 749 703 750 670 766 l 566 721 l 599 828 b 627 974 619 892 627 944 b 528 1081 627 1045 584 1081 b 183 1028 452 1081 254 1049 b 117 928 127 1012 106 974 b 203 876 129 887 158 873 b 467 940 262 883 406 917 l 483 925 b 394 646 472 884 434 769 l 174 550 b 140 467 139 535 127 499 b 226 435 153 438 188 418 z "},"m":{"ha":861,"x_min":0,"x_max":0,"o":"m 712 -44 b 792 42 751 -44 792 -16 b 738 126 792 80 773 115 b 805 635 743 331 805 507 b 726 739 805 701 776 739 b 610 655 682 739 642 708 b 496 389 563 576 519 462 l 476 399 b 506 653 493 475 506 597 b 444 739 506 705 487 739 b 341 657 404 739 370 709 b 229 374 307 597 254 458 l 206 379 b 244 667 226 458 244 603 b 172 766 244 730 215 766 b 92 678 129 766 92 732 b 124 592 92 640 102 608 b 69 115 121 428 98 268 b 114 -28 56 50 51 -28 b 203 72 156 -28 184 8 b 375 547 249 219 313 407 l 394 538 b 360 219 378 438 360 288 b 420 114 360 170 372 114 b 501 187 448 114 474 133 b 664 558 543 269 603 447 l 687 549 b 622 108 646 392 622 210 b 712 -44 622 18 653 -44 z "},"n":{"ha":861,"x_min":0,"x_max":0,"o":"m 650 -62 b 738 27 701 -62 738 -27 b 680 115 738 66 718 104 b 747 645 688 314 747 513 b 664 744 747 716 709 744 b 530 667 617 744 571 714 b 315 351 463 592 385 485 l 296 357 b 349 654 331 463 349 571 b 266 769 349 730 315 769 b 176 669 219 769 176 733 b 211 567 176 626 188 588 b 128 150 201 410 163 266 b 174 -19 103 67 107 -19 b 312 122 228 -19 269 37 b 592 583 373 249 485 442 l 611 578 b 551 128 572 413 551 242 b 650 -62 551 21 572 -62 z "},"ń":{"ha":861,"x_min":0,"x_max":0,"o":"m 650 -62 b 738 27 701 -62 738 -27 b 680 115 738 66 718 104 b 747 645 688 314 747 513 b 664 744 747 716 709 744 b 530 667 617 744 571 714 b 315 351 463 592 385 485 l 296 357 b 349 654 331 463 349 571 b 266 769 349 730 315 769 b 176 669 219 769 176 733 b 211 567 176 626 188 588 b 128 150 201 410 163 266 b 174 -19 103 67 107 -19 b 312 122 228 -19 269 37 b 592 583 373 249 485 442 l 611 578 b 551 128 572 413 551 242 b 650 -62 551 21 572 -62 z m 488 874 b 475 952 459 892 453 920 b 561 1113 511 1001 540 1059 b 659 1139 576 1160 622 1160 b 685 1041 696 1116 707 1083 b 568 894 658 991 617 939 b 488 874 540 868 517 855 z "},"ň":{"ha":861,"x_min":0,"x_max":0,"o":"m 650 -62 b 738 27 701 -62 738 -27 b 680 115 738 66 718 104 b 747 645 688 314 747 513 b 664 744 747 716 709 744 b 530 667 617 744 571 714 b 315 351 463 592 385 485 l 296 357 b 349 654 331 463 349 571 b 266 769 349 730 315 769 b 176 669 219 769 176 733 b 211 567 176 626 188 588 b 128 150 201 410 163 266 b 174 -19 103 67 107 -19 b 312 122 228 -19 269 37 b 592 583 373 249 485 442 l 611 578 b 551 128 572 413 551 242 b 650 -62 551 21 572 -62 z m 275 1113 b 383 1106 304 1140 347 1131 b 536 978 427 1077 484 1028 b 638 1110 574 1019 609 1067 b 717 1117 659 1139 693 1139 b 722 1038 742 1095 741 1066 b 605 899 689 989 648 936 b 463 900 562 863 509 858 b 355 994 435 927 397 963 b 272 1009 330 983 296 985 b 275 1113 242 1040 249 1090 z "},"ņ":{"ha":861,"x_min":0,"x_max":0,"o":"m 650 -62 b 738 27 701 -62 738 -27 b 680 115 738 66 718 104 b 747 645 688 314 747 513 b 664 744 747 716 709 744 b 530 667 617 744 571 714 b 315 351 463 592 385 485 l 296 357 b 349 654 331 463 349 571 b 266 769 349 730 315 769 b 176 669 219 769 176 733 b 211 567 176 626 188 588 b 128 150 201 410 163 266 b 174 -19 103 67 107 -19 b 312 122 228 -19 269 37 b 592 583 373 249 485 442 l 611 578 b 551 128 572 413 551 242 b 650 -62 551 21 572 -62 z m 344 -524 b 416 -477 374 -529 398 -509 b 494 -252 445 -426 485 -331 b 426 -164 500 -206 477 -170 b 337 -233 379 -158 335 -178 b 305 -455 339 -319 322 -402 b 344 -524 294 -490 312 -519 z "},"ɲ":{"ha":861,"x_min":0,"x_max":0,"o":"m 82 -277 b 288 78 213 -277 247 -121 b 592 583 347 222 485 442 l 605 578 b 544 128 566 413 544 242 b 656 -62 544 35 565 -62 b 738 20 700 -62 738 -27 b 680 115 738 62 718 103 b 747 645 688 304 747 513 b 694 738 747 694 731 725 b 530 667 640 757 582 726 b 326 372 463 592 385 486 l 306 378 b 351 658 330 465 351 567 b 266 769 351 726 315 769 b 176 669 219 769 176 733 b 210 568 176 626 188 588 b 85 -150 194 332 118 -150 l 76 -150 b 16 -92 71 -119 51 -92 b -48 -167 -24 -92 -48 -124 b 82 -277 -48 -237 13 -277 z "},"ñ":{"ha":861,"x_min":0,"x_max":0,"o":"m 650 -62 b 738 27 701 -62 738 -27 b 680 115 738 66 718 104 b 747 645 688 314 747 513 b 664 744 747 716 709 744 b 530 667 617 744 571 714 b 315 351 463 592 385 485 l 296 357 b 349 654 331 463 349 571 b 266 769 349 730 315 769 b 176 669 219 769 176 733 b 211 567 176 626 188 588 b 128 150 201 410 163 266 b 174 -19 103 67 107 -19 b 312 122 228 -19 269 37 b 592 583 373 249 485 442 l 611 578 b 551 128 572 413 551 242 b 650 -62 551 21 572 -62 z m 625 871 b 778 1027 701 871 754 926 b 740 1096 788 1063 772 1088 b 667 1053 703 1106 681 1088 b 606 990 653 1015 635 990 b 403 1092 544 990 513 1092 b 248 983 331 1092 274 1047 b 284 901 231 941 248 911 b 354 938 317 891 338 903 b 417 983 367 967 390 983 b 625 871 480 983 513 871 z "},"ŋ":{"ha":861,"x_min":0,"x_max":0,"o":"m 461 -274 b 691 140 595 -274 648 -117 b 747 645 720 294 747 503 b 694 738 747 694 731 725 b 530 667 640 757 582 726 b 315 351 463 592 385 485 l 296 357 b 351 658 331 463 351 567 b 266 769 351 726 315 769 b 176 669 219 769 176 733 b 211 567 176 626 188 588 b 128 150 201 410 163 266 b 163 -17 99 53 112 -4 b 312 122 218 -30 265 28 b 592 583 373 249 485 442 l 605 578 b 565 157 607 449 587 283 b 465 -147 535 1 497 -147 l 461 -147 b 399 -89 456 -116 434 -89 b 335 -163 359 -89 335 -120 b 461 -274 335 -233 392 -274 z "},"o":{"ha":861,"x_min":0,"x_max":0,"o":"m 406 -16 b 750 389 611 -16 750 165 b 683 593 750 476 726 547 b 658 694 703 624 691 665 b 495 748 616 730 553 748 b 112 298 288 748 112 560 b 406 -16 112 102 238 -16 z m 251 313 b 506 623 251 460 357 623 b 540 618 517 623 528 621 b 531 607 536 615 533 611 b 558 526 518 583 527 561 b 615 378 595 489 615 437 b 412 110 615 252 529 110 b 251 313 307 110 251 208 z "},"ó":{"ha":861,"x_min":0,"x_max":0,"o":"m 406 -16 b 750 389 611 -16 750 165 b 683 593 750 476 726 547 b 658 694 703 624 691 665 b 495 748 616 730 553 748 b 112 298 288 748 112 560 b 406 -16 112 102 238 -16 z m 497 874 b 483 952 467 892 461 920 b 569 1113 519 1001 548 1059 b 667 1139 583 1160 630 1160 b 692 1041 704 1116 715 1083 b 576 894 666 991 625 939 b 497 874 549 868 526 855 z m 251 313 b 506 623 251 460 357 623 b 540 618 517 623 528 621 b 531 607 536 615 533 611 b 558 526 518 583 527 561 b 615 378 595 489 615 437 b 412 110 615 252 529 110 b 251 313 307 110 251 208 z "},"ŏ":{"ha":861,"x_min":0,"x_max":0,"o":"m 406 -16 b 750 389 611 -16 750 165 b 683 593 750 476 726 547 b 658 694 703 624 691 665 b 495 748 616 730 553 748 b 112 298 288 748 112 560 b 406 -16 112 102 238 -16 z m 525 879 b 743 1063 653 879 731 946 b 696 1128 749 1103 728 1127 b 637 1076 663 1131 647 1110 b 525 981 626 1015 588 981 b 413 1065 458 981 424 1015 b 353 1118 403 1100 386 1120 b 306 1050 322 1117 300 1093 b 525 879 317 946 392 879 z m 251 313 b 506 623 251 460 357 623 b 540 618 517 623 528 621 b 531 607 536 615 533 611 b 558 526 518 583 527 561 b 615 378 595 489 615 437 b 412 110 615 252 529 110 b 251 313 307 110 251 208 z "},"ô":{"ha":861,"x_min":0,"x_max":0,"o":"m 406 -16 b 750 389 611 -16 750 165 b 683 593 750 476 726 547 b 658 694 703 624 691 665 b 495 748 616 730 553 748 b 112 298 288 748 112 560 b 406 -16 112 102 238 -16 z m 274 897 b 381 904 303 871 345 880 b 535 1033 426 933 483 982 b 637 900 573 991 608 943 b 716 894 658 872 692 872 b 720 973 740 915 740 944 b 603 1112 688 1022 647 1074 b 461 1110 560 1147 508 1152 b 353 1016 434 1083 395 1047 b 271 1001 328 1027 294 1026 b 274 897 241 970 247 921 z m 251 313 b 506 623 251 460 357 623 b 540 618 517 623 528 621 b 531 607 536 615 533 611 b 558 526 518 583 527 561 b 615 378 595 489 615 437 b 412 110 615 252 529 110 b 251 313 307 110 251 208 z "},"ö":{"ha":861,"x_min":0,"x_max":0,"o":"m 406 -16 b 750 389 611 -16 750 165 b 683 593 750 476 726 547 b 658 694 703 624 691 665 b 495 748 616 730 553 748 b 112 298 288 748 112 560 b 406 -16 112 102 238 -16 z m 342 873 b 444 985 390 873 444 915 b 338 1092 444 1050 396 1092 b 229 985 281 1092 229 1051 b 278 915 229 942 248 916 b 342 873 291 888 315 873 z m 584 971 b 698 873 584 917 629 873 b 817 985 772 873 817 924 b 706 1099 817 1046 773 1099 b 631 1046 665 1099 637 1080 b 584 971 602 1033 584 1006 z m 251 313 b 506 623 251 460 357 623 b 540 618 517 623 528 621 b 531 607 536 615 533 611 b 558 526 518 583 527 561 b 615 378 595 489 615 437 b 412 110 615 252 529 110 b 251 313 307 110 251 208 z "},"ọ":{"ha":861,"x_min":0,"x_max":0,"o":"m 406 -16 b 750 389 611 -16 750 165 b 683 593 750 476 726 547 b 658 694 703 624 691 665 b 495 748 616 730 553 748 b 112 298 288 748 112 560 b 406 -16 112 102 238 -16 z m 382 -369 b 494 -256 435 -369 494 -327 b 377 -150 494 -192 441 -150 b 260 -257 315 -150 260 -191 b 313 -328 260 -300 280 -326 b 382 -369 326 -353 353 -369 z m 251 313 b 506 623 251 460 357 623 b 540 618 517 623 528 621 b 531 607 536 615 533 611 b 558 526 518 583 527 561 b 615 378 595 489 615 437 b 412 110 615 252 529 110 b 251 313 307 110 251 208 z "},"ò":{"ha":861,"x_min":0,"x_max":0,"o":"m 406 -16 b 750 389 611 -16 750 165 b 683 593 750 476 726 547 b 658 694 703 624 691 665 b 495 748 616 730 553 748 b 112 298 288 748 112 560 b 406 -16 112 102 238 -16 z m 548 874 b 561 952 577 892 583 920 b 475 1113 525 1001 496 1059 b 377 1139 460 1160 415 1160 b 351 1041 340 1116 329 1083 b 468 894 378 991 419 939 b 548 874 496 868 519 855 z m 251 313 b 506 623 251 460 357 623 b 540 618 517 623 528 621 b 531 607 536 615 533 611 b 558 526 518 583 527 561 b 615 378 595 489 615 437 b 412 110 615 252 529 110 b 251 313 307 110 251 208 z "},"ő":{"ha":861,"x_min":0,"x_max":0,"o":"m 406 -16 b 750 389 611 -16 750 165 b 683 593 750 476 726 547 b 658 694 703 624 691 665 b 495 748 616 730 553 748 b 112 298 288 748 112 560 b 406 -16 112 102 238 -16 z m 631 885 b 711 906 660 867 685 879 b 801 1034 744 942 779 988 b 772 1127 822 1075 805 1109 b 672 1094 729 1151 683 1140 b 615 960 656 1044 638 1003 b 631 885 599 931 601 903 z m 367 895 b 444 917 394 880 418 890 b 526 1028 473 945 508 992 b 486 1123 544 1068 526 1103 b 398 1082 442 1144 406 1129 b 351 961 388 1033 369 994 b 367 895 335 932 342 909 z m 251 313 b 506 623 251 460 357 623 b 540 618 517 623 528 621 b 531 607 536 615 533 611 b 558 526 518 583 527 561 b 615 378 595 489 615 437 b 412 110 615 252 529 110 b 251 313 307 110 251 208 z "},"ō":{"ha":861,"x_min":0,"x_max":0,"o":"m 406 -16 b 750 389 611 -16 750 165 b 683 593 750 476 726 547 b 658 694 703 624 691 665 b 495 748 616 730 553 748 b 112 298 288 748 112 560 b 406 -16 112 102 238 -16 z m 349 913 l 697 915 b 750 973 728 915 751 938 b 696 1027 749 1007 726 1028 l 347 1012 b 294 962 316 1010 294 990 b 349 913 295 934 318 914 z m 251 313 b 506 623 251 460 357 623 b 540 618 517 623 528 621 b 531 607 536 615 533 611 b 558 526 518 583 527 561 b 615 378 595 489 615 437 b 412 110 615 252 529 110 b 251 313 307 110 251 208 z "},"ǫ":{"ha":861,"x_min":0,"x_max":0,"o":"m 422 -296 b 499 -250 470 -299 493 -281 b 460 -195 505 -221 489 -201 b 401 -135 424 -187 401 -171 b 499 -2 401 -88 440 -48 b 750 389 652 44 750 201 b 683 593 750 476 726 547 b 658 694 703 624 691 665 b 495 748 616 730 553 748 b 112 298 288 748 112 560 b 369 -14 112 117 219 2 b 269 -169 299 -69 269 -119 b 422 -296 269 -235 313 -290 z m 251 313 b 506 623 251 460 357 623 b 540 618 517 623 528 621 b 531 607 536 615 533 611 b 558 526 518 583 527 561 b 615 378 595 489 615 437 b 412 110 615 252 529 110 b 251 313 307 110 251 208 z "},"ø":{"ha":861,"x_min":0,"x_max":0,"o":"m 401 -16 b 750 389 606 -16 750 165 b 683 593 750 476 726 547 b 691 642 692 608 695 625 l 778 773 b 765 867 806 812 792 849 b 675 842 737 884 701 880 l 599 729 b 500 748 568 742 534 748 b 112 305 293 748 112 560 b 173 92 112 217 134 146 l 83 -41 b 96 -136 56 -82 69 -119 b 188 -111 124 -154 161 -151 l 271 12 b 401 -16 309 -6 353 -16 z m 244 324 b 506 623 244 474 350 623 b 539 618 517 623 528 622 l 267 208 b 244 324 252 242 244 282 z m 340 126 l 588 503 b 625 378 613 468 625 425 b 415 106 625 252 540 106 b 340 126 387 106 361 113 z "},"ǿ":{"ha":861,"x_min":0,"x_max":0,"o":"m 401 -16 b 750 389 606 -16 750 165 b 683 593 750 476 726 547 b 691 642 692 608 695 625 l 778 773 b 765 867 806 812 792 849 b 675 842 737 884 701 880 l 599 729 b 500 748 568 742 534 748 b 112 305 293 748 112 560 b 173 92 112 217 134 146 l 83 -41 b 96 -136 56 -82 69 -119 b 188 -111 124 -154 161 -151 l 271 12 b 401 -16 309 -6 353 -16 z m 497 874 b 483 952 467 892 461 920 b 569 1113 519 1001 548 1059 b 667 1139 583 1160 630 1160 b 692 1041 704 1116 715 1083 b 576 894 666 991 625 939 b 497 874 549 868 526 855 z m 244 324 b 506 623 244 474 350 623 b 539 618 517 623 528 622 l 267 208 b 244 324 252 242 244 282 z m 340 126 l 588 503 b 625 378 613 468 625 425 b 415 106 625 252 540 106 b 340 126 387 106 361 113 z "},"õ":{"ha":861,"x_min":0,"x_max":0,"o":"m 406 -16 b 750 389 611 -16 750 165 b 683 593 750 476 726 547 b 658 694 703 624 691 665 b 495 748 616 730 553 748 b 112 298 288 748 112 560 b 406 -16 112 102 238 -16 z m 633 871 b 786 1027 709 871 763 926 b 749 1096 795 1063 781 1088 b 675 1053 712 1106 689 1088 b 614 990 661 1015 642 990 b 410 1092 552 990 520 1092 b 256 983 338 1092 282 1047 b 292 901 239 941 256 911 b 362 938 324 891 346 903 b 426 983 376 967 397 983 b 633 871 488 983 520 871 z m 251 313 b 506 623 251 460 357 623 b 540 618 517 623 528 621 b 531 607 536 615 533 611 b 558 526 518 583 527 561 b 615 378 595 489 615 437 b 412 110 615 252 529 110 b 251 313 307 110 251 208 z "},"œ":{"ha":861,"x_min":0,"x_max":0,"o":"m 240 -16 b 414 106 311 -16 372 31 b 578 -17 447 28 503 -17 b 778 87 664 -17 738 35 b 781 174 799 114 802 147 b 714 174 762 201 733 194 b 593 107 674 133 634 107 b 491 278 528 107 496 173 b 715 349 557 294 659 324 b 813 517 788 378 813 415 b 646 740 813 643 757 740 b 443 583 554 740 487 676 l 437 594 l 441 599 b 423 690 463 628 446 660 b 308 741 394 726 347 741 b 42 298 161 741 42 560 b 240 -16 42 102 121 -16 z m 156 313 b 311 623 156 460 210 623 b 337 618 321 623 329 621 b 331 607 335 615 333 611 b 349 527 322 583 331 565 b 374 363 374 480 374 428 b 253 106 374 245 329 106 b 156 313 183 106 156 204 z m 497 397 b 638 617 516 513 568 617 b 710 529 688 617 710 572 b 658 448 710 485 699 462 b 497 397 608 429 549 410 z "},"p":{"ha":861,"x_min":0,"x_max":0,"o":"m 401 -16 b 795 466 601 -16 795 179 b 599 723 795 650 699 723 b 287 447 483 723 363 624 l 272 447 b 285 620 280 519 285 580 b 201 740 285 704 250 740 b 103 628 152 740 103 701 b 140 539 103 594 113 561 b 40 -196 124 313 71 -12 b 92 -297 31 -249 48 -290 b 174 -204 138 -303 163 -257 b 218 50 187 -140 202 -49 b 401 -16 253 7 325 -16 z m 262 199 b 569 597 340 426 476 597 b 660 453 636 597 660 532 b 406 109 660 286 549 109 b 343 119 382 109 361 113 b 271 199 340 168 319 199 z "},"þ":{"ha":861,"x_min":0,"x_max":0,"o":"m 401 -16 b 795 466 601 -16 795 179 b 601 723 795 650 699 723 b 287 447 483 723 363 624 l 263 447 b 307 943 288 667 307 872 b 223 1063 307 1027 272 1063 b 125 951 174 1063 125 1024 b 162 862 125 917 135 884 b 40 -196 143 589 72 -10 b 92 -297 31 -249 48 -290 b 174 -204 138 -303 163 -257 b 214 56 184 -150 199 -56 b 401 -16 247 9 322 -16 z m 262 199 b 570 594 340 426 476 594 b 660 453 637 594 660 532 b 406 110 660 286 549 110 b 343 121 382 110 361 115 b 271 199 340 169 319 199 z "},"q":{"ha":861,"x_min":0,"x_max":0,"o":"m 261 -16 b 572 263 376 -16 496 85 l 584 263 b 533 -178 558 73 535 -115 b 613 -298 531 -262 569 -298 b 707 -205 666 -298 701 -268 b 680 -107 710 -169 703 -135 b 778 635 693 110 747 449 b 729 739 787 689 778 731 b 646 648 677 747 656 701 l 644 642 b 458 723 612 697 537 723 b 64 245 263 723 64 529 b 261 -16 64 56 166 -16 z m 199 260 b 458 598 199 427 311 598 b 516 588 481 598 499 594 b 579 509 518 541 537 514 b 597 509 585 508 592 508 b 297 110 520 281 390 110 b 199 260 231 110 199 173 z "},"r":{"ha":861,"x_min":0,"x_max":0,"o":"m 221 -25 b 333 63 273 -37 310 3 b 640 593 406 264 537 476 l 660 587 b 656 376 644 517 643 434 b 745 303 668 324 696 293 b 803 432 782 311 803 344 b 779 669 803 494 798 608 b 692 740 766 712 738 740 b 344 330 573 740 449 562 l 325 333 b 393 622 369 449 393 552 b 287 740 393 688 357 740 b 131 703 241 740 178 724 b 72 608 86 686 59 657 b 158 567 85 559 122 559 b 252 602 188 573 225 589 l 268 585 b 172 101 267 472 212 238 b 221 -25 153 38 172 -13 z "},"ŕ":{"ha":861,"x_min":0,"x_max":0,"o":"m 221 -25 b 333 63 273 -37 310 3 b 640 593 406 264 537 476 l 660 587 b 656 376 644 517 643 434 b 745 303 668 324 696 293 b 803 432 782 311 803 344 b 779 669 803 494 798 608 b 692 740 766 712 738 740 b 344 330 573 740 449 562 l 325 333 b 393 622 369 449 393 552 b 287 740 393 688 357 740 b 131 703 241 740 178 724 b 72 608 86 686 59 657 b 158 567 85 559 122 559 b 252 602 188 573 225 589 l 268 585 b 172 101 267 472 212 238 b 221 -25 153 38 172 -13 z m 472 874 b 459 952 443 892 437 920 b 545 1113 495 1001 524 1059 b 643 1139 560 1160 606 1160 b 669 1041 680 1116 691 1083 b 552 894 642 991 601 939 b 472 874 524 868 501 855 z "},"ř":{"ha":861,"x_min":0,"x_max":0,"o":"m 221 -25 b 333 63 273 -37 310 3 b 640 593 406 264 537 476 l 660 587 b 656 376 644 517 643 434 b 745 303 668 324 696 293 b 803 432 782 311 803 344 b 779 669 803 494 798 608 b 692 740 766 712 738 740 b 344 330 573 740 449 562 l 325 333 b 393 622 369 449 393 552 b 287 740 393 688 357 740 b 131 703 241 740 178 724 b 72 608 86 686 59 657 b 158 567 85 559 122 559 b 252 602 188 573 225 589 l 268 585 b 172 101 267 472 212 238 b 221 -25 153 38 172 -13 z m 259 1113 b 367 1106 288 1140 331 1131 b 520 978 411 1077 468 1028 b 622 1110 558 1019 593 1067 b 701 1117 643 1139 677 1139 b 706 1038 726 1095 725 1066 b 589 899 673 989 632 936 b 447 900 546 863 493 858 b 339 994 419 927 381 963 b 256 1009 314 983 280 985 b 259 1113 226 1040 233 1090 z "},"ŗ":{"ha":861,"x_min":0,"x_max":0,"o":"m 221 -25 b 333 63 273 -37 310 3 b 640 593 406 264 537 476 l 660 587 b 656 376 644 517 643 434 b 745 303 668 324 696 293 b 803 432 782 311 803 344 b 779 669 803 494 798 608 b 692 740 766 712 738 740 b 344 330 573 740 449 562 l 325 333 b 393 622 369 449 393 552 b 287 740 393 688 357 740 b 131 703 241 740 178 724 b 72 608 86 686 59 657 b 158 567 85 559 122 559 b 252 602 188 573 225 589 l 268 585 b 172 101 267 472 212 238 b 221 -25 153 38 172 -13 z m 137 -524 b 209 -477 167 -529 191 -509 b 288 -252 238 -426 278 -331 b 219 -164 293 -206 270 -170 b 130 -233 172 -158 128 -178 b 98 -455 132 -319 115 -402 b 137 -524 87 -490 105 -519 z "},"s":{"ha":861,"x_min":0,"x_max":0,"o":"m 366 -26 b 688 165 528 -26 688 39 b 504 369 688 255 603 313 b 321 524 424 415 321 467 b 593 624 321 593 465 638 l 603 612 b 579 510 603 582 579 560 b 734 519 579 415 734 414 b 723 567 734 538 731 554 b 534 749 747 649 710 749 b 178 515 353 749 178 649 b 376 298 178 410 288 349 b 537 163 456 251 537 203 b 375 99 537 115 445 99 b 185 140 289 99 225 122 b 103 105 148 156 117 140 b 131 22 88 65 107 37 b 366 -26 172 -4 267 -26 z "},"ś":{"ha":861,"x_min":0,"x_max":0,"o":"m 366 -26 b 688 165 528 -26 688 39 b 504 369 688 255 603 313 b 321 524 424 415 321 467 b 593 624 321 593 465 638 l 603 612 b 579 510 603 582 579 560 b 734 519 579 415 734 414 b 723 567 734 538 731 554 b 534 749 747 649 710 749 b 178 515 353 749 178 649 b 376 298 178 410 288 349 b 537 163 456 251 537 203 b 375 99 537 115 445 99 b 185 140 289 99 225 122 b 103 105 148 156 117 140 b 131 22 88 65 107 37 b 366 -26 172 -4 267 -26 z m 497 874 b 484 952 468 892 462 920 b 570 1113 520 1001 549 1059 b 668 1139 585 1160 631 1160 b 694 1041 705 1116 716 1083 b 577 894 667 991 626 939 b 497 874 549 868 526 855 z "},"š":{"ha":861,"x_min":0,"x_max":0,"o":"m 366 -26 b 688 165 528 -26 688 39 b 504 369 688 255 603 313 b 321 524 424 415 321 467 b 593 624 321 593 465 638 l 603 612 b 579 510 603 582 579 560 b 734 519 579 415 734 414 b 723 567 734 538 731 554 b 534 749 747 649 710 749 b 178 515 353 749 178 649 b 376 298 178 410 288 349 b 537 163 456 251 537 203 b 375 99 537 115 445 99 b 185 140 289 99 225 122 b 103 105 148 156 117 140 b 131 22 88 65 107 37 b 366 -26 172 -4 267 -26 z m 284 1113 b 392 1106 313 1140 356 1131 b 545 978 436 1077 493 1028 b 647 1110 583 1019 618 1067 b 726 1117 668 1139 702 1139 b 731 1038 751 1095 750 1066 b 614 899 698 989 657 936 b 472 900 571 863 518 858 b 364 994 444 927 406 963 b 281 1009 339 983 305 985 b 284 1113 251 1040 258 1090 z "},"ş":{"ha":861,"x_min":0,"x_max":0,"o":"m 103 105 b 131 22 88 65 107 37 b 303 -23 163 1 228 -16 b 249 -133 289 -60 267 -103 b 291 -232 221 -182 250 -219 b 381 -183 332 -245 368 -232 b 413 -44 399 -135 407 -91 b 413 -24 413 -37 413 -31 b 688 165 558 -12 688 51 b 504 369 688 255 603 313 b 321 524 424 415 321 467 b 593 624 321 593 465 638 l 603 612 b 579 510 603 582 579 560 b 734 519 579 415 734 414 b 723 567 734 538 731 554 b 534 749 747 649 710 749 b 178 515 353 749 178 649 b 376 298 178 410 288 349 b 537 163 456 251 537 203 b 375 99 537 115 445 99 b 185 140 289 99 225 122 b 103 105 148 156 117 140 z "},"ŝ":{"ha":861,"x_min":0,"x_max":0,"o":"m 366 -26 b 688 165 528 -26 688 39 b 504 369 688 255 603 313 b 321 524 424 415 321 467 b 593 624 321 593 465 638 l 603 612 b 579 510 603 582 579 560 b 734 519 579 415 734 414 b 723 567 734 538 731 554 b 534 749 747 649 710 749 b 178 515 353 749 178 649 b 376 298 178 410 288 349 b 537 163 456 251 537 203 b 375 99 537 115 445 99 b 185 140 289 99 225 122 b 103 105 148 156 117 140 b 131 22 88 65 107 37 b 366 -26 172 -4 267 -26 z m 275 897 b 382 904 304 871 347 880 b 536 1032 427 933 484 981 b 638 900 574 991 609 943 b 717 894 658 872 692 872 b 721 973 742 915 741 944 b 604 1112 688 1022 647 1074 b 462 1110 562 1147 509 1152 b 355 1016 435 1083 396 1047 b 272 1001 330 1027 296 1026 b 275 897 242 970 249 921 z "},"ș":{"ha":861,"x_min":0,"x_max":0,"o":"m 366 -26 b 688 165 528 -26 688 39 b 504 369 688 255 603 313 b 321 524 424 415 321 467 b 593 624 321 593 465 638 l 603 612 b 579 510 603 582 579 560 b 734 519 579 415 734 414 b 723 567 734 538 731 554 b 534 749 747 649 710 749 b 178 515 353 749 178 649 b 376 298 178 410 288 349 b 537 163 456 251 537 203 b 375 99 537 115 445 99 b 185 140 289 99 225 122 b 103 105 148 156 117 140 b 131 22 88 65 107 37 b 366 -26 172 -4 267 -26 z m 313 -524 b 385 -477 343 -529 367 -509 b 464 -252 415 -426 455 -331 b 396 -164 469 -206 447 -170 b 306 -233 349 -158 304 -178 b 274 -455 308 -319 291 -402 b 313 -524 263 -490 281 -519 z "},"ß":{"ha":861,"x_min":0,"x_max":0,"o":"m 163 -16 b 241 64 210 -16 235 12 b 292 571 249 136 282 482 b 513 935 314 774 369 935 b 640 821 583 935 640 897 b 469 610 640 726 551 645 b 415 528 433 594 406 569 b 498 472 423 489 453 468 b 670 332 578 479 670 438 b 439 110 670 211 555 110 b 376 49 400 110 376 88 b 447 -21 376 5 399 -21 b 806 338 603 -21 806 125 b 603 572 806 465 733 554 b 778 835 703 632 778 712 b 517 1063 778 990 657 1063 b 146 576 284 1063 176 878 b 100 83 138 488 106 154 b 163 -16 94 19 115 -16 z "},"t":{"ha":861,"x_min":0,"x_max":0,"o":"m 398 -21 b 722 222 544 -21 670 117 b 698 325 742 263 738 306 b 604 287 663 342 633 329 b 417 115 551 209 486 115 b 354 214 369 115 354 159 b 403 531 354 281 376 403 l 653 556 b 724 634 697 560 728 596 b 645 695 720 672 687 699 l 435 674 b 495 915 459 777 483 869 b 449 1019 513 980 486 1011 b 352 937 399 1030 368 996 b 285 658 335 872 309 769 l 144 644 b 78 569 106 640 74 606 b 156 505 82 530 115 501 l 254 515 b 210 198 229 390 210 269 b 398 -21 210 62 274 -21 z "},"ŧ":{"ha":861,"x_min":0,"x_max":0,"o":"m 397 -21 b 703 176 546 -21 666 99 b 678 278 722 216 718 260 b 583 242 643 295 613 283 b 422 115 547 192 488 115 b 354 218 370 115 354 159 b 374 389 354 260 362 320 l 658 421 b 715 495 701 426 721 463 b 641 545 708 526 683 549 l 399 518 b 431 664 409 567 420 617 l 674 691 b 729 766 717 696 735 733 b 655 815 724 796 697 820 l 463 794 l 495 915 b 451 1019 513 980 486 1011 b 352 937 399 1031 368 996 b 312 777 341 896 327 840 l 147 759 b 93 690 110 755 88 720 b 165 635 98 657 125 630 l 281 647 b 251 502 271 599 260 550 l 132 489 b 78 419 94 485 74 449 b 151 364 83 387 110 359 l 227 372 b 210 205 217 307 210 249 b 397 -21 210 62 275 -21 z "},"ť":{"ha":861,"x_min":0,"x_max":0,"o":"m 398 -21 b 722 222 544 -21 670 117 b 698 325 742 263 738 306 b 604 287 663 342 633 329 b 417 115 551 209 486 115 b 354 214 369 115 354 159 b 403 531 354 281 376 403 l 653 556 b 724 634 697 560 728 596 b 645 695 720 672 687 699 l 435 674 b 495 915 459 777 483 869 b 449 1019 513 980 486 1011 b 352 937 399 1030 368 996 b 285 658 335 872 309 769 l 144 644 b 78 569 106 640 74 606 b 156 505 82 530 115 501 l 254 515 b 210 198 229 390 210 269 b 398 -21 210 62 274 -21 z m 700 850 b 763 901 734 846 750 865 b 794 1040 778 944 790 988 b 731 1119 801 1085 774 1113 b 653 1050 689 1124 649 1106 b 654 917 657 1012 658 959 b 700 850 650 880 665 854 z "},"ţ":{"ha":861,"x_min":0,"x_max":0,"o":"m 156 505 l 254 515 b 210 198 229 390 210 269 b 331 -11 210 89 251 15 l 330 -14 b 274 -133 317 -53 293 -100 b 315 -232 245 -182 274 -219 b 406 -183 356 -245 392 -232 b 437 -44 423 -135 431 -91 b 437 -17 438 -35 438 -26 b 722 222 567 3 675 126 b 698 325 742 263 738 306 b 604 287 663 342 633 329 b 417 115 551 209 486 115 b 354 214 369 115 354 159 b 403 531 354 281 376 403 l 653 556 b 724 634 697 560 728 596 b 645 695 720 672 687 699 l 435 674 b 495 915 459 777 483 869 b 449 1019 513 980 486 1011 b 352 937 399 1030 368 996 b 285 658 335 872 309 769 l 144 644 b 78 569 106 640 74 606 b 156 505 82 530 115 501 z "},"ț":{"ha":861,"x_min":0,"x_max":0,"o":"m 398 -21 b 722 222 544 -21 670 117 b 698 325 742 263 738 306 b 604 287 663 342 633 329 b 417 115 551 209 486 115 b 354 214 369 115 354 159 b 403 531 354 281 376 403 l 653 556 b 724 634 697 560 728 596 b 645 695 720 672 687 699 l 435 674 b 495 915 459 777 483 869 b 449 1019 513 980 486 1011 b 352 937 399 1030 368 996 b 285 658 335 872 309 769 l 144 644 b 78 569 106 640 74 606 b 156 505 82 530 115 501 l 254 515 b 210 198 229 390 210 269 b 398 -21 210 62 274 -21 z m 338 -524 b 410 -477 367 -529 392 -509 b 488 -252 439 -426 479 -331 b 420 -164 494 -206 471 -170 b 331 -233 373 -158 328 -178 b 299 -455 333 -319 315 -402 b 338 -524 288 -490 306 -519 z "},"u":{"ha":861,"x_min":0,"x_max":0,"o":"m 674 -19 b 761 72 722 -19 761 19 b 714 160 761 110 744 145 b 778 627 726 291 756 478 b 730 742 788 692 774 737 b 631 662 684 749 651 715 b 281 113 546 441 392 113 b 218 235 239 113 218 160 b 274 631 218 374 274 538 b 188 740 274 703 240 740 b 100 648 139 740 100 708 b 126 568 100 616 110 587 b 80 213 107 473 80 326 b 252 -16 80 54 159 -16 b 581 310 369 -16 465 92 l 606 310 b 583 94 592 238 583 167 b 674 -19 583 22 621 -19 z "},"ú":{"ha":861,"x_min":0,"x_max":0,"o":"m 674 -19 b 761 72 722 -19 761 19 b 714 160 761 110 744 145 b 778 627 726 291 756 478 b 730 742 788 692 774 737 b 631 662 684 749 651 715 b 281 113 546 441 392 113 b 218 235 239 113 218 160 b 274 631 218 374 274 538 b 188 740 274 703 240 740 b 100 648 139 740 100 708 b 126 568 100 616 110 587 b 80 213 107 473 80 326 b 252 -16 80 54 159 -16 b 581 310 369 -16 465 92 l 606 310 b 583 94 592 238 583 167 b 674 -19 583 22 621 -19 z m 449 874 b 435 952 420 892 414 920 b 522 1113 472 1001 501 1059 b 619 1139 536 1160 583 1160 b 645 1041 657 1116 667 1083 b 529 894 619 991 578 939 b 449 874 501 868 478 855 z "},"ŭ":{"ha":861,"x_min":0,"x_max":0,"o":"m 674 -19 b 761 72 722 -19 761 19 b 714 160 761 110 744 145 b 778 627 726 291 756 478 b 730 742 788 692 774 737 b 631 662 684 749 651 715 b 281 113 546 441 392 113 b 218 235 239 113 218 160 b 274 631 218 374 274 538 b 188 740 274 703 240 740 b 100 648 139 740 100 708 b 126 568 100 616 110 587 b 80 213 107 473 80 326 b 252 -16 80 54 159 -16 b 581 310 369 -16 465 92 l 606 310 b 583 94 592 238 583 167 b 674 -19 583 22 621 -19 z m 478 879 b 696 1063 606 879 684 946 b 649 1128 701 1103 681 1127 b 590 1076 616 1131 599 1110 b 478 981 578 1015 540 981 b 366 1065 411 981 377 1015 b 306 1118 356 1100 339 1120 b 258 1050 274 1117 253 1093 b 478 879 270 946 345 879 z "},"û":{"ha":861,"x_min":0,"x_max":0,"o":"m 674 -19 b 761 72 722 -19 761 19 b 714 160 761 110 744 145 b 778 627 726 291 756 478 b 730 742 788 692 774 737 b 631 662 684 749 651 715 b 281 113 546 441 392 113 b 218 235 239 113 218 160 b 274 631 218 374 274 538 b 188 740 274 703 240 740 b 100 648 139 740 100 708 b 126 568 100 616 110 587 b 80 213 107 473 80 326 b 252 -16 80 54 159 -16 b 581 310 369 -16 465 92 l 606 310 b 583 94 592 238 583 167 b 674 -19 583 22 621 -19 z m 226 897 b 334 904 256 871 298 880 b 488 1033 379 933 435 982 b 590 900 526 991 560 943 b 669 894 610 872 644 872 b 673 973 693 915 692 944 b 556 1112 640 1022 599 1074 b 414 1110 513 1147 460 1152 b 306 1016 387 1083 348 1047 b 224 1001 281 1027 247 1026 b 226 897 194 970 200 921 z "},"ü":{"ha":861,"x_min":0,"x_max":0,"o":"m 674 -19 b 761 72 722 -19 761 19 b 714 160 761 110 744 145 b 778 627 726 291 756 478 b 730 742 788 692 774 737 b 631 662 684 749 651 715 b 281 113 546 441 392 113 b 218 235 239 113 218 160 b 274 631 218 374 274 538 b 188 740 274 703 240 740 b 100 648 139 740 100 708 b 126 568 100 616 110 587 b 80 213 107 473 80 326 b 252 -16 80 54 159 -16 b 581 310 369 -16 465 92 l 606 310 b 583 94 592 238 583 167 b 674 -19 583 22 621 -19 z m 294 873 b 397 985 343 873 397 915 b 290 1092 397 1050 349 1092 b 182 985 233 1092 182 1051 b 231 915 182 942 201 916 b 294 873 244 888 268 873 z m 537 971 b 651 873 537 917 582 873 b 769 985 724 873 769 924 b 658 1099 769 1046 726 1099 b 583 1046 618 1099 590 1080 b 537 971 555 1033 537 1006 z "},"ụ":{"ha":861,"x_min":0,"x_max":0,"o":"m 674 -19 b 761 72 722 -19 761 19 b 714 160 761 110 744 145 b 778 627 726 291 756 478 b 730 742 788 692 774 737 b 631 662 684 749 651 715 b 281 113 546 441 392 113 b 218 235 239 113 218 160 b 274 631 218 374 274 538 b 188 740 274 703 240 740 b 100 648 139 740 100 708 b 126 568 100 616 110 587 b 80 213 107 473 80 326 b 252 -16 80 54 159 -16 b 581 310 369 -16 465 92 l 606 310 b 583 94 592 238 583 167 b 674 -19 583 22 621 -19 z m 383 -369 b 494 -256 435 -369 494 -327 b 378 -150 494 -192 442 -150 b 260 -257 316 -150 260 -191 b 313 -328 260 -300 281 -326 b 383 -369 327 -353 353 -369 z "},"ù":{"ha":861,"x_min":0,"x_max":0,"o":"m 674 -19 b 761 72 722 -19 761 19 b 714 160 761 110 744 145 b 778 627 726 291 756 478 b 730 742 788 692 774 737 b 631 662 684 749 651 715 b 281 113 546 441 392 113 b 218 235 239 113 218 160 b 274 631 218 374 274 538 b 188 740 274 703 240 740 b 100 648 139 740 100 708 b 126 568 100 616 110 587 b 80 213 107 473 80 326 b 252 -16 80 54 159 -16 b 581 310 369 -16 465 92 l 606 310 b 583 94 592 238 583 167 b 674 -19 583 22 621 -19 z m 501 874 b 514 952 530 892 536 920 b 428 1113 478 1001 449 1059 b 330 1139 413 1160 367 1160 b 304 1041 293 1116 282 1083 b 421 894 331 991 372 939 b 501 874 449 868 472 855 z "},"ű":{"ha":861,"x_min":0,"x_max":0,"o":"m 674 -19 b 761 72 722 -19 761 19 b 714 160 761 110 744 145 b 778 627 726 291 756 478 b 730 742 788 692 774 737 b 631 662 684 749 651 715 b 281 113 546 441 392 113 b 218 235 239 113 218 160 b 274 631 218 374 274 538 b 188 740 274 703 240 740 b 100 648 139 740 100 708 b 126 568 100 616 110 587 b 80 213 107 473 80 326 b 252 -16 80 54 159 -16 b 581 310 369 -16 465 92 l 606 310 b 583 94 592 238 583 167 b 674 -19 583 22 621 -19 z m 583 885 b 664 906 613 867 638 879 b 754 1034 697 942 732 988 b 725 1127 774 1075 758 1109 b 625 1094 682 1151 636 1140 b 567 960 608 1044 591 1003 b 583 885 552 931 553 903 z m 319 895 b 397 917 347 880 371 890 b 478 1028 426 945 461 992 b 439 1123 497 1068 479 1103 b 351 1082 395 1144 359 1129 b 303 961 340 1033 322 994 b 319 895 288 932 294 909 z "},"ū":{"ha":861,"x_min":0,"x_max":0,"o":"m 674 -19 b 761 72 722 -19 761 19 b 714 160 761 110 744 145 b 778 627 726 291 756 478 b 730 742 788 692 774 737 b 631 662 684 749 651 715 b 281 113 546 441 392 113 b 218 235 239 113 218 160 b 274 631 218 374 274 538 b 188 740 274 703 240 740 b 100 648 139 740 100 708 b 126 568 100 616 110 587 b 80 213 107 473 80 326 b 252 -16 80 54 159 -16 b 581 310 369 -16 465 92 l 606 310 b 583 94 592 238 583 167 b 674 -19 583 22 621 -19 z m 301 913 l 650 915 b 703 973 681 915 703 938 b 649 1027 702 1007 679 1028 l 299 1012 b 247 962 269 1010 247 990 b 301 913 248 934 271 914 z "},"ų":{"ha":861,"x_min":0,"x_max":0,"o":"m 644 -296 b 722 -250 693 -299 715 -281 b 683 -195 727 -221 712 -201 b 624 -135 647 -187 624 -171 b 710 -12 624 -92 658 -53 b 761 72 740 2 761 33 b 714 160 761 110 744 145 b 778 627 726 291 756 478 b 730 742 788 692 774 737 b 631 662 684 749 651 715 b 281 113 546 441 392 113 b 218 235 239 113 218 160 b 274 631 218 374 274 538 b 188 740 274 703 240 740 b 100 648 139 740 100 708 b 126 568 100 616 110 587 b 80 213 107 473 80 326 b 252 -16 80 54 159 -16 b 581 310 369 -16 465 92 l 606 310 b 583 94 592 238 583 167 b 615 3 583 54 595 23 b 491 -169 529 -58 491 -113 b 644 -296 491 -235 536 -290 z "},"ů":{"ha":861,"x_min":0,"x_max":0,"o":"m 674 -19 b 761 72 722 -19 761 19 b 714 160 761 110 744 145 b 778 627 726 291 756 478 b 730 742 788 692 774 737 b 631 662 684 749 651 715 b 281 113 546 441 392 113 b 218 235 239 113 218 160 b 274 631 218 374 274 538 b 188 740 274 703 240 740 b 100 648 139 740 100 708 b 126 568 100 616 110 587 b 80 213 107 473 80 326 b 252 -16 80 54 159 -16 b 581 310 369 -16 465 92 l 606 310 b 583 94 592 238 583 167 b 674 -19 583 22 621 -19 z m 454 841 b 640 1010 565 841 640 915 b 599 1117 640 1063 619 1097 l 601 1120 b 592 1174 610 1138 608 1161 b 490 1203 568 1193 528 1203 b 296 999 374 1203 296 1109 b 454 841 296 894 372 841 z m 391 1008 b 491 1113 391 1058 432 1113 b 519 1108 502 1113 511 1110 b 525 1054 506 1089 513 1067 b 547 1001 536 1043 547 1025 b 461 931 544 963 514 931 b 391 1008 421 931 391 960 z "},"ũ":{"ha":861,"x_min":0,"x_max":0,"o":"m 674 -19 b 761 72 722 -19 761 19 b 714 160 761 110 744 145 b 778 627 726 291 756 478 b 730 742 788 692 774 737 b 631 662 684 749 651 715 b 281 113 546 441 392 113 b 218 235 239 113 218 160 b 274 631 218 374 274 538 b 188 740 274 703 240 740 b 100 648 139 740 100 708 b 126 568 100 616 110 587 b 80 213 107 473 80 326 b 252 -16 80 54 159 -16 b 581 310 369 -16 465 92 l 606 310 b 583 94 592 238 583 167 b 674 -19 583 22 621 -19 z m 586 871 b 739 1027 662 871 715 926 b 701 1096 748 1063 733 1088 b 628 1053 665 1106 642 1088 b 567 990 614 1015 595 990 b 363 1092 505 990 473 1092 b 209 983 291 1092 235 1047 b 244 901 192 941 209 911 b 315 938 277 891 299 903 b 378 983 328 967 350 983 b 586 871 440 983 473 871 z "},"v":{"ha":861,"x_min":0,"x_max":0,"o":"m 375 -17 b 524 115 445 -17 476 32 b 774 651 605 247 725 497 b 740 766 794 713 781 752 b 643 710 700 780 659 762 b 398 137 585 519 485 301 l 374 144 b 320 621 356 292 336 506 b 224 724 312 689 276 724 b 138 638 176 724 138 692 b 191 548 138 603 157 563 b 247 147 208 419 231 241 b 375 -17 265 37 303 -17 z "},"w":{"ha":861,"x_min":0,"x_max":0,"o":"m 144 -11 b 267 90 194 -11 229 28 b 384 330 309 159 355 253 l 404 320 b 403 115 401 238 401 166 b 486 -9 410 38 434 -9 b 640 154 545 -9 590 53 b 815 650 699 279 773 478 b 783 758 830 713 822 750 b 693 661 740 767 715 734 b 520 181 649 507 589 342 l 498 190 b 515 504 503 287 515 431 b 461 608 515 565 503 599 b 365 517 419 615 396 589 b 201 167 323 419 267 281 l 181 176 b 249 622 219 328 249 515 b 153 753 249 710 210 753 b 72 673 105 753 72 724 b 128 585 72 637 92 607 b 64 123 105 403 64 240 b 144 -11 64 34 90 -11 z "},"ẃ":{"ha":861,"x_min":0,"x_max":0,"o":"m 144 -11 b 267 90 194 -11 229 28 b 384 330 309 159 355 253 l 404 320 b 403 115 401 238 401 166 b 486 -9 410 38 434 -9 b 640 154 545 -9 590 53 b 815 650 699 279 773 478 b 783 758 830 713 822 750 b 693 661 740 767 715 734 b 520 181 649 507 589 342 l 498 190 b 515 504 503 287 515 431 b 461 608 515 565 503 599 b 365 517 419 615 396 589 b 201 167 323 419 267 281 l 181 176 b 249 622 219 328 249 515 b 153 753 249 710 210 753 b 72 673 105 753 72 724 b 128 585 72 637 92 607 b 64 123 105 403 64 240 b 144 -11 64 34 90 -11 z m 455 874 b 442 952 426 892 419 920 b 528 1113 478 1001 507 1059 b 626 1139 542 1160 588 1160 b 651 1041 663 1116 674 1083 b 535 894 624 991 584 939 b 455 874 507 868 484 855 z "},"ŵ":{"ha":861,"x_min":0,"x_max":0,"o":"m 144 -11 b 267 90 194 -11 229 28 b 384 330 309 159 355 253 l 404 320 b 403 115 401 238 401 166 b 486 -9 410 38 434 -9 b 640 154 545 -9 590 53 b 815 650 699 279 773 478 b 783 758 830 713 822 750 b 693 661 740 767 715 734 b 520 181 649 507 589 342 l 498 190 b 515 504 503 287 515 431 b 461 608 515 565 503 599 b 365 517 419 615 396 589 b 201 167 323 419 267 281 l 181 176 b 249 622 219 328 249 515 b 153 753 249 710 210 753 b 72 673 105 753 72 724 b 128 585 72 637 92 607 b 64 123 105 403 64 240 b 144 -11 64 34 90 -11 z m 233 897 b 340 904 262 871 304 880 b 494 1032 385 933 442 981 b 596 900 532 991 567 943 b 674 894 616 872 650 872 b 678 973 699 915 699 944 b 562 1112 646 1022 605 1074 b 419 1110 519 1147 467 1152 b 313 1016 392 1083 353 1047 b 230 1001 288 1027 253 1026 b 233 897 200 970 206 921 z "},"ẅ":{"ha":861,"x_min":0,"x_max":0,"o":"m 144 -11 b 267 90 194 -11 229 28 b 384 330 309 159 355 253 l 404 320 b 403 115 401 238 401 166 b 486 -9 410 38 434 -9 b 640 154 545 -9 590 53 b 815 650 699 279 773 478 b 783 758 830 713 822 750 b 693 661 740 767 715 734 b 520 181 649 507 589 342 l 498 190 b 515 504 503 287 515 431 b 461 608 515 565 503 599 b 365 517 419 615 396 589 b 201 167 323 419 267 281 l 181 176 b 249 622 219 328 249 515 b 153 753 249 710 210 753 b 72 673 105 753 72 724 b 128 585 72 637 92 607 b 64 123 105 403 64 240 b 144 -11 64 34 90 -11 z m 301 873 b 403 985 349 873 403 915 b 297 1092 403 1050 355 1092 b 188 985 240 1092 188 1051 b 237 915 188 942 207 916 b 301 873 250 888 274 873 z m 543 971 b 656 873 543 917 588 873 b 775 985 731 873 775 924 b 664 1099 775 1046 732 1099 b 589 1045 624 1099 594 1080 b 543 971 561 1032 543 1006 z "},"ẁ":{"ha":861,"x_min":0,"x_max":0,"o":"m 144 -11 b 267 90 194 -11 229 28 b 384 330 309 159 355 253 l 404 320 b 403 115 401 238 401 166 b 486 -9 410 38 434 -9 b 640 154 545 -9 590 53 b 815 650 699 279 773 478 b 783 758 830 713 822 750 b 693 661 740 767 715 734 b 520 181 649 507 589 342 l 498 190 b 515 504 503 287 515 431 b 461 608 515 565 503 599 b 365 517 419 615 396 589 b 201 167 323 419 267 281 l 181 176 b 249 622 219 328 249 515 b 153 753 249 710 210 753 b 72 673 105 753 72 724 b 128 585 72 637 92 607 b 64 123 105 403 64 240 b 144 -11 64 34 90 -11 z m 506 874 b 520 952 535 892 542 920 b 434 1113 484 1001 455 1059 b 336 1139 419 1160 373 1160 b 310 1041 299 1116 288 1083 b 426 894 337 991 378 939 b 506 874 454 868 477 855 z "},"x":{"ha":861,"x_min":0,"x_max":0,"o":"m 110 2 b 212 22 140 -23 183 -7 b 370 191 252 64 308 124 b 587 -5 431 113 505 42 b 702 -1 631 -29 672 -38 b 668 101 729 31 717 74 b 460 290 594 142 520 208 b 710 572 549 387 640 488 b 725 571 715 572 720 571 b 800 660 772 571 800 618 b 725 741 800 703 772 741 b 616 672 687 741 656 717 b 388 410 562 611 478 513 b 329 599 360 470 339 534 b 358 671 350 616 358 646 b 274 756 358 721 321 756 b 186 642 222 756 186 712 b 294 304 186 547 226 422 b 113 108 230 232 167 163 b 110 2 76 75 78 28 z "},"y":{"ha":861,"x_min":0,"x_max":0,"o":"m 324 -295 b 656 48 494 -295 617 -161 b 747 588 694 250 732 472 b 697 733 760 683 749 733 b 573 614 651 733 617 695 b 286 180 517 508 409 309 l 272 185 b 323 648 322 385 340 557 b 222 765 313 708 286 765 b 135 683 172 765 135 738 b 197 594 135 644 155 615 b 153 224 194 459 169 343 b 242 50 140 111 167 50 b 409 160 299 50 352 89 b 564 395 456 219 508 300 l 586 390 l 525 70 b 338 -174 493 -98 426 -174 b 196 -110 288 -174 238 -153 b 91 -106 160 -80 119 -73 b 102 -204 64 -138 74 -174 b 324 -295 153 -260 238 -295 z "},"ý":{"ha":861,"x_min":0,"x_max":0,"o":"m 324 -295 b 656 48 494 -295 617 -161 b 747 588 694 250 732 472 b 697 733 760 683 749 733 b 573 614 651 733 617 695 b 286 180 517 508 409 309 l 272 185 b 323 648 322 385 340 557 b 222 765 313 708 286 765 b 135 683 172 765 135 738 b 197 594 135 644 155 615 b 153 224 194 459 169 343 b 242 50 140 111 167 50 b 409 160 299 50 352 89 b 564 395 456 219 508 300 l 586 390 l 525 70 b 338 -174 493 -98 426 -174 b 196 -110 288 -174 238 -153 b 91 -106 160 -80 119 -73 b 102 -204 64 -138 74 -174 b 324 -295 153 -260 238 -295 z m 454 874 b 440 952 425 892 419 920 b 526 1113 476 1001 506 1059 b 624 1139 541 1160 588 1160 b 650 1041 662 1116 672 1083 b 534 894 624 991 583 939 b 454 874 506 868 483 855 z "},"ŷ":{"ha":861,"x_min":0,"x_max":0,"o":"m 324 -295 b 656 48 494 -295 617 -161 b 747 588 694 250 732 472 b 697 733 760 683 749 733 b 573 614 651 733 617 695 b 286 180 517 508 409 309 l 272 185 b 323 648 322 385 340 557 b 222 765 313 708 286 765 b 135 683 172 765 135 738 b 197 594 135 644 155 615 b 153 224 194 459 169 343 b 242 50 140 111 167 50 b 409 160 299 50 352 89 b 564 395 456 219 508 300 l 586 390 l 525 70 b 338 -174 493 -98 426 -174 b 196 -110 288 -174 238 -153 b 91 -106 160 -80 119 -73 b 102 -204 64 -138 74 -174 b 324 -295 153 -260 238 -295 z m 231 897 b 339 904 260 871 303 880 b 492 1033 384 933 440 982 b 594 900 531 991 565 943 b 674 894 615 872 649 872 b 678 973 698 915 697 944 b 561 1112 645 1022 604 1074 b 419 1110 518 1147 465 1152 b 311 1016 392 1083 353 1047 b 228 1001 286 1027 252 1026 b 231 897 199 970 205 921 z "},"ÿ":{"ha":861,"x_min":0,"x_max":0,"o":"m 324 -295 b 656 48 494 -295 617 -161 b 747 588 694 250 732 472 b 697 733 760 683 749 733 b 573 614 651 733 617 695 b 286 180 517 508 409 309 l 272 185 b 323 648 322 385 340 557 b 222 765 313 708 286 765 b 135 683 172 765 135 738 b 197 594 135 644 155 615 b 153 224 194 459 169 343 b 242 50 140 111 167 50 b 409 160 299 50 352 89 b 564 395 456 219 508 300 l 586 390 l 525 70 b 338 -174 493 -98 426 -174 b 196 -110 288 -174 238 -153 b 91 -106 160 -80 119 -73 b 102 -204 64 -138 74 -174 b 324 -295 153 -260 238 -295 z m 299 873 b 402 985 348 873 402 915 b 295 1092 402 1050 353 1092 b 187 985 238 1092 187 1051 b 235 915 187 942 206 916 b 299 873 249 888 273 873 z m 542 971 b 656 873 542 917 587 873 b 774 985 729 873 774 924 b 663 1099 774 1046 731 1099 b 588 1046 623 1099 594 1080 b 542 971 560 1033 542 1006 z "},"ỳ":{"ha":861,"x_min":0,"x_max":0,"o":"m 324 -295 b 656 48 494 -295 617 -161 b 747 588 694 250 732 472 b 697 733 760 683 749 733 b 573 614 651 733 617 695 b 286 180 517 508 409 309 l 272 185 b 323 648 322 385 340 557 b 222 765 313 708 286 765 b 135 683 172 765 135 738 b 197 594 135 644 155 615 b 153 224 194 459 169 343 b 242 50 140 111 167 50 b 409 160 299 50 352 89 b 564 395 456 219 508 300 l 586 390 l 525 70 b 338 -174 493 -98 426 -174 b 196 -110 288 -174 238 -153 b 91 -106 160 -80 119 -73 b 102 -204 64 -138 74 -174 b 324 -295 153 -260 238 -295 z m 506 874 b 519 952 535 892 541 920 b 433 1113 483 1001 453 1059 b 335 1139 418 1160 372 1160 b 309 1041 298 1116 287 1083 b 426 894 336 991 376 939 b 506 874 453 868 476 855 z "},"ȳ":{"ha":861,"x_min":0,"x_max":0,"o":"m 324 -295 b 656 48 494 -295 617 -161 b 747 588 694 250 732 472 b 697 733 760 683 749 733 b 573 614 651 733 617 695 b 286 180 517 508 409 309 l 272 185 b 323 648 322 385 340 557 b 222 765 313 708 286 765 b 135 683 172 765 135 738 b 197 594 135 644 155 615 b 153 224 194 459 169 343 b 242 50 140 111 167 50 b 409 160 299 50 352 89 b 564 395 456 219 508 300 l 586 390 l 525 70 b 338 -174 493 -98 426 -174 b 196 -110 288 -174 238 -153 b 91 -106 160 -80 119 -73 b 102 -204 64 -138 74 -174 b 324 -295 153 -260 238 -295 z m 306 913 l 655 915 b 708 973 685 915 708 938 b 653 1027 707 1007 684 1028 l 304 1012 b 252 962 274 1010 251 990 b 306 913 253 934 276 914 z "},"ỹ":{"ha":861,"x_min":0,"x_max":0,"o":"m 324 -295 b 656 48 494 -295 617 -161 b 747 588 694 250 732 472 b 697 733 760 683 749 733 b 573 614 651 733 617 695 b 286 180 517 508 409 309 l 272 185 b 323 648 322 385 340 557 b 222 765 313 708 286 765 b 135 683 172 765 135 738 b 197 594 135 644 155 615 b 153 224 194 459 169 343 b 242 50 140 111 167 50 b 409 160 299 50 352 89 b 564 395 456 219 508 300 l 586 390 l 525 70 b 338 -174 493 -98 426 -174 b 196 -110 288 -174 238 -153 b 91 -106 160 -80 119 -73 b 102 -204 64 -138 74 -174 b 324 -295 153 -260 238 -295 z m 591 871 b 744 1027 667 871 720 926 b 706 1096 753 1063 738 1088 b 633 1053 669 1106 647 1088 b 572 990 619 1015 600 990 b 368 1092 510 990 478 1092 b 214 983 296 1092 240 1047 b 249 901 197 941 214 911 b 319 938 282 891 303 903 b 383 983 333 967 355 983 b 591 871 445 983 478 871 z "},"z":{"ha":861,"x_min":0,"x_max":0,"o":"m 166 -12 b 592 42 253 -12 413 33 b 679 3 608 17 644 3 b 783 91 733 3 783 35 b 641 173 783 153 728 173 b 275 119 543 173 344 138 l 267 136 b 716 540 383 235 615 427 b 780 660 754 582 780 622 b 663 740 780 713 734 740 b 301 692 582 740 410 701 b 211 744 287 726 247 744 b 124 659 158 744 124 708 b 289 565 124 583 208 565 b 618 619 383 565 530 591 l 624 606 b 156 176 460 465 234 251 b 79 53 108 130 79 94 b 166 -12 79 10 113 -12 z "},"ź":{"ha":861,"x_min":0,"x_max":0,"o":"m 166 -12 b 592 42 253 -12 413 33 b 679 3 608 17 644 3 b 783 91 733 3 783 35 b 641 173 783 153 728 173 b 275 119 543 173 344 138 l 267 136 b 716 540 383 235 615 427 b 780 660 754 582 780 622 b 663 740 780 713 734 740 b 301 692 582 740 410 701 b 211 744 287 726 247 744 b 124 659 158 744 124 708 b 289 565 124 583 208 565 b 618 619 383 565 530 591 l 624 606 b 156 176 460 465 234 251 b 79 53 108 130 79 94 b 166 -12 79 10 113 -12 z m 428 874 b 415 952 399 892 392 920 b 501 1113 451 1001 480 1059 b 599 1139 515 1160 561 1160 b 624 1041 635 1116 647 1083 b 508 894 597 991 557 939 b 428 874 480 868 457 855 z "},"ž":{"ha":861,"x_min":0,"x_max":0,"o":"m 166 -12 b 592 42 253 -12 413 33 b 679 3 608 17 644 3 b 783 91 733 3 783 35 b 641 173 783 153 728 173 b 275 119 543 173 344 138 l 267 136 b 716 540 383 235 615 427 b 780 660 754 582 780 622 b 663 740 780 713 734 740 b 301 692 582 740 410 701 b 211 744 287 726 247 744 b 124 659 158 744 124 708 b 289 565 124 583 208 565 b 618 619 383 565 530 591 l 624 606 b 156 176 460 465 234 251 b 79 53 108 130 79 94 b 166 -12 79 10 113 -12 z m 215 1113 b 322 1106 244 1140 286 1131 b 476 978 367 1077 424 1028 b 578 1110 514 1019 549 1067 b 657 1117 599 1139 633 1139 b 661 1038 681 1095 681 1066 b 544 899 628 989 588 936 b 402 900 501 863 449 858 b 294 994 375 927 336 963 b 212 1009 269 983 235 985 b 215 1113 182 1040 188 1090 z "},"ż":{"ha":861,"x_min":0,"x_max":0,"o":"m 166 -12 b 592 42 253 -12 413 33 b 679 3 608 17 644 3 b 783 91 733 3 783 35 b 641 173 783 153 728 173 b 275 119 543 173 344 138 l 267 136 b 716 540 383 235 615 427 b 780 660 754 582 780 622 b 663 740 780 713 734 740 b 301 692 582 740 410 701 b 211 744 287 726 247 744 b 124 659 158 744 124 708 b 289 565 124 583 208 565 b 618 619 383 565 530 591 l 624 606 b 156 176 460 465 234 251 b 79 53 108 130 79 94 b 166 -12 79 10 113 -12 z m 457 874 b 568 987 510 874 568 917 b 452 1094 568 1052 516 1094 b 335 986 390 1094 335 1053 b 388 916 335 944 354 917 b 457 874 401 890 428 874 z "},"":{"ha":861,"x_min":0,"x_max":0,"o":"m 634 -1 b 476 200 634 117 581 200 b 348 142 417 200 376 174 l 343 142 l 343 367 l 252 367 l 252 -194 l 331 -194 l 337 -146 l 349 -146 b 473 -203 372 -178 413 -203 b 634 -1 578 -203 634 -121 z m 343 -99 l 343 96 b 435 125 373 117 403 125 b 541 -1 506 125 541 85 b 435 -128 541 -88 503 -128 b 343 -99 404 -128 373 -120 z "},"":{"ha":861,"x_min":0,"x_max":0,"o":"m 628 -74 l 541 -62 b 435 -132 526 -105 491 -132 b 320 -1 364 -132 320 -90 b 435 129 320 83 360 129 b 540 53 492 129 531 103 l 628 60 b 438 200 619 153 544 200 b 227 -1 316 200 227 137 b 433 -203 227 -133 310 -203 b 628 -74 523 -203 604 -167 z "},"":{"ha":861,"x_min":0,"x_max":0,"o":"m 227 -3 b 385 -203 227 -120 280 -203 b 513 -146 444 -203 485 -178 l 525 -146 l 531 -194 l 609 -194 l 609 367 l 518 367 l 518 142 l 513 142 b 389 200 488 174 449 200 b 227 -3 283 200 227 117 z m 320 -3 b 426 125 320 84 358 125 b 518 97 458 125 489 117 l 518 -99 b 426 -128 488 -120 458 -128 b 320 -3 356 -128 320 -88 z "},"":{"ha":861,"x_min":0,"x_max":0,"o":"m 632 310 l 632 387 b 538 398 603 394 572 398 b 350 208 416 398 350 346 l 350 191 l 224 191 l 224 118 l 350 118 l 350 -121 l 248 -121 l 248 -194 l 577 -194 l 577 -121 l 441 -121 l 441 118 l 618 118 l 618 191 l 441 191 l 441 226 b 542 320 441 301 474 320 b 632 310 574 320 601 316 z "},"":{"ha":861,"x_min":0,"x_max":0,"o":"m 227 19 b 385 -160 227 -87 285 -160 b 513 -103 444 -160 485 -135 l 518 -103 l 518 -182 b 419 -278 518 -255 477 -278 b 322 -220 370 -278 338 -260 l 239 -237 b 419 -341 254 -297 301 -341 b 609 -172 544 -341 609 -292 l 609 191 l 531 191 l 525 142 l 513 142 b 388 200 489 174 448 200 b 227 19 288 200 227 126 z m 320 19 b 426 125 320 87 360 125 b 518 97 458 125 489 117 l 518 -56 b 426 -85 489 -77 458 -85 b 320 19 358 -85 320 -48 z "},"":{"ha":861,"x_min":0,"x_max":0,"o":"m 227 -3 b 385 -203 227 -121 281 -203 b 513 -146 444 -203 485 -178 l 518 -146 l 518 -332 l 609 -332 l 609 191 l 531 191 l 525 142 l 513 142 b 389 200 489 174 449 200 b 227 -3 283 200 227 117 z m 320 -3 b 426 125 320 84 358 125 b 518 96 457 125 488 117 l 518 -99 b 426 -128 488 -119 458 -128 b 320 -3 356 -128 320 -88 z "},"ₐ":{"ha":861,"x_min":0,"x_max":0,"o":"m 419 200 b 247 88 295 200 247 153 l 247 68 l 330 68 l 330 83 b 412 138 330 124 365 138 b 493 74 460 138 493 124 l 493 22 b 233 -99 366 24 233 8 b 356 -203 233 -164 281 -203 b 490 -147 417 -203 459 -177 l 499 -147 b 572 -202 503 -178 520 -202 b 629 -194 590 -202 608 -200 l 629 -129 b 585 -101 594 -133 585 -126 l 585 78 b 419 200 585 168 521 200 z m 328 -87 b 461 -25 328 -44 378 -25 b 493 -27 470 -25 481 -26 l 493 -108 b 399 -137 465 -126 435 -137 b 328 -87 355 -137 328 -119 z "},"ₑ":{"ha":861,"x_min":0,"x_max":0,"o":"m 227 -1 b 435 -203 227 -134 313 -203 b 624 -91 524 -203 596 -169 l 535 -78 b 435 -132 517 -117 479 -132 b 320 -11 364 -132 324 -90 l 626 -11 l 626 25 b 439 200 626 142 557 200 b 227 -1 313 200 227 133 z m 324 44 b 436 129 338 103 378 129 b 537 44 494 129 537 103 z "},"ᵢ":{"ha":861,"x_min":0,"x_max":0,"o":"m 245 -194 l 616 -194 l 616 -121 l 476 -121 l 476 190 l 465 200 l 245 191 l 245 119 l 385 119 l 385 -121 l 245 -121 z m 415 269 b 478 326 452 269 478 291 b 415 383 478 361 452 383 b 351 326 377 383 351 361 b 415 269 351 291 377 269 z "},"ⱼ":{"ha":861,"x_min":0,"x_max":0,"o":"m 544 -161 l 544 190 l 533 200 l 265 191 l 265 119 l 453 119 l 453 -162 b 351 -270 453 -247 426 -270 b 245 -258 315 -270 281 -266 l 245 -335 b 355 -348 280 -344 317 -348 b 544 -161 495 -348 544 -309 z m 481 269 b 544 326 519 269 544 291 b 481 383 544 361 519 383 b 418 326 444 383 418 361 b 481 269 418 291 444 269 z "},"ₒ":{"ha":861,"x_min":0,"x_max":0,"o":"m 634 -3 b 431 200 634 135 542 200 b 227 -3 319 200 227 135 b 431 -203 227 -142 319 -203 b 634 -3 542 -203 634 -141 z m 541 -3 b 431 -132 541 -97 495 -132 b 320 -3 366 -132 320 -97 b 431 129 320 92 366 129 b 541 -3 495 129 541 92 z "},"ᵣ":{"ha":861,"x_min":0,"x_max":0,"o":"m 421 191 l 240 191 l 240 118 l 342 118 l 342 -121 l 240 -121 l 240 -194 l 569 -194 l 569 -121 l 434 -121 l 434 77 b 627 111 492 107 545 111 l 627 196 b 587 200 615 199 601 200 b 439 135 520 200 480 178 l 427 135 z "},"ₔ":{"ha":861,"x_min":0,"x_max":0,"o":"m 634 -2 b 426 200 634 131 549 200 b 238 88 338 200 266 166 l 326 75 b 426 129 344 115 382 129 b 542 8 497 129 538 87 l 236 8 l 236 -28 b 423 -203 236 -145 305 -203 b 634 -2 549 -203 634 -135 z m 325 -47 l 537 -47 b 425 -132 524 -106 483 -132 b 325 -47 367 -132 325 -106 z "},"ᵤ":{"ha":861,"x_min":0,"x_max":0,"o":"m 252 191 l 252 -89 b 367 -203 252 -169 295 -203 b 513 -137 434 -203 477 -175 l 524 -137 l 531 -194 l 609 -194 l 609 191 l 518 191 l 518 -84 b 410 -131 487 -114 451 -131 b 343 -65 373 -131 343 -117 l 343 191 z "},"ᵥ":{"ha":861,"x_min":0,"x_max":0,"o":"m 217 191 l 383 -194 l 478 -194 l 643 191 l 553 191 l 438 -85 l 432 -85 l 315 191 z "},"ₓ":{"ha":861,"x_min":0,"x_max":0,"o":"m 217 191 l 376 2 l 212 -194 l 317 -194 l 426 -56 l 542 -194 l 649 -194 l 485 0 l 644 191 l 542 191 l 436 58 l 324 191 z "},"ª":{"ha":861,"x_min":0,"x_max":0,"o":"m 419 1158 b 247 1046 295 1158 247 1112 l 247 1026 l 330 1026 l 330 1042 b 412 1097 330 1082 365 1097 b 493 1033 460 1097 493 1083 l 493 981 b 233 859 366 982 233 967 b 356 756 233 794 281 756 b 490 811 417 756 459 781 l 499 811 b 572 756 503 780 520 756 b 629 764 590 756 608 758 l 629 829 b 585 857 594 826 585 832 l 585 1037 b 419 1158 585 1126 521 1158 z m 328 871 b 461 933 328 914 378 933 b 493 931 470 933 481 933 l 493 851 b 399 821 465 833 435 821 b 328 871 355 821 328 839 z "},"º":{"ha":861,"x_min":0,"x_max":0,"o":"m 634 956 b 431 1158 634 1094 542 1158 b 227 956 319 1158 227 1094 b 431 756 227 817 319 756 b 634 956 542 756 634 817 z m 541 956 b 431 826 541 861 495 826 b 320 956 366 826 320 861 b 431 1088 320 1050 366 1088 b 541 956 495 1088 541 1050 z "},"ʰ":{"ha":861,"x_min":0,"x_max":0,"o":"m 343 764 l 343 1038 b 451 1086 372 1067 408 1086 b 518 1021 488 1086 518 1072 l 518 764 l 609 764 l 609 1044 b 496 1158 609 1125 567 1158 b 354 1093 430 1158 390 1131 l 343 1093 l 343 1326 l 252 1326 l 252 764 z "},"ⁱ":{"ha":861,"x_min":0,"x_max":0,"o":"m 245 764 l 616 764 l 616 838 l 476 838 l 476 1148 l 465 1158 l 245 1149 l 245 1077 l 385 1077 l 385 838 l 245 838 z m 415 1227 b 478 1285 452 1227 478 1249 b 415 1341 478 1319 452 1341 b 351 1285 377 1341 351 1319 b 415 1227 351 1249 377 1227 z "},"ʲ":{"ha":861,"x_min":0,"x_max":0,"o":"m 544 797 l 544 1148 l 533 1158 l 265 1149 l 265 1077 l 453 1077 l 453 796 b 351 688 453 712 426 688 b 245 700 315 688 281 692 l 245 623 b 355 610 280 615 317 610 b 544 797 495 610 544 649 z m 481 1227 b 544 1285 519 1227 544 1249 b 481 1341 544 1319 519 1341 b 418 1285 444 1341 418 1319 b 481 1227 418 1249 444 1227 z "},"ˡ":{"ha":861,"x_min":0,"x_max":0,"o":"m 245 764 l 616 764 l 616 838 l 476 838 l 476 1324 l 465 1335 l 245 1326 l 245 1253 l 385 1253 l 385 838 l 245 838 z "},"ⁿ":{"ha":861,"x_min":0,"x_max":0,"o":"m 609 764 l 609 1044 b 494 1158 609 1125 566 1158 b 349 1093 429 1158 386 1132 l 337 1093 l 331 1149 l 252 1149 l 252 764 l 343 764 l 343 1039 b 451 1086 373 1067 408 1086 b 518 1021 488 1086 518 1072 l 518 764 z "},"ʳ":{"ha":861,"x_min":0,"x_max":0,"o":"m 421 1149 l 240 1149 l 240 1076 l 342 1076 l 342 838 l 240 838 l 240 764 l 569 764 l 569 838 l 434 838 l 434 1035 b 627 1069 492 1065 545 1069 l 627 1154 b 587 1158 615 1157 601 1158 b 439 1093 520 1158 480 1137 l 427 1093 z "},"ˢ":{"ha":861,"x_min":0,"x_max":0,"o":"m 433 1158 b 250 1042 308 1158 250 1115 b 398 926 250 972 306 944 b 523 868 490 908 523 897 b 430 821 523 843 497 821 b 315 884 374 821 331 830 l 232 875 b 426 756 249 788 311 756 b 614 878 549 756 614 803 b 456 992 614 951 556 972 b 337 1050 369 1010 337 1021 b 426 1094 337 1079 371 1094 b 525 1037 491 1094 520 1074 l 607 1043 b 433 1158 607 1118 547 1158 z "},"ʷ":{"ha":861,"x_min":0,"x_max":0,"o":"m 198 1149 l 288 764 l 359 764 l 428 985 l 433 985 l 497 764 l 574 764 l 663 1149 l 581 1149 l 526 902 l 519 902 l 465 1099 l 406 1099 l 344 902 l 338 902 l 283 1149 z "},"ˣ":{"ha":861,"x_min":0,"x_max":0,"o":"m 217 1149 l 376 960 l 212 764 l 317 764 l 426 902 l 542 764 l 649 764 l 485 958 l 644 1149 l 542 1149 l 436 1017 l 324 1149 z "},"ʸ":{"ha":861,"x_min":0,"x_max":0,"o":"m 217 1149 l 394 768 l 389 754 b 288 697 377 722 351 697 b 235 702 267 697 252 699 l 235 622 b 285 617 250 619 268 617 b 491 781 398 617 450 681 l 646 1149 l 555 1149 l 445 881 l 440 881 l 315 1149 z "},"ℂ":{"ha":861,"x_min":0,"x_max":0,"o":"m 178 506 b 275 871 178 686 216 803 l 275 144 b 178 506 216 211 178 327 z m 85 506 b 450 -15 85 153 239 -15 b 774 313 643 -15 765 120 l 689 321 b 452 66 676 167 592 66 b 358 83 419 66 388 72 l 358 931 b 452 949 388 943 419 949 b 689 694 592 949 676 847 l 774 702 b 450 1030 765 894 643 1030 b 85 506 239 1030 85 861 z "},"ℕ":{"ha":861,"x_min":0,"x_max":0,"o":"m 132 0 l 215 0 l 215 599 l 608 0 l 729 0 l 729 1014 l 646 1014 l 646 415 l 253 1014 l 132 1014 z m 215 747 l 215 924 l 646 267 l 646 90 z "},"ℚ":{"ha":861,"x_min":0,"x_max":0,"o":"m 501 273 l 417 273 l 513 78 b 431 65 488 69 460 65 b 353 76 403 65 377 69 l 353 938 b 431 949 377 946 403 949 b 691 508 588 949 691 831 b 575 114 691 299 648 175 z m 785 508 b 431 1031 785 862 643 1031 b 76 508 218 1031 76 862 b 431 -16 76 153 218 -16 b 548 4 472 -16 512 -10 l 638 -176 l 728 -176 l 615 40 b 785 508 721 115 785 269 z m 170 508 b 270 886 170 701 207 822 l 270 128 b 170 508 207 194 170 315 z "},"ℝ":{"ha":861,"x_min":0,"x_max":0,"o":"m 399 490 l 392 490 l 392 938 l 419 938 b 676 726 597 938 676 881 b 399 490 676 585 610 490 z m 132 0 l 392 0 l 392 417 l 408 417 b 490 422 438 417 465 418 l 690 0 l 789 0 l 572 440 b 763 726 703 484 763 587 b 436 1014 763 928 639 1014 l 132 1014 z m 215 76 l 215 938 l 309 938 l 309 76 z "},"ℤ":{"ha":861,"x_min":0,"x_max":0,"o":"m 104 1014 l 104 931 l 473 931 l 104 83 l 104 0 l 757 0 l 757 83 l 388 83 l 757 931 l 757 1014 z m 197 83 l 565 931 l 665 931 l 297 83 z "},"ₕ":{"ha":861,"x_min":0,"x_max":0,"o":"m 343 -194 l 343 80 b 451 128 372 108 408 128 b 518 63 488 128 518 114 l 518 -194 l 609 -194 l 609 86 b 496 200 609 167 567 200 b 354 135 430 200 390 172 l 343 135 l 343 367 l 252 367 l 252 -194 z "},"ₖ":{"ha":861,"x_min":0,"x_max":0,"o":"m 343 -194 l 343 -25 l 402 -25 l 549 -194 l 656 -194 l 483 6 l 483 10 l 643 191 l 542 191 l 416 47 l 343 47 l 343 367 l 252 367 l 252 -194 z "},"ₗ":{"ha":861,"x_min":0,"x_max":0,"o":"m 245 -194 l 616 -194 l 616 -121 l 476 -121 l 476 365 l 465 376 l 245 367 l 245 295 l 385 295 l 385 -121 l 245 -121 z "},"ₘ":{"ha":861,"x_min":0,"x_max":0,"o":"m 471 -194 l 471 104 b 515 124 484 116 499 124 b 544 92 530 124 544 117 l 544 -194 l 624 -194 l 624 124 b 559 199 624 176 600 199 b 473 140 515 199 488 170 l 470 140 b 406 199 465 181 443 199 b 319 140 362 199 333 170 l 311 140 l 306 191 l 238 191 l 238 -194 l 318 -194 l 318 104 b 362 124 331 115 345 124 b 390 92 376 124 390 117 l 390 -194 z "},"ₙ":{"ha":861,"x_min":0,"x_max":0,"o":"m 609 -194 l 609 86 b 494 200 609 167 566 200 b 349 135 429 200 386 174 l 337 135 l 331 191 l 252 191 l 252 -194 l 343 -194 l 343 81 b 451 128 373 109 408 128 b 518 63 488 128 518 114 l 518 -194 z "},"ₚ":{"ha":861,"x_min":0,"x_max":0,"o":"m 634 -1 b 476 200 634 117 581 200 b 348 142 417 200 376 174 l 336 142 l 331 191 l 252 191 l 252 -332 l 343 -332 l 343 -146 l 349 -146 b 473 -203 372 -178 413 -203 b 634 -1 578 -203 634 -121 z m 343 -99 l 343 96 b 435 125 373 117 403 125 b 541 -1 506 125 541 85 b 435 -128 541 -88 503 -128 b 343 -99 404 -128 373 -120 z "},"ₛ":{"ha":861,"x_min":0,"x_max":0,"o":"m 433 200 b 250 84 308 200 250 156 b 398 -33 250 14 306 -14 b 523 -90 490 -51 523 -61 b 430 -137 523 -115 497 -137 b 315 -74 374 -137 331 -128 l 232 -83 b 426 -203 249 -170 311 -203 b 614 -80 549 -203 614 -155 b 456 34 614 -7 556 14 b 337 92 369 52 337 63 b 426 135 337 121 371 135 b 525 78 491 135 520 116 l 607 85 b 433 200 607 160 547 200 z "},"ₜ":{"ha":861,"x_min":0,"x_max":0,"o":"m 509 -203 b 614 -191 546 -203 583 -199 l 614 -114 b 519 -126 583 -122 550 -126 b 427 -36 452 -126 427 -109 l 427 118 l 604 118 l 604 191 l 427 191 l 427 303 l 336 303 l 336 191 l 224 191 l 224 118 l 336 118 l 336 -37 b 509 -203 336 -171 386 -203 z "},"ᴬ":{"ha":861,"x_min":0,"x_max":0,"o":"m 623 764 l 479 1149 l 381 1149 l 239 764 l 331 764 l 359 842 l 498 842 l 527 764 z m 379 899 l 425 1024 l 430 1024 l 477 899 z "}}}
